<mxfile host="app.diagrams.net" modified="2021-10-25T04:44:43.041Z" agent="5.0 (Windows NT 10.0; Win64; x64) AppleWebKit/537.36 (KHTML, like Gecko) Chrome/94.0.4606.81 Safari/537.36" etag="U3mCR_MxYiwENmjKeLHf" version="15.5.8" type="github">
  <diagram id="-oBOWAa3MKoCQ1pD1yrv" name="Page-1">
    <mxGraphModel dx="1262" dy="1595" grid="0" gridSize="10" guides="1" tooltips="1" connect="1" arrows="1" fold="1" page="0" pageScale="1" pageWidth="827" pageHeight="1169" math="0" shadow="0">
      <root>
        <mxCell id="0" />
        <mxCell id="1" parent="0" />
        <mxCell id="WlglhAFsyyYIBNb1rmfc-15" value="" style="edgeStyle=none;curved=1;rounded=0;sketch=0;hachureGap=4;orthogonalLoop=1;jettySize=auto;html=1;fontFamily=Helvetica;fontSize=16;endArrow=none;endFill=1;startSize=14;endSize=14;sourcePerimeterSpacing=8;targetPerimeterSpacing=8;strokeWidth=1;" parent="1" source="WlglhAFsyyYIBNb1rmfc-2" target="WlglhAFsyyYIBNb1rmfc-11" edge="1">
          <mxGeometry relative="1" as="geometry" />
        </mxCell>
        <mxCell id="WlglhAFsyyYIBNb1rmfc-19" value="" style="edgeStyle=none;curved=1;rounded=0;sketch=0;hachureGap=4;orthogonalLoop=1;jettySize=auto;html=1;fontFamily=Helvetica;fontSize=16;endArrow=none;endFill=1;startSize=14;endSize=14;sourcePerimeterSpacing=8;targetPerimeterSpacing=8;strokeWidth=1;" parent="1" source="WlglhAFsyyYIBNb1rmfc-2" target="WlglhAFsyyYIBNb1rmfc-9" edge="1">
          <mxGeometry relative="1" as="geometry" />
        </mxCell>
        <mxCell id="UBVngrWdJoMPdzRXQv1F-57" style="edgeStyle=none;curved=1;rounded=0;sketch=0;hachureGap=4;orthogonalLoop=1;jettySize=auto;html=1;exitX=0.5;exitY=0;exitDx=0;exitDy=0;entryX=0.5;entryY=1;entryDx=0;entryDy=0;fontFamily=Helvetica;fontSize=15;endArrow=none;endFill=1;startSize=14;endSize=14;sourcePerimeterSpacing=8;targetPerimeterSpacing=8;strokeWidth=1;" edge="1" parent="1" source="WlglhAFsyyYIBNb1rmfc-2" target="UBVngrWdJoMPdzRXQv1F-23">
          <mxGeometry relative="1" as="geometry" />
        </mxCell>
        <mxCell id="UBVngrWdJoMPdzRXQv1F-58" style="edgeStyle=none;curved=1;rounded=0;sketch=0;hachureGap=4;orthogonalLoop=1;jettySize=auto;html=1;exitX=0.5;exitY=0;exitDx=0;exitDy=0;entryX=0.5;entryY=1;entryDx=0;entryDy=0;fontFamily=Helvetica;fontSize=15;endArrow=none;endFill=1;startSize=14;endSize=14;sourcePerimeterSpacing=8;targetPerimeterSpacing=8;strokeWidth=1;" edge="1" parent="1" source="WlglhAFsyyYIBNb1rmfc-2" target="UBVngrWdJoMPdzRXQv1F-51">
          <mxGeometry relative="1" as="geometry" />
        </mxCell>
        <mxCell id="UBVngrWdJoMPdzRXQv1F-59" style="edgeStyle=none;curved=1;rounded=0;sketch=0;hachureGap=4;orthogonalLoop=1;jettySize=auto;html=1;exitX=0.5;exitY=0;exitDx=0;exitDy=0;fontFamily=Helvetica;fontSize=15;endArrow=none;endFill=1;startSize=14;endSize=14;sourcePerimeterSpacing=8;targetPerimeterSpacing=8;strokeWidth=1;" edge="1" parent="1" source="WlglhAFsyyYIBNb1rmfc-2" target="UBVngrWdJoMPdzRXQv1F-52">
          <mxGeometry relative="1" as="geometry" />
        </mxCell>
        <mxCell id="UBVngrWdJoMPdzRXQv1F-60" style="edgeStyle=none;curved=1;rounded=0;sketch=0;hachureGap=4;orthogonalLoop=1;jettySize=auto;html=1;exitX=0.5;exitY=0;exitDx=0;exitDy=0;entryX=0.5;entryY=1;entryDx=0;entryDy=0;fontFamily=Helvetica;fontSize=15;endArrow=none;endFill=1;startSize=14;endSize=14;sourcePerimeterSpacing=8;targetPerimeterSpacing=8;strokeWidth=1;" edge="1" parent="1" source="WlglhAFsyyYIBNb1rmfc-2" target="UBVngrWdJoMPdzRXQv1F-53">
          <mxGeometry relative="1" as="geometry" />
        </mxCell>
        <mxCell id="WlglhAFsyyYIBNb1rmfc-2" value="&lt;p&gt;&lt;font face=&quot;Helvetica&quot; style=&quot;font-size: 15px&quot;&gt;PRODUCTO&lt;/font&gt;&lt;/p&gt;" style="rounded=0;whiteSpace=wrap;html=1;sketch=0;hachureGap=4;pointerEvents=0;fontFamily=Architects Daughter;fontSource=https%3A%2F%2Ffonts.googleapis.com%2Fcss%3Ffamily%3DArchitects%2BDaughter;fontSize=19;" parent="1" vertex="1">
          <mxGeometry x="489" y="-86" width="120" height="60" as="geometry" />
        </mxCell>
        <mxCell id="WlglhAFsyyYIBNb1rmfc-18" value="" style="edgeStyle=none;curved=1;rounded=0;sketch=0;hachureGap=4;orthogonalLoop=1;jettySize=auto;html=1;fontFamily=Helvetica;fontSize=16;endArrow=none;endFill=1;startSize=14;endSize=14;sourcePerimeterSpacing=8;targetPerimeterSpacing=8;strokeWidth=1;" parent="1" source="WlglhAFsyyYIBNb1rmfc-3" target="WlglhAFsyyYIBNb1rmfc-12" edge="1">
          <mxGeometry relative="1" as="geometry" />
        </mxCell>
        <mxCell id="UBVngrWdJoMPdzRXQv1F-65" style="edgeStyle=none;curved=1;rounded=0;sketch=0;hachureGap=4;orthogonalLoop=1;jettySize=auto;html=1;exitX=0.5;exitY=1;exitDx=0;exitDy=0;fontFamily=Helvetica;fontSize=15;endArrow=none;endFill=1;startSize=14;endSize=14;sourcePerimeterSpacing=8;targetPerimeterSpacing=8;strokeWidth=1;" edge="1" parent="1" source="WlglhAFsyyYIBNb1rmfc-3" target="UBVngrWdJoMPdzRXQv1F-61">
          <mxGeometry relative="1" as="geometry" />
        </mxCell>
        <mxCell id="UBVngrWdJoMPdzRXQv1F-66" style="edgeStyle=none;curved=1;rounded=0;sketch=0;hachureGap=4;orthogonalLoop=1;jettySize=auto;html=1;exitX=0.75;exitY=1;exitDx=0;exitDy=0;fontFamily=Helvetica;fontSize=15;endArrow=none;endFill=1;startSize=14;endSize=14;sourcePerimeterSpacing=8;targetPerimeterSpacing=8;strokeWidth=1;" edge="1" parent="1" source="WlglhAFsyyYIBNb1rmfc-3" target="UBVngrWdJoMPdzRXQv1F-62">
          <mxGeometry relative="1" as="geometry" />
        </mxCell>
        <mxCell id="UBVngrWdJoMPdzRXQv1F-67" style="edgeStyle=none;curved=1;rounded=0;sketch=0;hachureGap=4;orthogonalLoop=1;jettySize=auto;html=1;exitX=1;exitY=0.75;exitDx=0;exitDy=0;entryX=0.289;entryY=0.314;entryDx=0;entryDy=0;entryPerimeter=0;fontFamily=Helvetica;fontSize=15;endArrow=none;endFill=1;startSize=14;endSize=14;sourcePerimeterSpacing=8;targetPerimeterSpacing=8;strokeWidth=1;" edge="1" parent="1" source="WlglhAFsyyYIBNb1rmfc-3" target="UBVngrWdJoMPdzRXQv1F-63">
          <mxGeometry relative="1" as="geometry" />
        </mxCell>
        <mxCell id="UBVngrWdJoMPdzRXQv1F-68" style="edgeStyle=none;curved=1;rounded=0;sketch=0;hachureGap=4;orthogonalLoop=1;jettySize=auto;html=1;exitX=1;exitY=0.25;exitDx=0;exitDy=0;fontFamily=Helvetica;fontSize=15;endArrow=none;endFill=1;startSize=14;endSize=14;sourcePerimeterSpacing=8;targetPerimeterSpacing=8;strokeWidth=1;" edge="1" parent="1" source="WlglhAFsyyYIBNb1rmfc-3" target="UBVngrWdJoMPdzRXQv1F-64">
          <mxGeometry relative="1" as="geometry" />
        </mxCell>
        <mxCell id="WlglhAFsyyYIBNb1rmfc-3" value="&lt;p style=&quot;font-size: 15px;&quot;&gt;&lt;font face=&quot;Helvetica&quot; style=&quot;font-size: 15px;&quot;&gt;VENTA&lt;/font&gt;&lt;/p&gt;" style="rounded=0;whiteSpace=wrap;html=1;sketch=0;hachureGap=4;pointerEvents=0;fontFamily=Architects Daughter;fontSource=https%3A%2F%2Ffonts.googleapis.com%2Fcss%3Ffamily%3DArchitects%2BDaughter;fontSize=15;" parent="1" vertex="1">
          <mxGeometry x="471" y="149" width="120" height="60" as="geometry" />
        </mxCell>
        <mxCell id="UBVngrWdJoMPdzRXQv1F-75" style="edgeStyle=none;curved=1;rounded=0;sketch=0;hachureGap=4;orthogonalLoop=1;jettySize=auto;html=1;exitX=0.5;exitY=0;exitDx=0;exitDy=0;fontFamily=Helvetica;fontSize=15;endArrow=none;endFill=1;startSize=14;endSize=14;sourcePerimeterSpacing=8;targetPerimeterSpacing=8;strokeWidth=1;" edge="1" parent="1" source="WlglhAFsyyYIBNb1rmfc-4" target="UBVngrWdJoMPdzRXQv1F-70">
          <mxGeometry relative="1" as="geometry" />
        </mxCell>
        <mxCell id="UBVngrWdJoMPdzRXQv1F-83" style="edgeStyle=none;curved=1;rounded=0;sketch=0;hachureGap=4;orthogonalLoop=1;jettySize=auto;html=1;exitX=0.5;exitY=1;exitDx=0;exitDy=0;fontFamily=Helvetica;fontSize=15;endArrow=none;endFill=1;startSize=14;endSize=14;sourcePerimeterSpacing=8;targetPerimeterSpacing=8;strokeWidth=1;" edge="1" parent="1" source="WlglhAFsyyYIBNb1rmfc-4" target="UBVngrWdJoMPdzRXQv1F-82">
          <mxGeometry relative="1" as="geometry" />
        </mxCell>
        <mxCell id="UBVngrWdJoMPdzRXQv1F-84" style="edgeStyle=none;curved=1;rounded=0;sketch=0;hachureGap=4;orthogonalLoop=1;jettySize=auto;html=1;exitX=0.5;exitY=1;exitDx=0;exitDy=0;fontFamily=Helvetica;fontSize=15;endArrow=none;endFill=1;startSize=14;endSize=14;sourcePerimeterSpacing=8;targetPerimeterSpacing=8;strokeWidth=1;" edge="1" parent="1" source="WlglhAFsyyYIBNb1rmfc-4" target="UBVngrWdJoMPdzRXQv1F-81">
          <mxGeometry relative="1" as="geometry" />
        </mxCell>
        <mxCell id="UBVngrWdJoMPdzRXQv1F-85" style="edgeStyle=none;curved=1;rounded=0;sketch=0;hachureGap=4;orthogonalLoop=1;jettySize=auto;html=1;exitX=0.5;exitY=1;exitDx=0;exitDy=0;fontFamily=Helvetica;fontSize=15;endArrow=none;endFill=1;startSize=14;endSize=14;sourcePerimeterSpacing=8;targetPerimeterSpacing=8;strokeWidth=1;" edge="1" parent="1" source="WlglhAFsyyYIBNb1rmfc-4" target="UBVngrWdJoMPdzRXQv1F-80">
          <mxGeometry relative="1" as="geometry" />
        </mxCell>
        <mxCell id="WlglhAFsyyYIBNb1rmfc-4" value="&lt;p style=&quot;font-size: 15px;&quot;&gt;&lt;font face=&quot;Helvetica&quot; style=&quot;font-size: 15px;&quot;&gt;CLIENTE&lt;/font&gt;&lt;/p&gt;" style="rounded=0;whiteSpace=wrap;html=1;sketch=0;hachureGap=4;pointerEvents=0;fontFamily=Architects Daughter;fontSource=https%3A%2F%2Ffonts.googleapis.com%2Fcss%3Ffamily%3DArchitects%2BDaughter;fontSize=15;" parent="1" vertex="1">
          <mxGeometry x="142" y="145" width="120" height="60" as="geometry" />
        </mxCell>
        <mxCell id="UBVngrWdJoMPdzRXQv1F-27" value="" style="edgeStyle=none;curved=1;rounded=0;sketch=0;hachureGap=4;orthogonalLoop=1;jettySize=auto;html=1;fontFamily=Helvetica;fontSize=15;endArrow=none;endFill=1;startSize=14;endSize=14;sourcePerimeterSpacing=8;targetPerimeterSpacing=8;strokeWidth=1;" edge="1" parent="1" source="WlglhAFsyyYIBNb1rmfc-5" target="UBVngrWdJoMPdzRXQv1F-26">
          <mxGeometry relative="1" as="geometry" />
        </mxCell>
        <mxCell id="UBVngrWdJoMPdzRXQv1F-34" value="" style="edgeStyle=none;curved=1;rounded=0;sketch=0;hachureGap=4;orthogonalLoop=1;jettySize=auto;html=1;fontFamily=Helvetica;fontSize=15;endArrow=none;endFill=1;startSize=14;endSize=14;sourcePerimeterSpacing=8;targetPerimeterSpacing=8;strokeWidth=1;" edge="1" parent="1" source="WlglhAFsyyYIBNb1rmfc-5" target="UBVngrWdJoMPdzRXQv1F-24">
          <mxGeometry relative="1" as="geometry" />
        </mxCell>
        <mxCell id="WlglhAFsyyYIBNb1rmfc-5" value="&lt;p style=&quot;font-size: 15px;&quot;&gt;&lt;font face=&quot;Helvetica&quot; style=&quot;font-size: 15px;&quot;&gt;CATEGORÍA&lt;/font&gt;&lt;/p&gt;" style="rounded=0;whiteSpace=wrap;html=1;sketch=0;hachureGap=4;pointerEvents=0;fontFamily=Architects Daughter;fontSource=https%3A%2F%2Ffonts.googleapis.com%2Fcss%3Ffamily%3DArchitects%2BDaughter;fontSize=15;" parent="1" vertex="1">
          <mxGeometry x="159" y="-86" width="120" height="60" as="geometry" />
        </mxCell>
        <mxCell id="UBVngrWdJoMPdzRXQv1F-48" style="edgeStyle=none;curved=1;rounded=0;sketch=0;hachureGap=4;orthogonalLoop=1;jettySize=auto;html=1;exitX=1;exitY=0.25;exitDx=0;exitDy=0;entryX=0;entryY=1;entryDx=0;entryDy=0;fontFamily=Helvetica;fontSize=15;endArrow=none;endFill=1;startSize=14;endSize=14;sourcePerimeterSpacing=8;targetPerimeterSpacing=8;strokeWidth=1;" edge="1" parent="1" source="WlglhAFsyyYIBNb1rmfc-8" target="UBVngrWdJoMPdzRXQv1F-47">
          <mxGeometry relative="1" as="geometry" />
        </mxCell>
        <mxCell id="UBVngrWdJoMPdzRXQv1F-49" style="edgeStyle=none;curved=1;rounded=0;sketch=0;hachureGap=4;orthogonalLoop=1;jettySize=auto;html=1;exitX=1;exitY=0.75;exitDx=0;exitDy=0;entryX=0;entryY=0;entryDx=0;entryDy=0;fontFamily=Helvetica;fontSize=15;endArrow=none;endFill=1;startSize=14;endSize=14;sourcePerimeterSpacing=8;targetPerimeterSpacing=8;strokeWidth=1;" edge="1" parent="1" source="WlglhAFsyyYIBNb1rmfc-8" target="UBVngrWdJoMPdzRXQv1F-46">
          <mxGeometry relative="1" as="geometry" />
        </mxCell>
        <mxCell id="UBVngrWdJoMPdzRXQv1F-50" style="edgeStyle=none;curved=1;rounded=0;sketch=0;hachureGap=4;orthogonalLoop=1;jettySize=auto;html=1;exitX=0.75;exitY=1;exitDx=0;exitDy=0;fontFamily=Helvetica;fontSize=15;endArrow=none;endFill=1;startSize=14;endSize=14;sourcePerimeterSpacing=8;targetPerimeterSpacing=8;strokeWidth=1;" edge="1" parent="1" source="WlglhAFsyyYIBNb1rmfc-8" target="UBVngrWdJoMPdzRXQv1F-45">
          <mxGeometry relative="1" as="geometry" />
        </mxCell>
        <mxCell id="WlglhAFsyyYIBNb1rmfc-8" value="&lt;p style=&quot;font-size: 15px;&quot;&gt;&lt;font face=&quot;Helvetica&quot; style=&quot;font-size: 15px;&quot;&gt;PROVEEDOR&lt;/font&gt;&lt;/p&gt;" style="rounded=0;whiteSpace=wrap;html=1;sketch=0;hachureGap=4;pointerEvents=0;fontFamily=Architects Daughter;fontSource=https%3A%2F%2Ffonts.googleapis.com%2Fcss%3Ffamily%3DArchitects%2BDaughter;fontSize=15;" parent="1" vertex="1">
          <mxGeometry x="813" y="-83" width="167" height="60" as="geometry" />
        </mxCell>
        <mxCell id="UBVngrWdJoMPdzRXQv1F-9" value="" style="edgeStyle=none;curved=1;rounded=0;sketch=0;hachureGap=4;orthogonalLoop=1;jettySize=auto;html=1;fontFamily=Helvetica;fontSize=15;endArrow=none;endFill=1;startSize=14;endSize=14;sourcePerimeterSpacing=8;targetPerimeterSpacing=8;strokeWidth=1;" edge="1" parent="1" source="WlglhAFsyyYIBNb1rmfc-9" target="WlglhAFsyyYIBNb1rmfc-5">
          <mxGeometry relative="1" as="geometry" />
        </mxCell>
        <mxCell id="WlglhAFsyyYIBNb1rmfc-9" value="tiene" style="rhombus;whiteSpace=wrap;html=1;sketch=0;hachureGap=4;pointerEvents=0;fontFamily=Helvetica;fontSize=15;" parent="1" vertex="1">
          <mxGeometry x="329" y="-93" width="80" height="80" as="geometry" />
        </mxCell>
        <mxCell id="WlglhAFsyyYIBNb1rmfc-16" value="" style="edgeStyle=none;curved=1;rounded=0;sketch=0;hachureGap=4;orthogonalLoop=1;jettySize=auto;html=1;fontFamily=Helvetica;fontSize=16;endArrow=none;endFill=1;startSize=14;endSize=14;sourcePerimeterSpacing=8;targetPerimeterSpacing=8;strokeWidth=1;" parent="1" source="WlglhAFsyyYIBNb1rmfc-10" target="WlglhAFsyyYIBNb1rmfc-2" edge="1">
          <mxGeometry relative="1" as="geometry" />
        </mxCell>
        <mxCell id="WlglhAFsyyYIBNb1rmfc-17" value="" style="edgeStyle=none;curved=1;rounded=0;sketch=0;hachureGap=4;orthogonalLoop=1;jettySize=auto;html=1;fontFamily=Helvetica;fontSize=16;endArrow=none;endFill=1;startSize=14;endSize=14;sourcePerimeterSpacing=8;targetPerimeterSpacing=8;strokeWidth=1;" parent="1" source="WlglhAFsyyYIBNb1rmfc-10" target="WlglhAFsyyYIBNb1rmfc-3" edge="1">
          <mxGeometry relative="1" as="geometry" />
        </mxCell>
        <mxCell id="WlglhAFsyyYIBNb1rmfc-10" value="consta" style="rhombus;whiteSpace=wrap;html=1;sketch=0;hachureGap=4;pointerEvents=0;fontFamily=Helvetica;fontSize=15;" parent="1" vertex="1">
          <mxGeometry x="485" y="17" width="80" height="80" as="geometry" />
        </mxCell>
        <mxCell id="WlglhAFsyyYIBNb1rmfc-14" value="" style="edgeStyle=none;curved=1;rounded=0;sketch=0;hachureGap=4;orthogonalLoop=1;jettySize=auto;html=1;fontFamily=Helvetica;fontSize=16;endArrow=none;startSize=14;endSize=14;sourcePerimeterSpacing=8;targetPerimeterSpacing=8;endFill=1;strokeWidth=1;" parent="1" source="WlglhAFsyyYIBNb1rmfc-11" target="WlglhAFsyyYIBNb1rmfc-8" edge="1">
          <mxGeometry relative="1" as="geometry" />
        </mxCell>
        <mxCell id="WlglhAFsyyYIBNb1rmfc-11" value="tiene" style="rhombus;whiteSpace=wrap;html=1;sketch=0;hachureGap=4;pointerEvents=0;fontFamily=Helvetica;fontSize=15;" parent="1" vertex="1">
          <mxGeometry x="663" y="-96" width="80" height="80" as="geometry" />
        </mxCell>
        <mxCell id="WlglhAFsyyYIBNb1rmfc-21" value="" style="edgeStyle=none;curved=1;rounded=0;sketch=0;hachureGap=4;orthogonalLoop=1;jettySize=auto;html=1;fontFamily=Helvetica;fontSize=16;endArrow=none;endFill=1;startSize=14;endSize=14;sourcePerimeterSpacing=8;targetPerimeterSpacing=8;strokeWidth=1;" parent="1" source="WlglhAFsyyYIBNb1rmfc-12" target="WlglhAFsyyYIBNb1rmfc-4" edge="1">
          <mxGeometry relative="1" as="geometry" />
        </mxCell>
        <mxCell id="WlglhAFsyyYIBNb1rmfc-12" value="consta" style="rhombus;whiteSpace=wrap;html=1;sketch=0;hachureGap=4;pointerEvents=0;fontFamily=Helvetica;fontSize=15;" parent="1" vertex="1">
          <mxGeometry x="329" y="135" width="80" height="80" as="geometry" />
        </mxCell>
        <mxCell id="WlglhAFsyyYIBNb1rmfc-22" value="1:M" style="text;html=1;align=center;verticalAlign=middle;resizable=0;points=[];autosize=1;strokeColor=none;fillColor=none;sketch=0;hachureGap=4;pointerEvents=0;fontFamily=Helvetica;fontSize=15;" parent="1" vertex="1">
          <mxGeometry x="352" y="-117" width="35" height="22" as="geometry" />
        </mxCell>
        <mxCell id="WlglhAFsyyYIBNb1rmfc-23" value="1:M" style="text;html=1;align=center;verticalAlign=middle;resizable=0;points=[];autosize=1;strokeColor=none;fillColor=none;sketch=0;hachureGap=4;pointerEvents=0;fontFamily=Helvetica;fontSize=15;" parent="1" vertex="1">
          <mxGeometry x="351.5" y="115" width="35" height="22" as="geometry" />
        </mxCell>
        <mxCell id="WlglhAFsyyYIBNb1rmfc-24" value="M:N" style="text;html=1;align=center;verticalAlign=middle;resizable=0;points=[];autosize=1;strokeColor=none;fillColor=none;sketch=0;hachureGap=4;pointerEvents=0;fontFamily=Helvetica;fontSize=15;" parent="1" vertex="1">
          <mxGeometry x="684.5" y="-118" width="37" height="22" as="geometry" />
        </mxCell>
        <mxCell id="WlglhAFsyyYIBNb1rmfc-27" value="" style="shape=image;verticalLabelPosition=bottom;labelBackgroundColor=#ffffff;verticalAlign=top;aspect=fixed;imageAspect=0;image=data:image/jpeg,/9j/4AAQSkZJRgABAQEAYABgAAD/2wBDAAgGBgcGBQgHBwcJCQgKDBQNDAsLDBkSEw8UHRofHh0aHBwgJC4nICIsIxwcKDcpLDAxNDQ0Hyc5PTgyPC4zNDL/2wBDAQkJCQwLDBgNDRgyIRwhMjIyMjIyMjIyMjIyMjIyMjIyMjIyMjIyMjIyMjIyMjIyMjIyMjIyMjIyMjIyMjIyMjL/wAARCAF/AyADASIAAhEBAxEB/8QAHwAAAQUBAQEBAQEAAAAAAAAAAAECAwQFBgcICQoL/8QAtRAAAgEDAwIEAwUFBAQAAAF9AQIDAAQRBRIhMUEGE1FhByJxFDKBkaEII0KxwRVS0fAkM2JyggkKFhcYGRolJicoKSo0NTY3ODk6Q0RFRkdISUpTVFVWV1hZWmNkZWZnaGlqc3R1dnd4eXqDhIWGh4iJipKTlJWWl5iZmqKjpKWmp6ipqrKztLW2t7i5usLDxMXGx8jJytLT1NXW19jZ2uHi4+Tl5ufo6erx8vP09fb3+Pn6/8QAHwEAAwEBAQEBAQEBAQAAAAAAAAECAwQFBgcICQoL/8QAtREAAgECBAQDBAcFBAQAAQJ3AAECAxEEBSExBhJBUQdhcRMiMoEIFEKRobHBCSMzUvAVYnLRChYkNOEl8RcYGRomJygpKjU2Nzg5OkNERUZHSElKU1RVVldYWVpjZGVmZ2hpanN0dXZ3eHl6goOEhYaHiImKkpOUlZaXmJmaoqOkpaanqKmqsrO0tba3uLm6wsPExcbHyMnK0tPU1dbX2Nna4uPk5ebn6Onq8vP09fb3+Pn6/9oADAMBAAIRAxEAPwD3+iiigAooooAKKKKACiiigAooooAKKKKACiiigAooooAKKKKACiiigAooooAKKKKACiiigAooooAKKKKACiiigAooooAKKKKACiiigAooooAKKKKACiiigAooooAKKKKACiiigAooooAKKKKACiiigAooooAKKKKACiiigAooooAKKKKACiiigAooooAKKKKACiiigAooooAKKKKACiiigAooooAKKKKACiiigAooooAKKKKACiiigAooooAKKKKACiiigAooooAZKzpBI6JvdVJVf7xx0rxfwF4l1bxdqPnX/jltO1iO8Ik0JrVFTy1blAGwxJGRkHIr2a4MwtpTbqjThD5Yc4UtjjPtmvGPFHhrxH47v9MR/BUWh6nBcpJc6yLqNgFXrt2/M3YjPTFAHRWfi3TdI8V+Obu91HWJINLWFpoZ2VoY8jgQqDkEnjnFW5fiDqFz4U1XUrXwtrFrNBZ/aLYzxoVkVhw4O7Hy8MQecVkQeGtXtvFXxCvrjw8NSs9SSAW1tJMqLdqBhgD/AAkD1xzVbwZ4R8QQHxHbJY3ej6BeWD29pp17eCcpMwxuXBO1ev8A9egDU8H/ABKmf4dHxD4qtbm3jt4wzXhRAt2zOwAjVT14A5A61saJ8RLfU9ch0fUNG1PR725hae0S9jUCdAMnBBOCBzg1wsfg3xPrnwabwfdaObC/0x0aB5bhCl2Q7EgbT8vB6nvitHwV4Sit/EVneSfD660m4t43JvrjV2nVHKlcIhY5ByevSgC4nxu0p9KGqjQdZ/s+Obybq6ESmO3bdgZOfmPQ8dMjvWzpfxN0/UvEtlo8ml6nY/2jG0mn3N1CES5UDOQM5GQMjI9Oma4aHwT4kX4DaroDaXINVmvjLHbb0yy+YhznOOgJ610us+G9YufG3w9vorJ3ttMhkW8kDLiIlFAzzzyO2aALmq/FS00d3uLnw/rS6PHP5D6m1uFiDZ25AJ3Fc8ZxXb3F9bWuny388ypaxRGZ5D0CAZJ/KvnbxB8PvGGqadqkF74evNR1troyJqr6mPKaHcMKkW7GfYjj8K901nRZdZ8DXei7xFNc2Btwx6KxTHPtmgDyT4hfEceI/CentYaZrOn28+pRNa3sqbI7hVLBsFTx64PXHtXouufEO30vW7jR9P0fUtZvbSITXaWMYIgUjI3Ekckc4FecajoPjzU/h9o/hZvCohGk3ERluPtcZ88ISFMag9MHJJ/CrviX4fXcXxC1fWbjwxceIdN1II8YtdQNtJbuAAQw3LuB/wAPegD1nw/4gsPE+g22saY7SWtwpK7hhgQcFSOxBGK5q1+KOk3HgvVvEklrcwJpczW9xaybfM8wEAAc45LD9a2fBOkxaL4VtLOLR/7HGWc2X2kz+USxPLnqTwfbOK8s8R/DvxFdfEG9sLK0J8K61fW99eyhlAQpkuuM55JJ6d1oA7u7+JUEUtjZ2WhapqGqXNml7JZWyKWt42GRvJOAeelQ3nxb0G18Mabr4t72S1vLz7E0ax/vYJACWDLnqMdBnORXMeNPAV3J8RJ9fbw5Nr+l3lskTQWt8baWCRQADwy5XC/r7UzVfBGoSeEfDdto3hZ9MMOvJe3Fl9tE7RoMgyM7HrgDIBOKAOv0/wCJUV/qWoaU2gata6tbWpu4bK4RVkuY/wDZ5wDz0P8AQ1i/DX4i6trXhu/v/EGn3bx2hlkN7FCuxgpGIlReS/J7VpTeH9Uf45w66LRv7LGjm3NxuGBJvJ24znv6Vznhbw/410bwN4i8KW+nPZXu6aaz1NbhNkpZlwq4OVJUNycY9qAOt074kQXPiOy0TUtC1bSJ9QDGza9iVRLtGSOCSpx2PrS6V8R4Nc1lrXTNC1a509bo2jamkSmFZB1yM7gvTnHevOPD3gXXYvGvhTVf+EWvLCOzdhqFxc6iLh5ZNnL43HauemOufatWHwx4hbx/Zajonhq58Nt9t8zU511BXtrmLPzYjHUsPYYz+NAHtFFFFABRRRQAUUUUAFFFFABRRRQAUUUUAFFFFABRRRQAUUUUAFFFFABRRRQAUUUUAFFFFABRRRQAUUUUAFFFFABRRRQAUUUUAFFFFABRRRQAUUUUAFFFFABRRRQAUUUUAFFFFABRRRQAUUUUAFFFFABRRRQAUUUUAFFFFABRRRQAUUUUAFFFFABRRRQAUUUUAFFFFABRRRQAUUUUAFFFFABRRRQAUUUUAFFFFABRRRQAUUUUAFFFFABRRRQAUUUUAFFFFABRRRQAUUUUAFFFFABRRRQAUUUUAFFFFABRRRQAUUUUAFFFFABRRRQAUUUUAFFFFABRRRQAUUUUAFFFFABRRRQAUUUUAFFFFABRRRQAUUUUAFFFFABRRRQAUUUUAFFFFABRRRQAUUUUAFFFFABRRRQAUUUUAFFFFABRRRQAUUUUAFFFFABRRRQAUUUUAFFFFABRRRQAUUUUAFFFFABRRRQAUUUUAFFFc54u8Q3Ph9NGNtDFJ9u1SCyk8zPyo+ckYPXigDo6Kqalqdjo+ny3+o3UVtaxDLyytgD/AOv7VT0TxRoviMzLpV8s7wY82NkaN0z0JVgDg9jjFAGvRUVzcwWVrLdXUyQwRKXkkkbCqo6kn0rH0fxl4f155k07Uo5Whj81w6NGfL/vjeBlf9oce9AG7RXOad498L6rqMdhZavFJcSkiEFHVZiOuxiAr/8AASaTUfH3hfSbq5tr3Vo47i2fZNEI3ZkO0NkhQTtww+boM9aAOkorjPFPxE0zw4+h7SLqHVJ0Hmxq7qsLAnzFKqQx4Hyjk5rQvvHfhnTEga91RYDPbrcxI8Ugd4ycAhduSc9sZ9qAOjornNR8e+GNJmWG91VI5DGspCxO+xGGVZ9qnYCP72KoeJviJpnhzVdEtHJmi1FtzzRxyOEiKsVddqkPkjGBzg56UAdlRXPan448OaP5IvtSETzQidUEMjuIz0ZlVSVHuwFWLzxZoGn2FlfXWq20Vpff8e05b5JPlLcMOOgPX+dAGzRWTonibR/EaznSr1bg27BZkKMjoTyMqwBGexxzVrVNUstF06XUNRuFt7WLbvlYEhckKOnuRQBcorC0zxn4d1nU207T9UinugpdUCsBIo6lGIAcD1UmoD4+8LjVRpp1iH7SZvs4+R/L83ONnmY2bs8YzmgDpKKwNV8beHNDvnsdR1SOC6QITDsZmw+dpAAORwc46d8VHqPj3wxpOovY3urxRTxsEl+R2SJj0DuAVQ8j7xFAHR0UgIIBBBB5BFcHJ45t9G8feILHW9TEVjBBataQ+UWbLK5cgKCzDgZ6ge1AHe0VjXPivQrTRLfWZtTgGn3GBBMpLeaT0CgZLHg8AZ4NO0vxRomtWFxfWGoRSW9sSLhnBjMJAyd4YArxzyKANeisHR/Gfh7X7h7fTdTjmlSMy7SjJuQcF13Abl9xkUzTfHXhnV9SXT7HVoprl9wjG1gsu3rsYgK+P9kmgDoaKwG8beHF1kaQdUjOoG4+zfZwjFhJxwcDgfMOTx71tXNxFaWs1zO+yGFDJIxH3VAyT+VAEtFZT+JNIj0uw1J71RZ6g8UdrLtbEjSfcGMZGfeqWpeO/DOkXdzaX2qxxXNswE0Ijd3XK7gcKCcYIJPQdzQB0VFY994q0LTtKttTudShFndY+zyJl/OyMjYFBLcegqbRdf0vxFZtd6TeJcwo5jcgFWRh1VlIBU+xFAGlRXM+OvEF94b8PJeadFbyXUt3DbILgMUHmOFyQpB4z61U0rxDr0HjJPDevRadLJPZtdw3Gnh1ChWClXRySM54OaAOxorzrRvEfjnX9Ou9U0630CS3hu54EtJBKkjiNyv+s3FQTj0xXW+GPENv4o0GDVLeOSHzCySQyfeikUlWQ+4INAGxRWVrfiPSPDsMMmq3i24mbZEoVneQ9wqqCxx7CqsXjXw5caZfalDqsMtnYKrXMqBmEYYZGcDrg9ByOhoA36Ko3OsWFpc2FvPcBJdQcpartJ8xgpYjpxwCeay9Q8deGdK1NtPvdXhiuUKrINrFYiegdwCqZ/2iKAOiopAQQCCCDyCK5/U/HHhvR7y4s77VEjurfb5kCxu7jcu4HaoJIxySOB3xQB0NFZM/ifRLfQY9cl1O3GmSAGO4DZV89AuOSfYc1DZeMNA1DSr7UrbUUe1sVLXRMbq8IAydyEBhxz057UAblFc3H4+8LzW15cx6vE9vZ+X58oR9ib22r82MHk4OM474pifEXwi7XCjXLcGBQzBgw3gnAKZH7wE8fJmgDp6K5XUvFen33gq+1nRtetrWKE7Dey27SLAwYAh4+GzzjBGeQaqX/wARtO0vxzF4buhJtNqZJLhYJWIl3KAoUKcgg53A4HQ0AdrRXO6n478MaNfyWV/q0UU8RAlGx2WInpvZQVTqPvEV0KsrqGVgysMgg5BFAC0Vz+seN/Dmg3jWepamkNwih5EWN5PLU9C+0HYPdsVPqPivQdIis5b/AFS3givEZ7aQnKyqoDEgjjoRj1zxmgDZorI0jxPouu2lxc6dfxyxWxKz71aNojjPzK4BXjnkVT03x54Y1bUY7Cy1eKS4lz5IKOqzY67GYBX/AOAk0AdHRWXb+I9IutIutVhvUNjaGVbiUqV8sx53ggjPGD2rPvvH3hjTUt2utUVPPgW5QLDI7CJhlXYKpKA+rYoA6SisW/8AFugaZZWd7earbxWt6C1vMSSkgCl+COOg/Hp1q/pmp2es6dDqFhKZbWYEo5RlzgkHhgCOQeooAt0VyVprtwvxB8Q2V5dqmmWOn21wocKqxFt+9i3XGFHU9qu6R428Oa7fix07U0luWQyJG0bp5ijqULABh7rmgDoKKQkAEk4A6k1ykfxL8IS6hDYxav5txPJ5cIjtpWWQ5wdrBdrAdyDgUAdZRXPan458M6PqLWF/q0UNym3zF2swiz03sAQmf9oiptZ8XaFoDwx6lqCxSToZI0SN5WZB/FhATt9+lAG3RXEax8S9J0jxRpmlSb3t7u3eeS4SCVtg2qU2hUO4MGPTpjmtnT9UMniPXYZdXt5be0jgf7L5Bja0DISS7nhg2CfbHNAG9RXE6V4z03WfGjRQeI7ZrN4fLsrNImX7Q/V38xlAbGMAISMZJ9tG/wDiB4W0y5uLe81eOOa2kMU0YjdmjIAJLAA4XDD5unvQB0tFMhmiuYI54JFkhkUOjochlPIIPcVla34q0Tw68KarfpBJPkxxhGd2A6naoJwO5xigDYorifB/i1L/AEvxJq2o6pA+nWeqzxwXJKrGtuoUryOo569TmtzRPFuh+IppYdLv1mmiUO8TRvG4U9G2uASvuOKANqiq9/fW2l6fcX97KIrW2jaWWQgnaqjJOBz0qtPrum20enSTXSquoyLFaHaf3rMpZR04yATzigDRormr/wCIHhXTLi4t7vV445raQxTRiN2aMgAksADhcMPm6e9dFDNFcQRzwSLJFIodHQ5DKeQQe4oAfRWJrXi/QfD1zHbanqCwzyJ5giWN5GCdNxCAlV9zgVGuq7vGAthrFt9lOmfahYmEh8b8ed5nTbjjb+NAG/RXNW3j7wzepdNa6iZltojM5jt5SCgIBZDt+cZI+7mqvgvx/p3ivw//AGjIRaTQxmW6R1cRxKGYZ8xlCkYGeOlAHX0Vg6N408O6/eG00zU0muNnmKhR0Lr/AHk3Abh7rkVVPxF8IrOkLa3AHaUwnKthHDFcOcYTkEDcRntQB1FFYWm+MvD2saq+mWGqQz3aqWCKGAcA4JRiMOAeu0moG8feF01Uaa2rwi5M32f7j+X5mcbPMxs3Z4xnNAHSUUVyviLx1oOkC+sH1eGHUooGIXaWETlSUDtjapJxgMRmgDqqK5DRfF1rZ/D/AEHWPEWoJHNeWsRZymWlkZQSFRRknrwBW/o+uaZ4gsjeaVdpcwhyjFQQUYdVZTgqfYgGgDQoqldavYWWpWOn3NwI7q+Li2jKn94UG5gDjGQOeail1/SoL68s5r2KOeytxc3IfIWKM5wzMeB0PftQBpUVhaL4y8P+IbprXS9SSa4VPM8to3jZk/vKGA3L7jIqmvxG8ItNDEutwFpX8sHY+1W3FcO2MISQcbiM9qAOporjNU+Ium6T44h8O3KyBWt2kkmWCVismV2qAqHIIbO4cDGDWjqvjrwzot+9lqGqxxTx481QjuIs9N7KCEzkfeIoA6KisXWPFuhaD9nGo6gkbXCl4kjRpWdR1YKgJ2+/StW2uIru1iubdxJDMgeNx0ZSMg0AS0VHcSGG2llABKIWAPsKxPBOu3HiXwZpmtXccUU93EXdIs7QckcZJPagDfornLTx74XvtUj0621eKS4lcxxYRwkjDqquRtY+wJro6ACuB+Ks6WmneHrybcLe2121mmdULbEG4kkDnFd9RQB5V441u08XaJp954cv5p4dJ1SC5vWgs2keJMMA4jdfn2nBxg9KveDFs9V8ZSa0niq51u6isDbE/wBnfZ41QuGALBQCwI4HXk16PRQByHxPsLzUvAGoQWVu9y6tFK9vGMtNGkis6Ad8qDx3rJ8Q63Y+OPB2t6b4YSee+bTnCsLV4wgJGYdzAYYgY2+1ei0UAeTatrOm+LtJ8OaH4ftrj+0be+tZWjNq8Z09IiC5ckALgArjPOeK3vC1nGfGnj2WS3UtLdQpvZOXTyF4z3Gc13dFAHilmZLP4WfDu/uY5lttP1OKa6fy2JhjHmruIAzgZH511sbW+qfGHTdRhj82A+HmkgmaMjG6YcjI4JB+uDXfUUAeS+L/ABBqZ1zX9Ik1B9IjEAW0t7fS/tEmpho+TvII4Py4HTHJqMy/2V4S+GOp3iSx2diYzdSCNm8kNbsoLADIGTivXqKAPMPEfii9/wCEoltE1N9FsJbOKW0ni0s3MuolgcqMggbeBtxn5qxdEsmk8J/C6G4tWYR6lIZEkj+6QsuCQemDivaaKAOKso2T4z6s6xsscmi25ZgvDMJXHX1xTfi9/wAku1n5d3EXy+v71OK7esjxPoEPijw9daPcTSQxXGzdJFjcNrhuM8fw0AcTd6pZeK/GPhKDQrW4V9KnknvC9s0Qs4/LKeU2QACSQNo9PSuP8R69qmt6Fc215fS211HqCB9At9KOIEW4GGeXGcEYbcDgk4r32igDiNMtVPxk1+6eAFl0u1SOUr0BZ9wB/AZ+lcR4217U7618XaVPfyac8Zmit9Jt9KMrXkW3ImaQg8NySRjaB617dRQBR0TI0HTgQQfssec/7orltDtwfi74suHh+YWdkiSlOxD5AP4DP0FdvRQB4xpmq6h4f+H+mrbBbK3fWruKa/ktDP8AYY/NkIYJ7/dyeBmqKWep65pHxHFpPd6pNdRWTxXD2n2drtFB3BUAHBClQQOfxr3WigDz7UNe03xl4U1PSfDcc76g2lzJH/orxi3JUDyizABWPAwPT2rl9BFrrB8NabeeK78z6fcQSx6V/YwieCSMY2swT5VHIJzgivaaKAOH8CWyp4k8bXDQBZZNY2+YVwWURJgZ7gEn8zXU65by3mgalbQLulmtZY0X1YqQP1q/RQB4k+vWt94J8FaHbwXrahY6hp8d7GbV1Fs0bBSHJGBk9PWu18MWqH4k+OZpLcbme0QSMnVfJ5APpmu4ooA8W0nWNR0L4ceEo4nGm2stxcx3GpyWZnNkod9gCdt3TJ4FdF8Lmml1fxbcTXNxdia8hdLqe1+zmYeUBuCYGBxxxyMHvXo9FAHA/GCOOTwOgmRmtxqFqZtoPCeYNx456elYWhRaIvxD0qbwELl7R45V1mT960Plhf3YLSfx7jwAemc163RQB5F4H8b6N4c0G/068a7fU11K7ZbKC0kklfMrFQMLjn612Pw60i+0jwp/xMofIvLy6mvZYM58oyOWCE+oGM+9dZRQB5/4nu4tB+Jmj6/qqyLpI06a0W4EbOtvMXVstgHbuUYz7Vyyxt4i0P4pjSbKcNdSI0MDQmN3/cqc7DzlsEjucj1r2msjS9Ag0rWNZ1KKaR5NUmSaRGxhCqBAB+A70AcDc+JbDxJ4p8CDS47uVLe6czytbOiRMbdxsYsB83Xgen0rno4pNNTxHoOueJ7vSftt9cu9r/ZAnF3HKTh0faS2VIHqCMV7tRQBR0W1Sx0LT7SOSWVILaONXlXDsAoALDsfWvPIvEWk+HPiv4wuNVWSNZIbJUult2kVcREmMlQSC3BA77favUayLDQIdP8AEWsayk0jy6oIBJG2NqeUpUY7855zQB5CdH1ey8KeG9VK3emWUGs3V6wS0E0lnFLu8pzEQeBnnj5d+e1ahitdQ0TxnrNv4jutcu5NEe3kcaf9njwFcrjCgMw59SAfpXsNFAHmfi6zSP4FW9pDbYQW1kvkpH23x5GPzzWjrtlEfix4NYWqGOG0vQpEfCYVNv0xziu7ooA8Z8RwSDQvioiQvh7y3ZFVD8xKRZI9a6PW76HQ/iroup6h5sNjNpEtokwiZ1MxlRgnyg4JAr0OigDxbxrr+qXf/CW6RNqEmmFUkitdMt9KMz36GP8A1hkIPB5BIxtAr1TwuCPCWjAggixgyD1/1a1q0UAeUeLvEGpDxDrmkyag+jwiBVtIYNL+0y6nuj+Y7iCOD8uB07msyO6g0rT/AIUXWoWs0kNvbSmRFhMjR4gX59uM/KeTgZGM17VWTqOgQ6jr+j6u80iS6WZjGi42v5ibDnvwPSgDzHVbW78ZSeOtT8OQzPaXelQ2cMvllBeSoSzbM4J+U7M+9XtX1nTfF9j4b0bw7bzm/tr+2ndPszx/2fHEcuXJAC4A2gd816tRQB454nsrq28YX/g23jkFl4tuYbsOnSJV/wCPv8SqKf8AgVanijXr+z8VXukf2g2hWa2sX2Q2+l/apNQJBBVTgj5fu7evOeldu3h6GTxcniGWeWSaK0NrBCcbIgzbmYd9xwB9BWxQB4zotiZPD3wpgubVmEV1IXSSMnaVjkIJB6YIFezUUUAeb3s97Y+OPG97Zaeb2ePRrZoYGQlZmHm/L7/QVzuland63498G3T63NqyxvOZgumG2itHaA/JuxknjGCT0r2qigDN8QkDw1qpKFx9jl+UOEJ+Q8bjwPr2ryLwXqsN8/gyDV9XtLa30xFFgi2FxC9xK0WxVaR1CcAn7pO417JqmnW2saVd6beKWtruFoZQpwSrDBwfxrl7fwAxexj1PxFqepWFhKkttZzCJVDJ9wsyqGfHHU9qAOACTaTeeKNI1rxNdaOL/ULiXyP7JE63cUnRkfaS3y/LjtitfW/7O8Mx6XPYa3qNhrVno8VtbST2Dyx6hEMlYmXb9/d2BDDdXrdFAHmeravNZ+JfA3iLXrWSwiNjcJd7Y2dYJpEjIQ4BIyQQPpVDXtM1DV734oWmmxSNcXNjYiEBSPMxGxKj1JGR+Net0UAeU6vrOm+MLLw3o3h23nN9bahbTun2Z4/7PjjOXLkgBcD5QO+eK1fDNmjap8QnktgWmv2QsycunkLxnuOT+Zr0GigDlPhmJF+Gnh5ZQwdbNAQwwRisbU9Rt/DPxXm1bWlljsbzSo7e0uhC0io6yMWj+UHBOQR64r0SigDwyXTr/UfAXiCWxsbu2RPFX25rf7LmUW4KNkRH7xAIbb7Yrp/CzWet+NLTVP8AhLbrWru0tZY1T+zPs6Ij7ch2CgZyBhTz1969MooAwvGllcal4H12ytIzLcT2E0cSDqzFCAK89n8R2WujwBZWEV5JLZ6jbm7LWzqtuywupRyQAGznj2PtXr9FAHn3hmzRtR+ITyWwLTX7IWZOXTyF4z3HJ/M1rfDQSL8NPDyyhg62SAhhgjFdXRQB5h451C20XxHcappup3mn+Ils1RLdrJp4NRUEskYwPvZJGVIIzzU7NJc/ENrnVNPmUS+EM3VtEhYgmXLxjHVuox1r0iigDzLwLq0seuQ6Do2pXGseHorNiJLm0aKTTyuAkTOQA+RkYI3DbWFZrPq3wKvvC9glwdbsYyLqz8lg4xOWK8jBJUHAB5r2qigDyjQXs9f8VaHM/i+81K509nkhtP7IFv5WYyrLIwUbRjjBPJAqh9iA+Bfi1Ra4llu712Hl/M5884PvwB+VezUUAcBrVsIfF3w78iDYkT3Cfu0wEX7P046DgVwXibXdV1rQr60u76W2ukv1DaBb6UcRIs4w7y4zggBtwIBJxXvlFABXkVpqVroVn410DVrO6l1a/v7qeCFLVpDexyr+7KnGCAODk/LivXaKAPD5ba/sNL+HusNfXOm2VrpJglvI7IXH2aRkTBZCDtDAEbscY967j4fW1o1zrerW2uXGryX0sRmuHsvs6FkTA2DADcYyR6V3FFAHH/Eixnk8NR6tZRs99otzHqMKqOWCH51/FC3FcTfaRqXiP4aeJdet7ec3muXyXaweXmU2kUihE2nqdiltvfOO9ezUUAeWeHXs9f8AGOj3reL7zVbrT0mMVv8A2SLcRh02ssjBRt7cE9RWbb2QH7POur9lxLI127Dy8MzCdsE9yeBz7CvZaKAPOdW1CLRfiF4b1TUjLFZyaRLaifymceczRkKdoOCQD1rB8Z6/qdxceKtIlv5NL2xvHa6db6V576ghi/1hkIIwenGNoHNeyUUAeQ6jdWOlaZ4e1KPVbzR9eh0KGOB/sTTw3aFQfJIwctuHYhhmu70rxQ8o0Gx1WxntdX1OzNw0KxExxFVBZWb+E89D9K6OigCC8BNjcADJMbYA+leZ/DHxlolt4I0TQTdH+2EhMYtGhkUl8sQuSuBn616nRQB4Lca3qevr4d+1alK1zHrNrJcaNBpRijsMSYw0hGeM46859K96oooAKKZNJ5MEku0tsUtgdTgV4bp/iHxRqugweIbGPxZca3PIJo4o4V/s5k3/AOrC5+7t43fezzmgD3WivOXtdT8R/EbxHpjeINTsNPtbW0kSCzl2ESOr8hsZAG3JA6nGelc1Ff8AiI/DC38bTeJdQk1G1nVVgUqlvJGs/lFXQD5iwySx5yeMUAe10V55c2+pa78T9W0k69qNlpkOnW8xgtJdjM7M4yG6r05x149K56417xC3hFbGLWp1vrPxYujpqOAWliDYBcdGOGwR320AeyUV5b4quNQ8OXegeGbbUfEV5DfvcXF1cW7CW9dUC/IjHG0ZbJI5A6UmnzeNJ9B8TWWmRaynlrC+lT6uqrcnP+tTccgkAHazdCwzQB6nRXmum63pdp4W13zPEHiHT7i2Ef2pdV/e3NmW4XYCDu39BjcM9Kg8J6tew/EOHS45PEn9n3WnyTtHrwy/mI6gNGTyBhuR09qAPUaK4v4jXWpQW/h2DS9Rl0+a81qG2eaMAnYySZBB4PQHB4yBWYl7f+EPFur6cNTvtTsl0F9VjS+l8x0ljcqQGxnawxx27UAej0V4po+seJrm00XWLRPFt1qd1LDLdLcQr/Z8kTkbwi5+VQpyrDnjnrXT2FvqXjLW/Ec7+INS01NNv2sbOCylCKmxVJd1IO8sW6NxigD0SivJNX1vUtT8ba1pkz+KPsmlLDDCNBjVcyNGHaSQ5yeowvTAqe4n8Z3vhLw9c6jb6yiRvMurR6dtivXUEiJwM9wMsqnPPFAHo17qsNjf2FnJFcPJeuyRtFEWVSBk7yOFH1qa2v7S8luIra5ilktpPKnVGBMb4B2n0OCD+NcB/bay3fgEaPrN9d6fd3VxHLJO58yYLE52ycDJVhjkdRVbwLo0On+I/GF62r6mFstRdSZ7tmjYeShLyA8MRnqfQelAHqFZniHXLbw1oF3rF4kr29qoZ1iALEEgcZI9a8st/EFxba94bu9L1PxVeW+oailtPc6nHts7qNw3Ma4G05GVwBwD1rs/ix/yS/Xv+uK/+hrQBuxeILWXxM2grHN9qWyW9LkDZsLlQM5znI9K1q83vr9tL+I+ragieY1r4TEyp/eKyMcfpXPaPq3iaa30TVrRPFt3qVzLDJdrcwr9gkhcjeEXPygA5Vhzxz1oA9pory2+8Tan4ah8baXNdTXN9FIk2kGRtzstydkaL6hJMj6VLrbC1msdEn1zxXe6ha6fH5sGijLhuhmlfuWPQE446UAem0V47DrviHXPB3gJk1m4s73UdQktrm5jUBnRRKpyvTdhfoG57V6rpWn/ANlabFZ/bLu88vP7+7l8yVsknlsc9cUAXaK8si1rVD8F/EepHULk30Et8IrjzDvQLKwXB7YAwKt3v9qax8QdL0dNcv7Kxl0EXNwttJtaRhIBw38J5GWHOBjvQB6RRXHfD+9vpItd0y+vJb06VqklpDcTnMjxbVZd57kbsZ71TuBe+KviBrGjvrGoadYaRb25SOwm8p5ZJQWLs2MkAAADp1oA72ivPbhNU1XxrB4Tm16/htbDSkuri4tWEM93IzlASwHygBcnbjJNYGra5rml+GfGmkx6vdSz6LeWaWeouf3uyVo22sRjcVyQT3BoA9hqva39pfef9kuYpvs8rQS+WwOyRcZU+hGRxXCPb6l4c8daBYtr+pX8GtRXMV0tzICFkRA4eMADy+4wOOlZfgfRv7OtPGl9FqmqPJa6lfQosl2zI2EUiRh3f/a60Aer0V5HZ3+taF8JB4wm16+v9UurCFUW5cGCEuyKr7MfeUHJYk5Oc1q6paan4KvvD17D4h1TUftuoxWF5b3swkSYSA/Oi4+QgjOF4xQB2Wj69a61capBbxyq2m3bWkpkAAZwqtlcHphh6Vq1xPgD/kLeNP8AsPSf+io6rzi/8U/ELWdJOs6hptlo9tbtGljKI2lllDNvY4O4AKBt6etAHVaDr1r4hs7i5tI5USC6ltWEoAJaNipIwTxkcVqV4fZ61qegfD5LS1uLqS7v/E9xZS3VrCpmIMjl2jU/LvO047DPtXWeDLnWo/Fc1oLfxGdCktPMMmuqC8U4YDCPkkqyk8HoRxQB6JRXD+OJdSk8T+E9M0/VrnTkvp7hJ3gxlkWLdjB4zxwexOaw7y+1Pw5deMtCj1e+u7e30I6jaT3M2+a3ch1K7+p5UEZ6UAeqUV5Xcz634f8Ah7a6wviC+utW1kWcBluSGhtTKQN6R4wMBu/UgE1fvbXUPCHibw9FBr2q6ha6tcPZXUF7P5pyYywlQ4yhBHIHGDQB6LRXkaa9rT+Eo/Ch1G4/4SL+2v7Ha8D/AL7ygfMM2ev+p71Hf61qes+JvEEDN4tSHTrj7JZjRIx5aMqAl5CT87EnODxjHrQB7BRXkeq+JvEk1v4S0nU7fWLW6vbSW41JNKiH2pjHhQq8/ICTuOOegGKa/iHxPo3hDxCcarBEtzbQaVd6xEvnoJmCPu67thJwT6jNAHpWoa9a6brWk6VMkrT6m0qwsgBVSibju544+taleX3ugz6H8R/BStreo6jFI918t9IJGVxCcsrYyAf7vQdsUzTotX8WeGtV8UP4m1OwukmufscFtKEgt1iZlUOmMPnbk7vXtQB6nRXk8ep614v1bwdENXvNKh1PRZLq9WzbaXIKfdJztJJ4PUAkd6brGqX83jK+8PvL4qlsNHtLdEbRsGWWR1JMkz8E8DgdCQ2aAPWqK8skm8a3vg3SJLuHWFWG7lTUVtAsN/NbjIicDsfulgpye1dt4QvbG+8N28un6heX8ALJ5t6SZgwY5V8gHcp45GeO9AG7VbULyPTtNur6YM0VtC8zhRyQoJOPfisTx9rd14d8D6pqlltF1DGFiZhkIzMFDH6bs/hWVd+G7rR/DOr3D+ItU1BX0qdZ4ryUSI77Cd68fJ34HHPtQBv2Piezv/7G8qC7/wCJtbfaYGMJKou0Nh2HCnB9ea2q8x0G/u4L34a2cVzKlrPosrTQq3yyFYY9pI74ycfWuZtvEXiXWtEk1+yTxbJrMkzvaRW8KnTwqyECMrn5hgYLHnOfSgD3Sq97f2mm232i9uYreHcqeZKwUbmIAGT3JIFcDNDqniD4k3+lya3qWnWEelW0721pLsbzGZxw3VffHXA9K5bXHvNc+FTnUtSvZbjTNc+weckuwzqtyqBnA4LAYwexGaAPb6K8w8W3t7o2q6D4WtLnxDPaTRT3NzNZP517KFI2qHY5Ay3JHOMCo7KXxrceGPEVnp8esKYZYTpk2phEu3iODKgY5BYYYKzeozQB6nRXIeA72xuLe+tre+1uW6t5FFzaay5ae2Yjgc/wnqDkj0rrJSRE5BwQpoAfRXilpLr6fCCHxu/irU31K2i8+OJ5B5DIshXy3THzkjPzE5yRjGK6OWPVPEnxIvdP/t7UtO02PS7W6MFpJsYyMz9GIO0eoHXAz0oA9IorzrT7bUPG2reIppvEGqadDp1++n2kFhMIgmxVzI/Hzkls4PGKybDxLrfifS/BmkzajNZy6pNeJe3tphJJVtsj5Dj5d+ASR05xQB6Pb69a3PiW90JElF1aQR3EjkDYVcsAAc5z8p7VqV5Pa2l3oXizxyg1W7u5IdCikguJ2BljAEpUFh94g9CeelaF9q+op4A8CXSX9wtxd3umpcShzumVwN4Y9we9AHpFVxf2h1FtPFzEbxYhMYNw3iMnAbHpkYzXCWcGo+MvEPiR31/UtNi0u8+xWcNjKEClUVjI4wd+S3Q8YFUU8PCX43T+ZquqeYujw3LNHdMgZhMQUwP+WZxnZ05NAHqNFeaaXb6p40g1zWJfEep6c1vfXFrZQWcojjgWI7QXXHzkkZO7twMVnvrPiHX/AAt4Y126GrjSpbR21EaIwS480EBZMD5imAxwvr3FAHrdFZehXFpqHhuymsdQmvrWWAeXdu37yQYxuJwPm9eBzXm669rTeFV8JHUbj/hIv7a/shrsP++8kHzfPz1/1Pf1oA9cornfG9vqUngvUDo11PBqNvF58DxsQzNGQ20+oYAgj3rm/wDhLJ9e1/TbzTZ5V06w0VtXu4onIEryKRFE30w7Y9QKAPRqK8Q0rW/FF5pWma5Zx+LbvWLiSKaWN4VGnSRMw3Iq5+VQp4brke9dRFY6p4l8e+LrCTxHqllYWTWwghs5dhV3gBzuxnGcnaOCTzQB391fWlj5P2u4ih8+VYIvMYDfI3RR6k+lWK8Uv2uvFfgbwHqepajfLeS6xDaytbTmIMRI6eZgdH+TIbtk11Hid7WyvLDRP7Z8U3E8VoXFnpLF7hl3Y86WTrjsMkZPrQB6HRXk1jqXirXPhnYz20upTyw6lJDfGApFeyWyO64UngScLnGDwcGu28FXthe6ATYahqN4kUzxyf2kSbiFx1jfIByPfPXqaAN27uobGznu7mQR28EbSyuRwqqMk/kKhi1Wxm0ZdXjuFawe3+0rNg4Me3dux16c1S8XKW8F66qgljp9wAB3/dtXP6TIi/Au1dnUIvh0ZYngYt+aAOysb231Kwt760lEttcRrLFIAQGVhkHn2NT15NAdTms/hnpFnq11psV7pri5MGNzKsCNjngH0PbOa6TwdNe2XinxL4duNRur+2sDbzW0t2++VVlQkqW6sAV4z60AdrRXBeJv7Tv/AIkaLo1trN5p9lcafcSXC2zANJtZMYJ+6efvDkDOOtc1q+s6zonh34gaTFrF5O+im1ksr2WTMyLNtYozjrjkZPODQB7FRXm+uR6v4d03StPg8RahNfa/qUNtPfXDK32cFWZzCuMJnGAOcUtxaajoXjCx8O2+vapc2WuWN0pa6n8yW1ljUESo/UfexjpmgD0eivKdP8S6trmj+EtCF3NDrEl88Oqyxvh1S0P73JHTedg999ZMuv69rr65f258Wre295PBpyaZCptI/LO1RICfnJI+bPrxigD2yivJdb8R6zqHiPTtHvYNft400eK9u7fQ0AmM7kghmzlUXB6Hk9aP7b8UJ4XsNLupdRsJ9Q18abb313Eq3X2QjeHI5HmYBXPtnrQB6NJr1rH4og8PlJftU1o92rgDYEVgpBOc5yw7VqV5dHYS+G/ivGzalfalDH4euZolvHEkiYlQld+MsCR36VSJ1xvhl/wnp8UagNW+zfbxAJB9k25z5PlYxjHy5655zQB69RXmj/2r4o+Ictj/AG5qWmad/Y1tePb2kmx/MZn6MQdvvjrgDpXpSjCgZJwMZPegBa5KH4fadaTt9h1TWbKyaUymwtr0pAGJycDGVBPYECutpCQASTgDqTQBm2mhWln4g1HWojL9q1COKOYM2VAjBC4GOPvHNZg8C6SPBZ8KB7r+zi27d5g8zPm+b1x/e9uldMCCMg5BooA8+vPBs2r/ABL1TUpZNRsIf7Pt4ra+sp/LbcGfevcEY25yPTFbi+BdFTRdP0qJJ47exvUvkIly8kytu3OxyWyTzXS0UAY+v+GrDxHHbfamuILi1k8y2urWUxzQsRglWHqOCDkGqkfg63Gl3NlPq+tXLXDI5uZb1vNjKnKlCuAv4DnvmujooA5RPh7ozabqdpeS31/JqWz7Td3VwWmbYcx4YAbdp5GAOal0rwRY6XrcWstqGqX2oRwPbia9ufMJRiDjGABjb2x1Oc101FAGZrGhWmtvpzXZlB0+8S9h8tsZkQEDPHI+Y8Uknh+xl8R/25IJGujZGxKEgxmIvvORjrkflWpRQBydh4BsdMmhFnq2tw2MMgki09b4+QmDnaBjdtz/AA7sU/UPAemX+q3V/He6pYtegC8isbsxR3OBgFwO+OMqQa6migDmdR8Eafe6n/aVre6lpd40Swyy6fc+WZkX7ocEEHHY4z70+78HW9zaWcMer61bS2iMi3MF83myKxyQ5bIbn1HHbFdHRQBzlt4J0ezXRFt0mjXR5ZJrceZne8ikOzk5LE7ifqacng3To9evtVjnvFF+D9rsxN/o8xKbCzJjrt966GigDjLT4aaRay6cx1DV549MnSaxgnvC8dvt6Kq46Y45yccAiuh1/RLXxHod1pF8ZRbXShZDE21sAg8Hn0rSooAyf+EcsP8AhIJNZYSPcSWIsHRmBjMQYt0x1yaytP8AAVlpc8P2PVtbisoHDxaeL4+QmDkKBjdt/wBndiunininUtDKkihipKMCARwRx3FSUAc/q3g3SNa8SaXr14kpvNN/1W18I3ORuGOcHke9R6t4LsNV1htVF7qVjdSRCCc2NyYhPGCSFfjtk8jB5610lFAHNWfgXR7Gx0WztzcLDo1y9zagyZ+Zt2QxxyPnP6V0tFRtPCsyQtKglcEohYbmA6kDvigDjr/4X6FqC6hDJc6pHY38jTS2MV2VgErdZAuOuecHIz2rei8OWMXiCDWlab7VBY/YEBf5fL3BuRjrkda1gwYZUgj1BpaAMzStCtNHuNSntTKX1G6N3NvbIDlVXjjgYUVn6x4MsdX1ZdVS81HTr/yvIkn0+48ppY85CtwQcdj1HrXR0UAcxfeBNLuxp7wXOoWF3YQ/Z4by0uSsxj7qzNneCefmzzzQ3gLRW8NXWhn7UYbuZbi5uGm3TzSBlbcznOTlQPpwMV09ICGAIIIPQigDNvtCtNQ1rStWnMv2jTDKYArYU+Yu1tw78dKz4PBlhbapqd5BdX8Uepb2uLRZ/wBwXcBWkC44YgeuPat+KeGcMYZUkCMUbYwO1h1Bx3HpUlAGPD4Z0yLwnH4akhNxpiWwtSkxyWQDHJGOfcYrO0zwHp2n6ha3k19qmotZA/Y0v7oypb5GMqMDnHGTk11NFAGZpOhWmjXGpTWplLajdG7m3tkByoU444GFFZ+seDLDV9XGqi71GwvTF5EsthcmIzR5yFfjkDnkYI9a6OozPEs6wGVBM6lljLDcQOpA9KAObj+H+gReGpNASGYWLXJuo8TEPDIW3Bkccgg9D1+tXdF8NjRriSdtY1fUJGTyx9uuvMVRnPCgAZ464z71ryTwwtGssqI0jbUDMAWPXA9TTJ7y1tWjW4uYYWlbbGJJApc+gz1NAHH+N/Dc3iLxJ4VXybhrK3nuHuJ4JPLaA+V8jBgcg7gMYrQtfAmlW2m6vayT311Nq8RhvL25m3zum0qAGxgAAnAAxXT0UAZF14a0y+8ML4eu4TPp6wJBtdvmwgAU5HRhgHI7iqOleCbDTdUh1Ke+1PU7u3Ro7aTUbnzfIVuDsGAASOCTk+9dLRQBz6+DdIXxq3iwJL/aTQ+SRv8A3fTG7bj7235c56VDqPgmyvdWn1O11DVNLurkKLltPufLE+0YBYEEZA4yMGumooA57UvBunanY6fBJPfx3Gnf8et9FcsLmMkYJ3nJOR1zkGkXwbYSaHfaTqN1qGqW98MTNfXJkbjptxgLjrwBzzXRUUAcpYeANNstWsNUlvtUvr6x3CCa8ujIVQqV2YxjHOemSepNRXfw40e6uLwpd6pbWd9IZbvT7a7KW87H7xK4yN3faRmushnhuFZoZY5FVijFGBww6g47ipKAMgeG9PXW7DVY0eKWwtXtII4yBGsbbeMY7bRiquseDrLVtUGqRXuoabqHliF7jT5/LaVAchXBBDY7cZFdAGDAFSCD0IpaAOcufB0Fxp9nbLrGtQS2hcpdxXrec285YMTkMPqOO2KzLnwY0L+HtK0rzoNKs75tRvLlrgmWaRckKxzli7MSxPGF+ldtRQBV1HTrTVtNuNPvoVmtbiMxyxt0ZTWBY+BLCzgnhk1PV7yOS1e0Rbu8MghicYIQYxnAHJyeOtdTRQBg23hHTbS50K4ja436Lata2uXGCjKqndxycKPSqH/Cv9PiuZnsdU1nT7WaUyyWVnemOEsTliBjK5PUKRXUzTw26b5pUiTIXc7ADJOAOfepKAMyDQrS38RXWuIZftdzbx2zgt8mxCSMDHX5j3rNfwLo0nh7UNEk+0Na31095I3m4dJWfflWA4wwBFdLRQBzV54Jsb+wsYbm/wBTe8sGZ7fUhc4ukLfe+cDBBHGCMcDinL4Ot/7KmsZdX1qd5ZVl+1yXrecjL0KkYCj2Awe4NdHRQBwureCJYPDeo6fo093PqOsyxR3upXlxulWIHBbPGdq5CqAOT9a7RYRDZLAhZgkexSxyTgY5PrU1RzTw28fmTypEmQNzsFGScDk+9AHmXgv4Z258H6VFrn9pQsp8660pro/Z3lDkhnTn/ZOAcHHIrvoNCtLfxHda4hl+13NvHbuC3yBUJIwMdfmPetLcNxXIyOopaAOW1LwHp1/qd1fwX+q6dJegC8SwujElxgYywweccZGDU1/4I0W90fT9NijmsY9NYPZS2chjktyBjKtz1BOc5z3ro6KAOc0jwTpOj3l9dxtdXNxfwLDdyXcxlM4GeWz3w2OOMAAAVmW/wv0SA2AN5q00WnXCT2MM14WjtirZCquOnbnJxwCK7aigDl9S8CabqGq3Wox3up2Et4qreJY3RiS5AGBvA744yMHFT3ng/T7rW7LVorm+s7u1hW33Ws+wSxK24RvkHcufofeuhooA5K++HmlXl9e3EV9qtjFfsXvbWzuzHDcMRgllxwSOpUjNWtQ8GWN2lqlpe6lpSW0AtkTTbkxKYh0UjBHHrjPvXR0UAU9J0uz0TSrbTNPhENpbII4kBzgfU9T71yVn4Zef4wal4klsXggt7GK3glYjFxKwO6QD/ZXCZPvXaxzwyvIkcqO8Z2uqsCVPXB9KeWAIBIBPQZ60ALXPeGPBej+Eor6PTI5Nt7MZZRK27Hog44UZOB7mt2aeG3VWmlSNWYKC7AAk8Ac9zUlAHJWfw/sNOmjFjqutW1jHJ5iafFekW685wBjcFz/DuxW1YaFaadrWq6rAZTcam0TThmyoMabF2jHHHWtOigDlz4C0j/hE7Xw6sl4ltaT/AGi3nSbE0Uu9nDBsdQWPbpSXngWyu7m1uxqmr299Bb/ZXvILvbLcRZztkOOeSTkAEZ4xXUBgwypBHTg0tAHKw+AdMtNFg0ywvNTskt7iS4hmt7orKjOSWGcEMOejA/nT4/AmlQ6XBYxz36+XfrqMk4uT5txMDnMjfxA9x7DpXT0UAIyq6lWUMrDBBHBFcUPhboSqbVbvV10ln3nSRfN9lPOcbOu3P8OcV21FAGVc+H7G61jSdTYOk2lrKtukZATEihSCMeg4p1poVpZa9qWsxGU3WorEswZsqBGCFwO3U5rTooA4TxP4Vm1/4h6NdOt3DaW1hcAXtrL5bwSlk24Prjd1BHXNaP8Awr/Rj4a1HQ3e8kj1J/MvLqSbdcTPkHcXI9gOmMV1VFAGXrnh7T/EWlf2dqCOYlZZI3jcpJE6/ddWHIYetU9F8IWWj6i+pPd3+o6g0XkrdahP5rpHnO1eAFBPJwMnvXQUUAc/p3g3SNL8V6j4jtklF9frtlDPlF6ZKjHBYqCfpVW58BWEmo3d5Zanq+mfbJPNuYbC7MccrnqxGDhj3K4zXVUUAc7q3g3T9Vns7sXWoWV/aQ+RFe2dwUmMf91ichhnn5geeaS48F6de+Hjo99c6hdp5wuFuZ7pmnSUHIdX/hIxxjj2ro6jininD+VKkmxijbGB2sOoPoR6UAc9pXgfTdK1tdZ+0395qX2d7Z7i8uPMaRGKnB4wMbeAAByfWqK/DLQ1/wBH+0akdK83zhpJuj9kDbt2NmM7c87c49q7OigDMi0Kzh8SXGuoZftc9slq43DYERiwwMdcse9adFFAEdwZhbSm2VGnCHyxISFLY4yRyBmvLPDmseILzwL4pufENtZ32nwf2gChupC7shbMX3RiPGQCDnGOK9Xrz2x8LeILPQvFHh8pYPZX4vJbO6EzBy82Squm3Cgbjkgn6UASt4vexsfDuj6Jp1p9tvNNS6WO5ujFBawBVHLYLNydoAGTjJqK4+JU1t4V1HUZNKRtS0y+isrm0hnDoxdlAaN8cgh8jIHPBqvq3w/u5j4f1BNO0jVbnT9MSwubHURmKQAKdyNtO1gQeSOQalvfBmoXvgmfTbfR9D0i5lvoLgQWBIj2JIjHc20ZbCnt6UAa2n+KtXTxTbaLr2kQWJv4JJ7N4LnzfuY3JJ8owwBByMisV/idef2dL4hi0uzfw3FKVLm9Au3jD7DKsWMYzk7SckCul1fQbu+8ceH9XjMX2SwhuknDMQxMiqFwMc9DmuK074b3eiRf2ZF4V8KapbxyMYdRvFIm8ssSBIuw7mAOMhh0FAHoHibXDoPhLUdbhiW4NrbNOiFsB8DI5qrqfiaWwufDMS2yP/bFwIXJcjyh5bPkevTFXfEmijX/AAtqWjLIIPtds8KuBwhIwDj0rkE0DxlqWp+F5tVj0iC20a4DSLbyu7zfumTeCVAUcj5eep54oAkk8c+IriXxAdL8O209vol1LFNLLdlPOVFDbUAU/Pg55wORya7TR9Ug1vRbHVLYMIbyBJ0DdQGAOD781z2jeG7+wtPF0cxh3atfz3FttYnCPGqjdxwcg+tanhHS7jQ/B+kaXdlDcWlpHDIYzldyqAcH0oA8N0nULefwpaHTdR1o+Ori9kS1bz5xFIwmbhi58oqEHIHP416o9xcj40Wds88nlHw+7tErnYX88Ddt6Z96z7b4f6h/wqX/AIRueWBNXgmlurSZGJWObzmkjIOMjqAeO5rT1jQfEL6xpPijSvsH9sW9mbW8s7h2EUyMQxCuBkEMODjmgCPU0a++K8WmTTTizuPD8wkjjmZBkzKMjB4bHcc1zlr4K0uX4oahojXGrGwh0uG5SP8AtOfIkaRgTnfnoBxXW6DoWtS+KZ/E/iJrOK7NoLO2tLNmdIY925izsBuYnHYAAVZttBvIfiTf6+xi+xT6bFaoAx371dmORjpg+tAHRxRrDCkSZ2ooUZOTge561yes+KtXt/GSeGtH0iG8nksPtgmmuDGkXzlTvwCccDGATk/jVzRdbvtW8Va9bqkJ0ewaO3hmVSGefGZVznBC5UdOuaQaHef8LKOv5i+xHSPsWN3z+Z52/pjpjvmgDKj+Inl+FrnULvS3XVLbUP7KawilB8y63AKquQPlOQckdM1Zs/FOs2fiOw0fxLpVraHUlf7HcWdyZULoNxjfcqkHHIPQ4rKuPAWp3Ona0q3FtDfP4g/tnTnJLICu3aJBjPOGBxnrWhb6L4h1zxPpWreIobCyg0nzHgtrSZpjLK67dzMVXCgZwME5PWgDIb4ka6NDvtfXw3CdJ026lhunN3iSRUkKlol24OBgncRzkDpWzZeMNXHiPSrDWNEisrXWEkNk6XPmSIyLv2yrgAErzwT6VQ/4QrVf+FX674d3W/26+mupIjvOzEkpZcnHHB9K2dV8P3t7r/hK9iMXk6VJK1xuYgkNCUG3jnk+1AHE+Ftf8QaN4b1y70/QYbrT7HVL6a4kluvLeVRKxbylCnJUf3iMngV02oeOtQl1jSdP8O6RHqDarpv2+CSafyljXK8vwcDB7ZOcD3rJtvDHjjT9D1fRLQ6O1tqt1dOtw8rh7RJXbJ2hcSHacjkYPHNb2neEJtK8WaLdWzI2m6dojadlm/eFtyEHHphT3oAgvvGerNrE2j6Vp2nPeWMEUl+95feVGkjrkRRkKSxx3wAOK6Dwv4gh8UeH7bVoIXh80sjwuQTG6sVZcjg4IPPeuQ13wJOfF1/rlroOha5FqCR+bBqfyvA6Lt3I+xhtIxkY6itB7zUfDsPhjQdO07Sre+vbsm5tbSM+RDbLlpXXpgjKjJHLN05oA3PFfiJfDOi/bBatd3Es0dtbWysFMsrttVcnoPU+grjUutbuPi54cj1zTba0mj0+7KSWtwZY5AdnAyAQRjnI7jFdV418P3PiLRIYrCaKHULO7ivbVpgSnmRtkBsc4IyOPWsm00XxRqHjnSvEOsRabbQWltPB9mtpWkZS+35ixUbskdMDAHfNAGRpnjBNC8B6Ze6R4eXF5rMlitjFOSSzSyDcGbuWXPPAyfStq/8AF+taYmm6bc6XYDxBqDSskP2wi3iiTGXeQrnuBgDJNZ1l4G1e38NeH9PdrbzrDXzqM2JDjyvMkbg45bDjitHxx4Nk17VNL1i1stN1CewWSN7HUlzFPG+O+DtYEZBwepoAij+I62uja1Nqlgi6lpEkUUlvZziVJ2lx5XlvgcMTjkZGDVxvFGt6Jpeo6l4p0a2tbS1tTcLLZXXnZOQPKIKqd3IwRkVlv4GudR8Jajp66Tonh+7lmintv7OG5Q8bBlMh2ru5GOBwCau32j+J/Fvh/VNI1+LTNPgubXyozaSvMxmyCHJIUBQR93k+9AE9rq3iS5srhtc8PWsFjNZySr5N4XZPlz5cgKjkg9VyBg1k6b4p8jwj4V0zQNGT7dq9nvtrT7SUitolUFmaQgtgZGOCSa2LCLxld2ktnrEGkQxC0eEvbzPI08hXAblQEXqSOTWNbeDNd0nS/Cd7pzWUmsaJZG0ntppGEU6MAGAcAkEFQQcUAJpPiM+FtD13RpdEgsdQ0Oxa+WKO5MsV0hDHzPMIDElgQxIzmrlp441kXOhXGq6BFZ6VrUiQW7rc75opHXcm9duAGwehJHeoLjwfrmsW3ifU9T+xRavqumHTrW2hkZo4I8MQGcgFiWbJOOK0tV8M395o/hK1iMPmaVe2s9zuc42xoQ23jk5PHSgDsK86n1TxaPjDJp1sti1gNMWUQSXLhfL87BkwF/1vUY6YA5rovDWt32t6trzPHD/ZNrdi2sZUUhpSq4lJ5wQH4BHoaqapo2txfEC18RaVHZ3EMlgNPuYriVo2jXzd+9cKd3UjHH1oAzb74gai1xq02j6XY3GnaTK8M7XN8Ipp3QZkESbSOOmWIyaadTtdV+JXhXVbdj9ludDuZ0ZhghWMRGfwNZ8vw9udP1fU3tvDPhrW7a+unuo59RGya3L8sh+Rtyg5IwQea6Q+F7lvFeiX/lWkVjZ6VNZzQwZVVZ9mAi4+78p/SgDlLjxrHdz2nje40a1k0W0Zo7eR7/NzHGz7GnEGNoJ+u7b9akmttS1T42zreaZo93bW2nwtH9okZjFCZmPmICpAlJHPToOaZpXw5u9Fii0seFfCmpwwviPU7pcTGPdkb08s5cDjIbHSuzh0G6T4iX2uP5X2GfTIrRQG+besjMeMdMMO9AGE3j3XbnR7rxJpnh2C48PWzSHe92VuZ4oyQ8iJtK44JAJycVbvfG+oT+IdP0nw9pUN/wD2hpa6jDcTTmJI1LYy/BOMEdMnJ/Gsu38K+MNM8M3Pg2wOlNpMglhh1GSVxLDBIWJBi24ZwGIB3AdK3NO8JTaX400++tjH/ZlloQ0xMt+83LICOMYxtHXPWgCrF8RPK8LX2oX+mOmp2N//AGY9hDIG825JAUIxA+VtwOSOBmrFp4p1uy8QafpXiXSbW0Gp71tLizuTKokVdxjfKjBxnBHBxWXdeAdSvNP8QoLm3gu7jXF1bTpDllVkCbQ49ypBx61fh0XxHr3iPSdS8RQafZW+ks8sNvZzNMZ5mXbuZmVdqgE4HJz3oA19X8RSaR4n0PTprZTZao0kIud3McyruVSPRgG/EUaH4hk1rXNdtY7ZVsdMnS1S4DZMsu3dIMdgpIH51m/FGKMeAr6/MywXGmsl9ayt/DNGwKD8T8v/AAKr/gbSJdG8I2UN1/x/Thrq8bHLTSku+foWx+FAGTJ4u8Q3viTXNG0TQrW4bS3jDXFzdmNGDRhwvCk7jk+2OpqeDxXqHiHwhZ6noeloZLvfHOLq78hbQqSrbmAJJDAgbR78VzunSeJIfiH44fQINOuQbi2SSK8laPa3kDDhlByPVcfQ0+6+HGo23h7w9Zw/Y9XGnzTXF9Y3jtFBeSS5O7gH7rE4BBHNAE2heL7Pw54G1Zf7Gjt5dCnW1a2tLjzUnkcrsYSEZO4uCSwznOa0LDxL4ll8XHw9rWkaXBG2nveu9vdvITHnZtGUHO4gHOOORmuO1zw3d+F/AniVL2HTLSPV9RtfJgs8rbRglFKOSBsTIILD6jGcVq+E5Y9H8XJpDWumXV5qlpIfttjqct48SRjIV/NyVQ5wMHGaALGkeMG0nwX4MXRPDqMurs8MVjHckCLCsww7Z4yMknoM9a6HRfFOq3Ooaxo+p6RFHq+nQpcJFa3G+O5Rwdu1mC4OVIORWRpHgnVrHSvAltM1t5mhyyPd7ZCQQY3UbeOeWHpV/VfCeqX/AIg8R3lteJaLqWkR2VvOjHfHIC5JIHQfMOQc0AJZeMNYh8Uabo+u6ZYQf2mJBA1nemZonRdxSQFR27jitfX/ABDJoWraDA1sj2epXZs5Zi5BicqTHgY5yQR+VcVoPw/1Oz8R+HdSbRdB0uPTDItwbGRnlud0RXezFRkZxwcnknNdn410K48Q+F7izsnSO/R0uLOSQ4CTRsGUn2yMfjQBl2HxCt7jX/FFhcW3kW+ixGZJy3+vRMiU+21htqovj7VLmDRbO10uyTWdQsBqE0d1dmKC2hJwuW2ksxzjAHY1kal8NdautB0K2gurZLwrNBrUm44linkEs2045O4HGcda2PFngZ7/AMR2muWWk6RqgitPscun6muEKhtyujbW2sORyOhoAxfF3iltf+HN3LJYmO/07WLa3ubWKUSBpFmjI2NwGDAjB46811Vn4q1eDxRY6P4g0eCyGpxyPYyW9z52GQbmjk+UYbbzkZFZWo+DNTvvAkul2Om6Jot9Jfw3Kx2QPkoEdGy3yjc2FPYZwBV+20PxHq/i7S9W8Qpp1tBo6S/Z4rKV5DPLIu0udwG1QucLycnrQB2tcV4LuZ5vFfjaOWeSRItSRY1dyQg8peAOwrotCOtHTj/bwsxe+a+BabtmzcdnXnOMZrmZ9D8TaD4n1XVfDkenXtrqzJLPa3krRNFKq7dysqnIIAyCKAM5PEd1oLfEfVcNdf2ddRvFBJIdoHkocDrgc9q1LXxjrMetaPBrOhRWVjrJZLR0uvMlicIXCyrgAZAP3ScVTm8DatN4G8T2txc202va8zSzMmVhjYgKqKTztCqOTzWzrfh691C78KSwmLbpV4s9xuYjKiJl+Xjk5IoAt+KvEZ8PWVr5Foby/vrlbSztt+wPI2T8zfwqACSfauP8d3WuXHgG9i13TLa0ljvrLy5LW482OYGdOmQGBHQgj6V1PjLQL3WrfTbrSpoY9T0u8W8txPny5CAVZGI5AIY8isnXdG8V+KPC13Z38Gl2s73NtJBBDM7hVjlV3LOVGSQOAF7UASPrel6R408VXdxYrC1hpkFxc3iuzPKnzkLt6DG3jHXNV7Hx9qQu9Jk1fS7G20/V5kgtzb3wlnhdwTGJU2gc9PlJwTVrUfBc2r694pkupESx1jTIbONkOXRl35JHtuBHNZfh3wZfabfaelz4R8JR/ZGXfqcC/vX29HVPLG1ycHlqAJ38deI7hvED6Z4dtp7bRLqWKaWW7KecqAHEYCn58c84HI5NU/EHibxDe614Ju/DwtRYaqrSxx3Fw8fmkws22UKp+UDBGM8it/RvDV/YWHi6GYw79Wv7m4ttrkgLIiqu7jg5HvWW/hHXbPw/4KaxWyn1Lw8gElvLKyRy5hMbYcKSMZyOKAL2p+MNTTXH0LSrLTpb+1to576S8vDDDGzg7UQ7SzE4JzgADGetbXhjxEnifw+uowweRMHkhlgdw3lyoxVl3DgjI6jqK5LXPA13P4om8QJoWhay19bxR3VpqJx5MiDG6JyjcEcEEDOBXZeG9OfS9EhtpNP06wkBZmt9OXEKZJ6cDJxjJx1oA4/wHq3i281PxINTis57a21KaMhLl2eNxGhEcYZQNnPUkck8Vej8Za3ZeINLsdc0iwtoNTmNvELW+86WCTaWAkXaBggEZU8Ulh4c8QafqPie0gktY9O1maa6ivklYT28jxhANmMHBUHOa5zSPhzq9rqHhyZ9G0CzbSrpXuby2kZ7i8ARgXLFQeSclSTz3GKANqfx14hkm8Rf2Z4dtp7fQrh0mllvNnmoqhiEG0/Pgk84HTk5qW18fanJJoeoXWhLbaFrU8dvbSm53XCNICUZ0AwFbHZiR39Kt6f4X1C1svGkUhh3azdTy2uHOArxKg3cccj3qCbwlqUnhLwbpgMH2jSLuymucudu2JcPtOOT6dKAMXSb/wAQW3jDxxHoWjW94y38cjyXNz5SH9wnyLgElj74A45rSHijTPEV/wCBNSXSxI9/NceS8shD2jrG28YHDHKlefrSpo3jPRfEHiO/0iLSLmDVblZIo7mZ0aIiNVDkhTkZByvsOeaNO8BXekf8IVDBPFPHo0txLeSsSpdpUbJUf7zH8KAMvWvFp1SeTXItFtL3SPD9zKy+fqHlyyvHlXljiwVYr823cc9cdRW9feNNSm8SWmj6BpMN6bzS11GKeecxJGpbGX4JxjHQE5P41gJ8OrrSru+ht/DHhfWbe4uZJ4LvUBtmhDsW2ONjbwCeCCOK6y28PXcHj+HWgtslimiCwCREjbIJQ2FXHC46c0AWvCXiKTxFp109zaC0vrK7ksruAPvVZExkq3GVIIIOO9c1oeqeLZvij4gsZlsX0+AWxaM3Mh8mNg+GjG3BZgPmBwMgcmuh8KaHd6Nc+IJLoxEahqst5DsYn92yqBnjg/KeKqR6NrWnfEO+1e0is59N1SKCO4MkrJJAYgw+VQpDZ3eooAxNK8XWOh+DjcWGjxxT3esz2VtZrcELLMZGBZnb7oO0sfTtWnYeNr0XepaZq1lZR6jbWD6hC1ldedDNGvBGSAVYHAII75rHm+G97deEI7GcWEl9aazNqUEVwDJbzKzufLkGM4Ktzxwa0tH8L3cVrqinwv4d0V7iykt4209t0jsw/ibYuF9uaAK1l8QtbfT9D1rUPD0NrouqSQwbxdbpo2lwFcrtxsLHjnOCDjtV7UvGupSa5qOm6Dp9hcDTCq3Ut9e+QHkK7vLjGDkgEZJwMmo7nwhqc3w68OaErW/2zT5LFpyXOzELKXwcc9Djis/VfAM8PijVNUtfD3h/XbfUnWUpqfySW8gUKdrbG3KcZxxzmgDt/Dmu23ibw7Y6zaKyQ3ce8I/VDnBU/Qgj8K8JsNQtJvDf+g6hrf8Awm8+oTR2TJPOI3cTHCksfKK7ByP6173olm2n6La2r2tnavGmGgsl2woepCDA4/CuJt/AF83wtuvDlzJCmpC4murSZGJWOXzWkibOMjtnjuaALt3cXa/FvQLaSdwraRcNLGjEIzhk5x09aXXA918UNJ02SadbS50i8WWOOVkB+ZBng8EAnB6inaxoHiG5u9C8R6e1iuvWFs0Nzazs3kTq4XeocDIwwyDj61Louha5d+LP+El8RmzgmhtWtLSys3aRY1ZgzuzsBljgDgYxQByUPgvS3+Kt1oRudW/s+PR47tY/7TnyJTKVJzvz0A4r1qGJbeCOFN2yNQi7mJOAMck8mubi0C8T4nXPiEmL7DJpKWajcd/mCUseMdMHrmpNI1u+1TxfrdmiRHR9PEcKzBTua4I3SLnOCFBXPHBNAFTXvFOq2Pi6z8PaTpEV7PdWT3KySz+WkW1wuX4J24PbJzge9U4viI0HhzUrvUtLZNV0++GnPYwShhNOxXYEYgfK24HJHHNa0+h3cnxHs9eUxfY4dMltGBb597SKw4x0wD3rn77wDqN9D4jK3NvBdXOsRapp0hyyq0apt3j0JUjj1oA07TxTrdj4g07SvEukWloup71tLizuTKokVdxjcFRg4zgjIOKxpPiNr39kaprMPhuF9L0m7mgupGu9skiRuVLRLt5wOTuI5yB0rUh0XxHr3iLSdS8RQafZW+ks8sUFnO0xnmZdu4kqu1QCcDk5qsvg3VB8O/Euhbrf7ZqVxeSwHedmJXLLk444PNAFqz8ZasNe0i21bQ47Kx1oOLKRbnfKjKm8LKuMAlQehOOlcx4b1nxBpdv4um0nQoLy1tddvp55Jrny2l+bJSMBTlgB1bA5xXY6n4dvrzUvCE8Ri2aTMz3OWOSDCU+Xjnk+1YFv4d8baVB4hstPGjyW2sX9zPHLNK6vaiU/eICkPxzjjB7mgC/e+P7ye68P2/h7SFv21yxe6gM03lCLbtPznBwAGOcZOQAOtPvvGWrjVhomn6dpzanb2sdxftd3pihiZ84jQ7SXJwecAAY9afp3gufSNe8LyWsiSWGj6XLZSM5w7s2zBA99pPWqHiTwNPP4vuNftdF0TW0vII4prXVPlMTJkB432sMEEAjHYUAdT4V8RR+KNDTUFgNvKsjwTwFw/lyIxVhuHDDI4PcEVt1wrXWo+GrPw9ounaXpFrqOoX/720s0Pkx24y0rj7vIXbzjqRxXdUAFFFcR438e2Gj6BrCaTrGntrlnEGW3MiuyncAQVzyQCeKAO3orETVJx4nktJb3ThaJp63Jg3N9pVtxBcjp5eBj1zU1j4m0PU7k21jq1nczCAXBSKYMRGcYY+3I/OgDVorI0zxRoOtXctrpmsWV5cRDLxwTKzAeuB296JPFOgQ6yukS6xYpqLEAWzTqHyegxnr7UAa9FZF74p0DTtUj0y91ixt76TG2CWdVc56cE9+1Jp2o3E2ta1b3F5pz29o8YjjgZvNhBTcfOzwCeox2oA2KK5PRvFNvrfi68trTXdJmsoYQsFrbTLJNK/V5CewH3QBnuSelaN54x8N6fI0d5rlhA6TGBlknVSJAASpHtkfnQBt0UisrqGVgysMgg5BFDMqIzuQFUZJPYUALRWJD4w8N3N7a2cOuafJc3Sh4IlnUtICMjAz3HaptX8S6HoDRJq2rWdk0v+rWeUKW9wD296ANRVVAQqhQTk4GOaWs+813SdPhgmvNStYIrhS0MkkoCyALuJB6EbRn6VXm8V+H7fR4dXm1myj0+fiK4aYBJOcfKe/Q9KANiiqmnanYavZJeabeQXds/wB2WFw6n8RS32pWOmLC19dw2yzSeVG0rhQz4JwM98An8KALVFZel+I9F1qOeTTNUtLxLc4mMMobZ9cdKkOu6UNKh1Q6hb/YJyoiuN42OWOFwfcnFAGhRWVq/iXQ9AeJNW1azsml/wBWs8oUt7gHt71Pfa1pmmab/aV9qFtb2RAIuJJQEOemD3z2xQBepNq79+0bgMbsc4rktA8Vf25401iztbu2utKt7O2mt5ISGyX37vmHX7o47Vr2HirQNU1GTT7DWbG5vI87oYp1ZhjrwDzigDXoqC8vLfT7Oa8u5kht4ULySOcKqjqTXO+D/Hmj+MdOa4tJ4o7iPeZrYyhmiUOVDH2IGfxoA6misnS/FGg63dS22l6xZXk8Qy8cEyswHrgdveoZPGXhqGeGGTXdPSWaRoo0a4UEurbSOv8AeBH1oA3KKz9X13SdBt1uNW1G2sonbarTyBdx9BnrQdd0kadb6idStfsVw6pDceaNjsxwAG6cmgDQoqlpesabrdq11pd9BeQK5jMkDh1DDqMj6inw6jZ3N9dWMNzFJdWu3z4Vb5o9wyuR2yOlAFqise48V+H7Sxe9uNZsorZJmgMrzKB5inDL7kegqVPEWjSaN/bEeqWj6bkD7UsoMYJIGM/UgUAaSqqLtRQqjsBilrmr3xRbXK239iazo7ldTis7kzylgc5zGm3/AJaHtnjrV7VvFOg6FNHDqusWVlLIMok8yqxHrg9vegDXorO1DXtI0nT0v9Q1K1trSTGyaSUBXz0we/4VZsb601OyivLG5iubaUbo5YmDKw9iKALFFclqvxF0HRvF0Ph+9vIIpHhaSSV5QBE3y7UI9WDZH0rX1TxRoOiXEVvqmsWVnNLykc8yqSPXB7e9AGtRXM6xrl3aeM/Cum20kRs9T+1Gf5clgkW5dp7c/nUWt+KIIPEumaNba5pNpI0268SedTMVx8saJ/eYnqegHQkigDq6K878T+OTF44s/DGn6/p2mOIjJczXEXmkyblCQhcjBYNn6V1d/wCLfD2lagmn6hrdhbXj4xDLOqtz0yCeM+9AGndWltewGC7t4riEkMY5UDLkHIOD6EZqas/UNd0nSmVdQ1G1tS0TTL50oXKLgEjPYbh+Yp+n6xpurad/aGn39vc2fP7+KQMgx1ye2KAJ4rW3gnmnit4o5pyDLIiANIQMAse+BxzU1Y+meK/D+tXklppms2N3cIMtFDOrNj1wOo+lL/wlGg/23/Y39sWX9pk7fsvnL5meuMevtQBqTQxXMLwzxJLE4wyOoZWHoQetVNP0bS9JDjTdNs7Lf977NAse767QM1erhvFvj+wstOlj0PWNPn1OG7t4ZIVkWRlV5VRvlz6E/SgDuaKytX8S6HoDRLq+rWdk0v8Aq1nlClvcA9vetKKWOeJJYnWSN1DK6HIYHoQe4oAfRWbq/iDR9Aijk1fU7WySQ7UM8oXcfbPWkvfEWi6dpkepXmq2cNlKAY53mUI+em055/CgDTorMi8RaNPoz6xDqlpJpqAl7pJQY1x1ye1Ns/Euh6hqcum2er2VxexDLwRTKzAd+AaANWiuS8P/ABF0HxFrt9pNreQfaLeby4AJQxuVCBiyj0HI/CtSz8W+HdQ1Q6ZZ63YT3wz+4jnVmOOuBnnHtQBs0Vkah4o0HStQisNQ1ixtbuXGyGWdVY56cE8ZrIHxF0EeNZ/DMl5Ak8aIBIZRh5mYqYgP7wwD+NAHXUVjah4t8PaTqCWGoa1YWt2+MQyzqrc9Mgnj8a2AQQCDkHoRQAtFRXMv2e1mmxu8tC+PXAzWV4R11/E3hPTdakgWB7yLzDErbgvJGM/hQBtUVjWvi3w7e6qdLtdbsJr4EjyI51LEjqAM8kVs0AFFcT428eafo2gayml6vYNrlnCXW2MiswIIyCueTg9K2otUuD4m+yS3mnC0GnC5NvlvtIbdguR08vHHrmgDcorKsPE2h6pdi1sNWs7m4MAuPLimDN5ZxhsDtyPzpuneKdA1e/lsdO1mxurqLJeKGdWYY68A80Aa9FZFx4p0C01dNJuNYsYtQcgLbvOock9BjPU9hRqHijQdK1CKw1DWLG1u5cbIZZ1VjnpwTxmgDXorHsdQuJvEWsWkt5p0ltarCY4YS3nw7lJPm54GcZXHasvTPFVtrHjO4s7TXdIlsoYNsdrBOsk00mcsx9FUcYGc8k44oA6yisS98YeG9Od0vdcsLd0m8h1knVSr4BKkfQj8xW0rK6K6MGVhkMDkEUALRWTqvifQtCnig1XV7Ozll5RJ5gpYeuD296fq/iPRdBjik1bVLSyWX/VmeULv+nrQBp0VHb3EN3bx3FtNHNDIoZJI2DKwPQgjqKp6trmlaDbLcatqFtZQs21WnkChj6DPWgDQorO/t7SP7Nh1L+0rU2M7KkVwJQUdmOAA3TJPFQ2finQNRW8ay1iyuFslLXJimVvKUdScduDzQBr0VxOkfEXS/EujatJpV9YwX9mlwyLcy7kCRkhZnxg+WeD9DW63iGw0zw/ZajrWqafAs0SEziTbFIxUH5M8kHqO+KANmis4a/pDaQmrLqVq2nuVC3IlBjJZgoG7p1IH1puneI9F1e8uLTTtVs7u4t/9bFDMrMnbkDtQBp0Vx3jLxzpujaLrMVjrFh/blpavLHbNKrMGAzgrnr7VsXHiPTNI0azvta1G1slnjUhppAgZiATgHrQBs0iqqZ2qFycnA6mobO8tdQtIruzuIri3lXdHLE4ZWHsRUGoa1pmlPGuoX9tatIjunnSBNyrjcefTI/OgC9RVDS9b0vWrI3mmahbXdspIaWGQMqkdQfSquneLPD2r372Ona1YXV2mcwwzqzcdcAHn8KANmishvFGgrqCWDavZi8ec26wGYbzIMErjrnkfnWuSAMk4AoAKKyNP8U6Bq15NZ6frNjdXMIJkihnVmUDqcA9B602w8WeHtV1FtP0/WrC5vFBJhinVm464APP4UAbNFea6n411m18O+NL2KSAT6TqiWtqTFkBCYs5Hc/O3Ndtq3iPRtAjibV9UtLIS8J58oUt64B60Aae1d4faNwGAcc4pajt7iG7t47i2mjmhkUMkkbBlYHoQR1FSUAMmEhgkERAkKnaT2OOK8Bu9Q8PJ8C5dFuVhPiKDd59s0e64juBLl5G4yBjJ3njHGe1fQNRG2gZ3doIy0g2uxQZYeh9aAPPrgj/hamqev/CKL/6NasW20Zh+zeF0SzVb6fSw7mBP3kmSDJyOSSuePwr13yo95fy13ldpbHOPT6UqIsaBEUKqjAVRgCgDyPQfseseIfDMsfjDQJ3sWZra007TzDMV8sgxt+8JVcdQQOlT+CNW8NafoUmj+IGthrx1SX7VbTx7ppZzMSjhcZYYKkMOBjrxXqUdtBFI0kcEaSP95lQAn6ml8iEziYxJ5oGA+0bsfWgDyzw9qvhvSH8Uaf4qe1TVJtXmklhuo98lzExHklFwS67cAAZxjtVLxDBe3SfFaHT0lkmL2RaOL77RiFC4HuUDV7A0ELyrK0SNIn3XKgkfQ05Y0V2dUUM/3iByfrQB5XrOp+HPEF34OtPCEtrPfW+owzILRRm1tVB8zfj7gxgbTjJxxVnw9plhdXPxHmuLOCWWS/mgd3QEmMQqdufTJJr0iO3ghZmihjjZzliqgFvrTlijXftRRvOWwPvH3oA4rwLrtlY+A/BtrfXBW51C1SG2BUtvZUzjIHHA712F/wD8g26/64v/ACNUJfD9rP4hstXkZmaxgeK1gwBHEXPzOB/eIAX2GfWtO4i8+2lhzt8xCucdMjFAHgVrqHh26+B+n6Dpiw/8JHOYRBaxx7bg3HmA+aOM4xk7+mOM9q3tTmutM+JniJ7/AFzR9J+1w2/2aXVrLzVnhEeGWNy6gANuyvcnNeleGfD0Phzw/pumb1uZLKAQC5MYVmA/PH0zWrNbwXChZ4Y5QDkB1DY/OgDx+PQ7CO1+G+mPeQaxY/2jcukvlbY3GyR1AUk/KpwAMnoK3dcm03Q/ixpt9rnkW2kf2U8NjNMoWGK5MuX56KxTHJ6816IYoyUJjUlPucfd+npRLDFPGY5o0kQ9VdQRQBwfgDybrxT4v1TSlA0K7uIPsrIu2OWVY8TOnqCcDI4JFR/FtrJNP8NPqUXm2K69bmePyy+5AkmflHJHtXoSqqIERQqgYAAwBWN4h8PjXpNHc3Jg/s3UY74AJu8zYGG3rxnd19qAOLgudP1/4nPd+GXhubWHQ5YLy4tceUzswMUZI4LDBOOwrln8R6U3wg8O6Et2DqsF1ZxT2gU+ZCyTru8wfwDjGTjORivdIoYoFKwxJGpOSEUAZpv2a33O3kRbpCC52D5iOmfWgDyHVJrnTfid4ke+1zR9JF3FB9lk1ay81ZoAmCsbl1AAbOV7k5pkVrYeHofh9PfanDf+HbWa8zfGIpAkr58kkEnao+ZVJPFexTW8FwoWeGOUA5AdQ2PzpXijkiMTxq0ZGCjLkY+lAHjbNBq+rfEh/CiBmudIh8p7aMoJ3xKGZOm7OCNw6kVHoC2erP4TgHi/QVawuIpLeytNOMV0pVSGib94SuRkNkc17QsUaHKRqpCheBjgdB9KattAkzTJBGsrfecIAx/GgCQgEYIBB6g14laTfbPgbrmh6XKra3bm4+0Wkf8ArkT7SxYFRzymfrmvbqYsMSSPIkSLI/3mCgFvqe9AHk2hfY9Z8TeG54vGOgXD2Jdra007TzDKUMZBjb94Sq45II6iq1lpdg/wf8c3DWcBnkuNSd5CgLMyO+w59sDFewR20EUjSRwRo7/eZUAJ+pp3kxCNoxEmxs7l2jBz1yKAPG9VuL208YaBqd1q+n6bby6BFHbXmp2pmhEuQZFB3KEcjack8jiob/SbL/hA/LXVrPWLPUPFFu8n2SAxQLvdA6INx4PJ4OOTXtMkEMsXlSRI8f8AcZQR+VHkQ+WsflJsUgqu0YGOmBQAkFtBaxCK3hjhjHRI0Cj06CvNvH+pSeCPFEPimCJ3TULCXTpERc5uFBe3JHudy/SvTqZJFHKAJEVwDkBhnB9aAPKr1m8D6R4R0MjSrW4eKVpdZ1SIyRwSkBpAOR87sT1YcDvXM+YLj4WfEBmuILiOTV0PmwQmGOTcYcsqEnAP156173LDFOmyaNJE67XUEfrSGCFlZTEhV+WBUYP1/IUAcJ46sbPTbDwnb2dtDbwr4hsFVI0CgAEgCs3StV0HQfFfjNPFk9pbXtzeeZE14o/f2nlqEVM/eAwwKjPPavT3jSTbvRW2ncMjOD60yW3gnZWlhjkKHKl1B2/SgDxnTrS2sPB3hi41HWYtA1G1mu7jSv7Sh3Q+Q7HEbhsAHYVxyGAPFek+B9Zm17wlaajPZRWjyFxshBEb4cjemQDtbG4Z9a35YYrhNk0SSJnO11BH608AAYAwBQB594lvbDSfir4fvtTmhtbR9OuoRNNhUMhaMhcnvgHArlbiWax8a+LodS17Q9Ka8nVlGrWPm/aLYxgLscuoKjkbRnBz617RLDFMAJY0kAO4B1BwfWmzW0Fxt8+GOXacrvQHH0zQB5fp1lHpusfC2yi1H+0Ioob1Y7rYV81fI4IB6DGB+FclZxlvDmt6FrninQtKuJru4+2299p5a5Ls5KyKxkBfjaVIBxx6V9AGNCysUUsn3SRyv0pj20EkqyyQRtIv3XZASPoaAOFjgEXxd0eJ3E7p4ccGVl5ciWMbvqa53R9V8N6T4c8U6Z4na2TWZb27a6trhczXW4nyygPLgqVC46e1ev8Alp5gk2LvA2hsc49M017eCSVZXhjaRPuuVBK/Q0AeS6NpEo8Q/Dez123Et3baNcMyTruMbgR7cg/xKDj6iqmv2lw1p8ULLTYHMYu7OWSCAYLRmONpsAdyobPrXs5jQyLIUUuoIDEcjNCxorMyooZ+WIHJ+tAHl2ral4e8Q614Ng8Iy2lxeWt+kxazUf6NaBSJA+PuAggbTjJqtpWr2Wh+Krax0LUrHWbPU9VkMunvBi8sZGLF5M9dinOdwBweCa9Yit4ICxihjjLnLFFA3H3oWCFZmmWKMSsMM4Ubj9TQBU1tLqXQdRjsiRdvayLCQed5U7f1xXil5qfheb4VeGtMtFtzq9pcWYkgWL99bSCVBKz8ZTJyMnGSR6171UX2a33O3kRZkILnYPmx0z60AeRapNc6Z8TvEcl9rmj6SLuK3+yyatZeas0ITDLG5dQAGzle5Oa7v4e6fDpngmwtbbU01K3XzGiuY4yiMpdiAqknCjOBz2ro5reC4ULPDHKoOQHUNj86eAAAAAAOgFAHnOoX+maL8Xbm88STQ29tPpMcen3F1gRAh2MqBjwGOVOOpFUrjUPD9n488PaxcC3tvDL6XMmmzyReXBFcGUFjyAELJ0JxkdK9QlginXbNEkig5AdQRn8aWSGKaMxyxpIh6qygj8qAPFdVMF3oPxP1XSAv9hXVvCsEka4immVcSunYjJUEjqRXTa5p9lpmp/Dv7Daw23l33kp5SBcI0D7l+hwK9E8mLyfJ8pPKxjZtG3HpilaNGKlkUlDlcj7p9qAPOvDupWOm+NPG1lP5f9oS3YntrM4Ek6C3U/IO4O0jiuLTXv7ZufBci3uhRD+17d10nTrQrLZDkFXfPGM4I2jJ6dK94MMRmExjQygYD7RuA9M00W1urMywRBmYMxCDJI6E+9AHl+j6r4c0bVPGVn4se1jv7nU5JDHdR7mubZlXyggIJcAcYGcGtH7dp+l/Gef7dLFare6Pbx2nnDb5riV/lXPVuRx1r0B4IZJEkeJGkT7rMoJX6HtSvDFIyNJGjMhyhZQSp9vSgDyLRtV8N6RoPirTfFDWyaxNe3TXVvcLma6DE+WUB5cFdoXHT2rrfBmpLofhvwn4e1ud49au7I+VA6sWPlrkgnoCqkDk9q697eCSVZXhjaRPuuyglfoacY0Z1dkUuudrEcjPXFAEGo/8gy7/AOuL/wDoJrzv4ZeLtAj+H2h6UNVs5dTW1KixWZfNZhk7AvXJr02qyafZRyCSOzt1cHIZYgCPxxQB4U+vnWv+EQkW80KDGtWzrpGn2jLNZDeQQ75+XrgjaMk8V75IHMTiMgPtO0n1pgtrcMzCCIM7BmIQZJHQn3qWgD5+utQ8Px/Au70S8WE+JIfMNxatHuuEuBKS0jcZAxzvPGO/au9cj/hatzzz/wAIoP8A0ca7820DO7tDGWddrsUGWHofUU7yo9+/Yu/bt3Y5x6fSgDybR9Gb/hnXbolmq6hcaUzZhT95IW5fkckkZH5VW0EWWsal4VCeMNAZrCZXtrKx04xXGAhDRN+8JUEZyCOor2NESNAkaqqqMBVGAKYltBHM0qQRrI33nVACfqaAPLfCOq+GtM0/VdK8StarrT6vM1zb3EW6W4dpcxMq4JYY24I6Y7Uujar4c0bU/GVn4te1jv7nVJJTHdx7mubZgvkhBjLgDjAzg16kYIWmWYxIZVGA5UbgPrQ8EMkqSvEjSJ91ioJX6HtQB5Jr0F7d3PxUg0lHN09jYBEQHcV8ptwA65K5GKk1fU/DevWPhLT/AAlJay6jBqFtJBHaqPMtIU/1hfHKALkEHGT616yI0V2dUUM2NzAcnHTNMjt4IpHkjhjR3+8yqAW+vrQB514d0uwu9V+Is1xZwSyyXzwO7oCTH5Cnbn0yTW/8M3aT4Z+HWdix+wxjJ9AMD9K6lY41LFUUbzlsD7x96ERI0CIqqqjAVRgCgDyvxrqVh4d8TaprOn6xYHVvs0Ud1o2oQ7vtirkoIT94MdxHy7hnqKpavd3ln8TLu/vdU0zQku9MtxaPq9p5qbcHzIlbeoVgx5Gecj0r194IZJEkeKNpE+6zKCV+h7UTQQ3CbJ4klXOdrqGH60Acv8ObC30/wksVpqsGpW73M0qTW8RjiXc5JRFycKDnHNct44e6sPihpt/Nqmn6XZnTGitbvUbUzQLN5mXUHcoRyu3knkAivVFVUUKoAUDAAHApssUc8ZjljSRD1V1BBoA8U1DS7IeALwJq9jrFrqHiO2kl+xweVApaSMOijc3B6nB7muy1C1t7L4veGxawRQiTS7uJxGgUMimMquB2GTiu48iHyli8qPy1IKptGBjpxTjGhkWQopdRgMRyKAPItHvrGP4e+OdIM0KanC+qySWpwJEQliGI67cEYPSqV+91Zap4H1CXUrHTbEeH0igu9QtjNBHOQhI+8oRimMMT0BHevaDbwl3cwxl5Btdtoyw9D6ih4IpIfJeJGixjYVBXH0oA8U1ixtU+F/imeHW7HVob7VbZ5fsMHlQRuZYQwUbm68EkHvXZa1Z2unfE3wMllbxWwMN9BtiQKDGIgQuB2BGa7n7PCIRD5MflDom0bfypxjRnV2RSy52sRyM9cUAeCSX+gW/wb1vQ9UWBvEqyXRuLZ4t1wbjzGYS4xnG3B39AB1ra1yS60/x5pN/Pq2naXaPoccVpd6lamaESbsuoO5QjkbTknkcV68beBpGkaGMuy7WYqMkehPpSyQQzReVLEjx/3WUEflQByPw3sbez0XUJLXWbXVIrrUJZ/Ms4fKhjZgu5UGTxnng45rI+INxpVp8QPBNxrSxmxjN2zNIm5EbYm1mHYA4OTwOtejoiRoERVVRwFUYArF1Pw4upeKNF1lrjaNNS4TyDHkSiVQvJzxjHoc0AeX6ysuuR/Ea/8KAzWNxZW0Xm2o+S4lUky7MfePl8Ejqa1NZ1Pw5r58H2XhCS1mv7fUYJYltFG+1t1z5m/H3Bt4IOMmvVo444YxHEioi9FUYA/CmR28ELu8UMaM/LMqgFvrQBwngLT7OTxL41vntYWuv7baPzmQFgqxoQAe2CSa3vHkF9c+Atdh00Obx7KQRiP7x45A9yMiugWNELFEVSxy2BjJ9TTqAPPdJ8SeDJtBso9IhtL6+tNNkeGyhiBlRVj+eNuPkJ+6QcZJ71xVtrh1jXPAsw1LQmzfqy6fploUeyDRt8jvuOPQrhcn6V7nHBDE7vHEiM5yxVQCx9/WkW1t0JKwRKS28kIBlvX60AeMa2QPB3xMJP/Mdj/nBV7X5rnTfitqVzdazpWkRXFhAlncaraGWN0G7zERt6hTu5IzzkV60beEq6mGMq5y4Kj5j6n1omghuE2TxRyrnO11DD9aAOH8HXekeE/B1ms2tw3treai8NtPb27JF5kshxGijOFByBziu8rJ1DQLXU9T0u7uGcx6a7Sw2wA8syEbVcj1UbsfXPpWtQAUUV4nBLry/Cu48ZN4o1R7+yklkghMv7nYk7KUkXH7zIB5PTgDGKAPYdU1K10fS7nUbxylvbxl3IGTgdgO5PQD1NPsbl7ywguZLaa1aVA5gmA3x57NgkZ/GuUtNSu5/izLZm4l+xHQYrgW5b5BIZiN2PXHGa5G81vWz4J1uaDV7mK7TxYbSGcsWMUfnooXHdQD93pjigD2GivMZ9K1a18fWfh2PxXrJsL+we6uTJKGl3xuB+7fH7sNuGQvpxjtm3HinXNF8Ha5YxXt3d3Vpr66TbXbKJbgRPsIPPDOAxAJ6nFAHsFFeaeGbjW4PFcUFvb+KW0ea2k+1NroDGKVcFGRsk88gr06YrM8P3usab8KZfHF3rmo6hfpYSmK2mkzAuGIUsuPmYEZLE56jpQB69RXl2q2+r+EtG0fxFH4l1O/upLq2jvILiUPBcrKwVgkeMIRuyNvp3r1GgAorz8x33i7xz4hsJNa1LTbPRhBFBDYTeUzvIm8yOcfMOgAPHB4pskepa943m8NXGu6hbWeladBLK9m4glu5nJG9mXkKAvQYGTQB6FRXjupa5r9n4W8QaXHrNw91pWt2tpbak2PMaOR4ztfGAxG4g+o61qXOlavaePbHw/F4s1k2Oo2MlzdNJKrS7o2Ufu2x+6DbuQvTHGKAPTqK8gvNa1iw8B+K7UatdyTaRrMVpbXjyfvvKMkJwzdzhyM9xXZa5fXcPxI8J2cVzKltcRXpmhVsLIVRCu4d8E8UAdbRXjUY1258CeIvEreKNVS60y6vXs4klAjVYpGO1xj94DjHPAGAOlb/iLVoNQuNMhfUPEjXU1gly2naAMMob/lq7jBAzwAWxx0NAHo1Fcf8ADfVL7XPAlvPqU00lyJJ4GlkAWUhJGUFsdGwBn3rk017WW8LL4ROo3P8AwkQ1r+yGuw587yQfN8/PX/U9/WgD1yqGs6rDomlzahPDczRxbcpbQmWQ5IHCjk9a5/x9qV9YabpNhp909pNqupQae12uC0KPksy543YXAz3NZHjGw1Dwl8P9bubHxDq0xP2cwtcz75IT5yhisn3sMD0P4daAPRu1FchZ392/xZ1Kwa5lNpHpEEqQFjsVzI4LAepAHNciviDWZPDC2kep3EVxqXiubTBeFtzwQ+a3CE5AOFwPTNAHpEuvW0Pii20Bo5TdXFq90rgDYFRlUgnOc5Ydq1a8ytdKfQvi/YRyave3tv8A2LcOhvpBI8P7yPd8/Ujvz05rEPiCe31PQtQ0rVPFV7Hd6pFby3l8gWxuY3Yq2xOAv+yQB06mgD2dmCIzHoBk1m+HtctvEugWmsWkcsdvdKWRZQAwAJHOCR2rjLeLUvF3iHxRI2vajp0elXP2OzgtJAqKRGGLyKRiTJboeMCtP4T/APJLtB/64t/6G1AHTanq9ho1tHcahcCCKSVIVYqTl3OFHA7ml1PVbHR7Zbm/nEELypCrFScu7BVHA7kiuR+K/Hhaxc8KmrWbMT0A80cmpPikR/wjNiuRufV7JVHdj5ynA/I0AdtRXnRs9R8RfEfxNpkniDVLLTrOC0dILObyzvdG5DdVHy5IHUkZ6Vt/DrVb7V/BdrPqU/n3cUs1vJMRgyeXKyBj7kKM+9AHVUV47Yw63qHgPXPEUnizVYrvT5717NElAjQRSOQsgx+8Bxj5ugwBjFaLXOreLPFug2g1m/0u0vfDq311FZybGZy6/dPO05bqOcDHegD1GivO7a2vvFXi7XdNm13VLOx0QQW0MdnceVJK7RhmlkYDLHnAHTg8VjReJddvtA03RH1SWO6m8RS6PLqkahZHhj3NuXjAdgAufrQB6Sddth4qXw95cv2prI3ofA2bA+zGc5zk+laleZ6fpc2i/FuaA6pe30f/AAjzvC15JvkiHnDK7+rDIyM81QbXNW/4UFpWq/2ldf2hI1sHuvNPmNuuFU5bryOKAPW6rtf2iahHYPcRrdyxtKkJb5mQEAkD0BI/OuGEV/4v8b+IrKTW9S02z0cwQW8NhN5RZ3j3mRzj5uoAB44PFZ2q+GzcfFrRIrjWNWMz6TK0k0N00RLI0a/KF4UN1IHBNAHqVFed2dvf+NfEHiQz67qenW2mXn2G0t9Pm8naVRWMjnHzkluAeMDpWr4E1K98S+BVbUrh2ug89pJdQny2k2OyeYpHQkDOR3oA3n1ux/si61O3lN3b2wk3/ZR5jEpkMoA6sCCMetW7S5W8s4LpFkRJo1kVZFKsARnBB6H2ryLwtp8mkfDLxVq1pqepi4j/ALSjjD3bMiFXbDhegfj73XrVjVfEGp3V/wCHNGL689s+iR3902jgfaZnO1RuckEKOSSDkkigD1uivH73VvFNt4A1ASTarYyRaxbQ6fd36BbhoHkT/WAHDYJYH1HWt+IX/hf4h6Vpx1nUdStNUsriSaO8kEm2WLaQycDbncRtHFAHoNFeE2HiHxRrOgJ4isY/Fk+tzSGaCOKNf7OKB8eVtzyu0YLY3Z5zXpHxJv7zT/hvq17aTy2l0kUZWSJ9rIS6g4I+pFAHXUVx/iG/vLfxv4LtobqWOC6kuhPGrYWULDkbh3wea5CGLXNT8M+LtbbxRqsM2l3199hiilARBESwDjHzg4xg8AdKAPWLy5Sysbi7kSR0gjaRliQs7BRnCgck8cCksLxNQ0+3vI0ljjnjWRUmQo6gjOGU8g+1YlxqdxdfDWXVg5iupdINyHjOCjmHdkemDXIWl9qfiGfwZoEmrX1pDcaCuo3lxby7JrhwqKF8zqOWLHHJoA73TtetdT1nV9LhjlWbS5I45mcDaxdA428+h74p+ua1b6DpjXtxHNN86xxQQLukmkY4VFHck1x/w/tJbDxj43tZ72a9eO6tR9onxvYeQNu7GASBgZ74zWl4fvru48deM7aa5lkgtXtPs8TNlYt0OTtHbJ5oA65GLRqzIUYgEqeo9uKZczra2s1w6uyxIzlY1LMQBnAA6n2ryG01XXdQ8FeABFrt5b3Wo6jJDcXQbe7p+9654PAGM5wQD2rahn1HQfEPibQV1e/vLVNF/tC3ku5vMlhkO9SA/XHyg+1AHoGnX0epadb30Ucscc8YkVJkKOoI6Mp5B9qs15Tp2par4gg8D6FJq97ax3uj/b726gl2z3BVUAUSdRyxJI5NaetR6pp1/wCG/CMOv3/l6pc3DSX7sv2hYYk3+UHx1OcbsZwKAPQ6K4TRXvtB+I8vhk6ne6jp1xpn2+M3snmyW7iTYRv6lWznnoRXdN9xvpQAtFeJWs+vw/CWDxu3ifVJdRtmEiQvL+4aMT7Cjrj5yRn5jz0xjFdfMb3xZ4+1jR31bUNO07SLa3ZY7CbyXmklDNuZxzgAYwOM0Ad9RXjt3r+vp4O1KxXWJ/tumeJItNi1LA3yRmRMbwMBiA2CO+Oa1JdK1W2+IFt4bj8V60dPvtPe8uTJMGl3o4XEb4zGG3DIX04xQB3PiDXrbw5pyX13HK8bTxQARAE7pHCA8kcZPNateK6zdalcfD/WdLuNRlnm0zxLDZW15cYeTYJYmQv/AHiN3U9cV1Pl6h4W8f8Ah+yXW9Q1G11lLiO5ivZQ+140DiRBgbB1BA45HFAHoNFeT+F7nVofBGoeM77XNSvp7NL4wWby/udqPIAHGMscjrngYHaqWi6j4lZtB1G0Txdd3tzNC2oG9jQWUkL/AHyig/IFzlSB25oA9loorzv7HqPiL4jeJtNk8QapZ6baQ2jJb2c3lne6NyG6qOMkDqcZ6YoA9Eorxs694hv/AAv4ftU1qeC9/wCElfSZL+MDdNGvmLuI6E4A9sjNaPie5v8ARNY0Twpb3viW7s5IJ7u5mtHEt7KAwCp5hxhQW5I5xgUAep1W1G+j0zTri+ljmkjgjMjJChdyB2Cjkn2ryx/EPifRvBuuZXU4EF5b22l3mrxr56JMyqxfqG2EnBPXIzW9r2jX3hbwZ4ivrXxJrFyy6ZKVF3P5jJKFJEiNjKn2HH0oA7m2nW6tYbhFdVlQOFddrAEZwR2PtUtebi61HxH4m0nw62rXtlZx6FFqNxJaSeXNcyMwQDf1AGCTjqTWp4LvL+HxB4l8OXd9PqEOlTQG2urghpCkse/YzD7xXHXrzQB2lFeQ+N9aZH8QXWlat4quL3TlYhtPQCys3RN2yToG9WzuIB7VsSX2o+KvFOkaG+p3enWh0NNUuGsZPKknkdgoUN1Cjk8eooA764v7S0ntoLi4jilunMcCO2DIwBOB6nAJqxXlXi/wy413wTbXWu6vO7X0kHni5MbhfLkYH5cDeBhSwGSBzXRWFxdQfFOfSfttzLZQaFC6xyylsv5rKXOerEAZPegDs6gvbpLGxuLuQMY4ImlYL1IUZOPyrzW011/+ES1qTVNd1K3P/CRXFpC1oPMuHAkwsEQIOCegx0GelVtD1S+N34u0eR9c+wx6QLmGLW+Z42YSK2GySUOB1PUGgD0zRtUh1vRLHVbdHSC8gSeNZAAwVhkA4781erm/h9/yTnw3/wBg2D/0AVS8fR620emPpw1J9NSZjqUelSBLpk2/JsJ5IDdQCCaAOpu7+0sTALu5ihNxKIIfMbHmSHoo9ScHirFeP+JLbTte0XwTc2GuazcQNrMVsJZLpklBJfJYYBEikbQ2MjFb93Deal44g8IJrWp2mm2GlLdySQ3BFxdOzlBul+9gAZOOpPNAHoNUNb1aDQtDvtWuUkeCzhaaRYwCxCjJAzgZrzG88Ta5oOl+K9Fi1KW5m0+/tLSz1G5Ad40udv3zjDMmTyfUZrZ8U+HJtE8AeJ5P7d1S/hk0qVWhv5hLh9p+dWxlf90cewoA760uUvbKC6jDBJo1kUN1AIyM/nU1ec/D+/vdf1OWa9vJ7P8AsmGO1i0cNtwpjUieXH39w+72AHrWjq2q3Hh34i2U15eSf2LqllJFsd/3cE8IMmQOg3Ju+pWgDtaK5X4ey6jfeFU1bU55nn1SaS9SORiRBE5/dovoAm049zXn0EmvH4X33jA+KNVN/YzTyW0Pm/udkczDZIuP3mQDyegwBjFAHtdFef3E194s8dTaM2qXum6dY6dDctHYy+VJPJKTyXHO1QOg7nmuc1LXdfs/CniDTI9ZuHutK1u2tLbUWx5jRu8ZCvjAYjcQfXvQB7HWV4j1+18M6JNqt5HLJBEyKyxAFiXcIOpHdhXDXOlataePbDw9F4s1k2Oo2UlzdNJKrSbo2Ufu2x+6DbuQvpxisPX7u/f4Z+MdJur+a7Ol6xFa21zcndJ5fmQsu8/xEFup60Ae1UV55cRal4U8aeG0XXtQ1GLV5Zba8hvJAylhGXEkagYjwR0HGDVHwq+qPpGs+Kb7XNSujp11fi2sfNxCUjZ8K4xlz6c8AACgD1GivFNH1fxPdWWjazZx+LbrVLmSGa5E8a/2fJE5BcKuflUKcqwGeBnrXtdABXOL4J0pfBk/hUNc/wBnTCQMfMHmfO5c849Se1dHUc08VtC008qRRIMs7sFUfUmgDB1jwZp+r31rf/ar+xvbaE24uLG4MTvEeSjHuM8+o7Gq0Hw90O20F9FgF0lm1+t/t87LCQMrAZIJxlR156811dRyzwweX50qR+Y4RN7AbmPQD1PtQBQl0K0m8SW2usZftlvbPbIA3ybGYE5HrlRVF/BWizWWsWdxFJNBq10bu4V35EmFAKEYK42gjuDXQ0UAYGkeFI9JujcNrOtX7eWY1S9vDIiA46KAATx1OTU+l+GdN0rwvH4djjafTkiaEpOdxdGJJBPfqa2KKAOR0/4d6RYXVnI93qd7BYOHs7S8uzLDbsOAVU9SB0yTjtVnw5o9/ba54g1nUWZJNRuVWG3Em5YoYl2IfQM3LHHqB2rpaKAOa1fwTp+q6u2qpealp95LEIZ5LC5MPnoOgf1x2IwR603UPAul3stncW9xqGnXlpbi1jurK5KSmIdEYnO4Z55yc109FAHNf8IJoo8Pf2KqTrbm6S8kk80mWWZXD73c5LElRn29K0ptDtJ/EVrrjmX7Xa28lvGA3y7XIJyPX5RV+aeG2haaeVIol+88jBVH1JqSgDnpPBejzWOuWVxFJNb61OZ7pHf+IhR8uOmNoI96rab4B03TtastYa+1S91CzR445ry6Mh2MMbSMYwO2McnnNdVRQBgReD9Mi8NajoCtcfY9QadpiXG8GYktg446nHFV77wLpt5dWt1FealY3MFqtmZbK5MTTQr0R+OfqMHnrXT0UAZXh7w/Y+GNIXTNNEgtUkeRRI+4gsxY8/U1zdl4Zef4wal4lmsWggt7GO2glYjFxK2d8gHbC4Su5ooAzdd0Gw8R6W+najGzwsyurI5R43U5VlYcgg96xn8AabcaNf6be6hqt6L7yxNPc3ZeTEbBlCnGFGR2HPeurooA57WvBun61qsOpm6v7G+jhNu09jcGJpYs52NjqM89iOxqtH8PdAi8MS+H0inFi9ybpD5x8yGQtuDI/UEHofzzXVUUAcxpvgTStO1ddWae/vdQ+zvbST3twZWljYrw3GMDbwBgcn1qlB8MdFgazX7Zq0lvYXCXFnay3haK3ZWyAq46duc4HTFdpRQBzGo+BNK1HWLjUjPqFs14qrew2tyY4rsKMDzAOvHHBGRUlv4J0u10zRdPglvI7fR5/Ptgs+NxyTh+PmX5jxXR0UAUtW0mx1zSrjTNSt1uLO4XbJG3cf0IPINYGn/D3S7LULW8nvtV1JrNt1pHqF400du3QFV9QOhOSK6yigDMtNCtLLXtS1mIy/atRSFJgzZXEYIXA7feOaNC0O08O6Z/Z9kZTD5skv7xtx3O5c8/UmtOigDy/wAMfDWG50e6XWjqdr9pv7iS5so7srDdIZWKF1GeCuOhGR1ru18P2KeIodbQOlzDZGxRFOIxFuDfdx1yBWrRQBzWreCbDVNXfVYr3UtNvpYxFPNp9yYjOo6Bxgg47HqPWnT+BtCm8M2+gLbyQWltIJoHhlKyxSg58wP135JOT1ya6OigDnNI8Fabo+strCXF9dai9ubaW4u7gyNKpYH5s8cbQBjAxnisqT4VaBJbm1a41T7Cs3nwWYvD5Nu+7dlF7c565xk4xXcUUAc1q3gjTtV1eTVUvNS0+8miENxJYXRh89B0D+uOxGD707UfBWm6hJpkyXF/ZT6bGYYJrS5KP5ZxlGJzuBwOvPvXR0UAcvqfgTTtQ1W51GG91PTp7tQt3/Z90YluABgbxg844yMH3rd0vTLLRtMt9O0+3WC0t02RRr0A/qferdFAHLReA9Lgj1mCK61BbPVklWa0+0ZijMv32RcfKx/Hqam1DwVpl/b6aqz3tpc6bCILa8tJzHMqYAKk4wwOBkEGujooA5yTwXY3GhnSru91K7ja5jummuLkvKXRlYckYAyo4AA61oXWhWd54g0/WpTL9rsI5Y4QrYXEgAbI7/dFadFAHJJ8PdNt7iQ2WpazY2kkplextb1o4NxOTgdVBPUAgV0OqaZZ61pVzpt/CJrS5jMcqE4yD79j71cooA5LT/h7pdhq2n6o17qt5e6fuW3lvLsybUZduzGMYwfrnqTWhbeE9OtdF1bSo2n+z6pLPLcEv8wabO/accdeK3aKAM4aLajw5/YQMn2MWn2PO759mzZ19cd6ybzwLpd1p+kW0c99aTaRCILO8tZ9k6IFCkFsYIIAzkV09FAGH4f8Kab4ZmvpdPNwXvWR52nmMhd1GNxJ5yc5NVdU8DaXqusy6o1xqFrNcRLDdpaXTRJdIvQSAdcAkZBBxxXTUUAc1aeBtIstP0OxhNyIdFnNxaAyAncd3Dccj5z+lXLnwxYXWsXuqSGb7ReWH9ny4f5fKyTwMcH5jzWzRQBy9z4D0ifSdIsUlvbaTSIxHZXlvPsnjXaFI3AYOQBkEYNLP4E0m50eGwlmv2khuDdRXxumNykx6uJOx7Y6Y7V09FAHLReFx4f07VbzShc6nrlzAUFxf3O6SQgHYpY4CqCc4AH51peGNFbw/wCF9P0iS5e5ktoQkkzkku3Vjz2yTj2rXooA5seB9JHgf/hEd1z/AGaVK58z95jfv+9j19qdrHg2w1bUk1OO71DTr9YvJa50+48p5I+oVuCGAPTjIroqKAObPgfRRoFvoscc0drDdJd7lkJkklVw+52OSxJHJNaMmhWkviWDXmMv2yC1e1QBvk2MwY5GOuVFadFAHLXngDRL/TtTsLkXD2+pX41C5XzMZkBXgccL8g4+vNS6P4K07SNWGqfatQvruOIwwPfXJm+zxnqqZ6Z45OTx1rpKKAMnRvDthomhnR7dXks2aVmWchi3mMWYHjplj+FZem+A7HSbi3NpqutrZ2zhobA3zGBMdFx1Kj+6SRXVUUAc14a0e/tdZ8QaxqLMkupXS+VbiXesUMa7EPoGbljj1A7Vgv4Km1X4h+I9SuZdS0+OSG1S1vLK58ppFCMJF75GdvUfSvQ6KAOdXwRosWnaNYQRSw2+kXS3dsqPyZBu5cnJbO4k+pqxr/hew8QtazXElzbXloxa2vLSUxTRbhhgG9D3BBFbVFAHPJ4O099CvdI1C4v9Ut73/XtfXJkc9MYPG3GARtA55qrF4B09dPv7O51LV71b20azZ7u8MjRxHqqcYH1IJ4611dFAHN6l4K03URp7rcX1leafD5FveWc/lzCPABUnGGBwOCKv6D4esPDtrLDZiV3nkM1xcTyGSWdz1Z2PU/oK1aKAOQ1H4caPqNxqLtdapBb6kxe7s7e7KQSuRguV9eBnnBxyDVrUfBGm6gmmstxfWd3p0PkW95Zz+XMI8AFScYYHA4IrpaKAOZvPA2l3mj2Wnm41CJrKc3FveJdN9oWQ5y285yTuOc8c0up+CbDU7qzvDe6nbX1rb/ZvtdrdFJZYu6u2Pmyec9c85rpaKAOSj+HOgw+H20aAXcVuL030MiTkS282eGR+ox756nOam0/wLpmn3GoXP2rULq51C1+y3M91cGR3XnnpweccYHtXT0UAccvhS4h1zwzbWrSRaJoNs2xzLl55CojRGA7BcsTjkke9bGueHYdcaCQ6hqNhPBuCTWNyYmw2Mg9QRwOo47Vs0UAczN4D0WTw3baJGLmCG2nFzDPFOROkwJbzN5ySxJOSfWjUPBFhqH2GZr7U4NQsojDHqMFztuGQ9Q7YwwJ5wR16YrpqKAOdh8D6FH4dvdEkt5Li2vmMl3JPKXlnc4+dn67uBg9sDFVovAOnjTr+zudS1e9W9tWs2ku7wyNHEeqpxgfXBPHWurooAw08KabFrOnatCZ4byytvsoeN8efFjAWQY+YA8jpg1i/E7w/P4p0Cx0eCzeYz6hD5kykD7NGCd8h/wCA5XA/vV21FADIYo7eCOGJAkcahEUdAAMAVz6eCtKTwdc+Fw1z/Z9x5m8+YPM/eOXbBx6k9q6OigDnNW8F6dql5bXyXV/p9/bw/Z1u7GfypGi/uNwQwzzyKZ/wgeif8I7/AGIqTrbtdLdySebmWWZXD73c5LEkDP8ASumooAzJtDtJ/EVrrjmX7Xa28lvGA3ybXIJyPX5RWZeeBNGvtP1mxuPtDQaxdrd3S+ZjLjbwOOB8g4+tdNRQBzOleB9M0vV4tT+0aheT28bRWgvbkyrao3URg9MjjJyccZrS0bQLLQ9PnsrUO8M88s7iUhstIxZh06ZPStSigDk7HwBYabPF9j1TWobKGQSR6el8wt0wc4A67c/w5x7V1lFFACMwRCzHCgZJPavHPGninW/Enwx1bUotDgXw9drshmNz+/CCQAStGVxtJHQHPOa9ikjWWJo3GVdSpHsa8rufBPjL/hA7jwVbyaSdPjQpb3ryP5ssYfcqMm3CnsWyeB0oA6PV/F97b64ugaLa2Mt5DapcXE1/deTFGrZCqMAlmOCemAK5/WPEcfinTPCN59n+zzw+Koba4h3iQRyoJAwDDhh3B9DWh4j8Cz3Hik69a6Pousie1S3ns9UGNrJnDxvtbHBwRjsKsTeEb+fSfDsMWn6Rpz2OtR389vY5WJY1Dg7flG5+R2GaAOg8X67J4Z8J6jrUUCzvaReYImbaG5Axn8axI/GGtWes6TFrmhw2Wn6xL5FrJHdeZLDIVLKsq4A+YA/dJwal+K2P+FXeIM/8+3/swqlHoPijXdU0JtebTI9P0iYXayWjuXu5QpCEqQBGBkkjLc0AT6N4w1vWtZ1COLRraLStNv5rS6vJbkgkJ0KLjkgYzkgc8Zqi3xA106C3iuLw9C3hpcyZN0RdtADgyhNu3GOdu7OK3fC/hy50uz8QW2oGNk1LVLm6Ty2J/dSYxnjg9a5tPCXi9fCR8EeZpf8AZHlm2Gp+Y/nfZyenlbcb9vGd2KAOk07xfHceIdY027jjhhs7WK/tpw2RPbOpJfB6YIIrEi+Il/daXoYt9MtU1XWY5LmGK5ufLhht1PyySNgnJBXgDv7UvjfwJqGr/wBmf8I/cQ2pS2bS7wyEgtZPt3AYHLDbx9TU/i3wL/aOoaRqWnadpV8dOga1On6kmYZIjjGDg7WUjg4PU0ANT4kpbaFrFxqdii6lpU8dtJbWtwJI5nlx5RRzjht3ccYOelWNK8Z348QW+ka/aafA95DJNbTWF556jywC6PkAggHOehwaoXHgKXV/Bt/pcukaDok8s8c8EVhHviLRkEeb8q7gTkHA6GrPh3wtc2+o+Zd+EvC+lx+S8bz6d80rlhj5f3a7QRnOSaAOV8aeKNb8SfDLUNRXQoY/D95sEExuczqglXbI6bcbSR0ByMg13GpeJtVfxFJ4f8O6bbXV5bW6XF3PdzmKKENnYvyqSWOCemAK5a58F+M38ByeC4pNJNhAoSG8aR/MmjVwyoU24Q8AFsnp0ror/Q9f0rxfd+IPD0dhdrqFvFDd2t3M0RDR5COrBW7HBBFAFO6+JE9t4Ru9UbR2GpWGopp95p4l3ESF1B2Nj5gQwI6V1uh3Gs3Nk8mt2FtZXHmHZFbzmUbMDGTgfNnIOOOK4ufwFqsvhi7ikuLWXWNR1iHU7tlJWJdsiHYnBJAVMDPU12mr/wBteZp/9kCz2fal+2/ad2fI53bMfxdMZ4oA06KKKACiiigAooooAKKKKACiiigAooooAKKKKACiiigAooooAKKKKACiiigAooooAKKKKACiiigAooooAKKKKACiiigAooooAKKKKACiiigAooooAKKKKACiiigAooooAKKKKACiiigAooooAKKKKACiiigAooooAKKKKACiiigAooooAKKKKACiiigAooooAKKKKACiiigAooooAKKKKACiiigAooooAKKKKACiiigCK5toLy3e3uoI54JBh45UDKw9weDUoAAwBgCiigAooooAKKKKACiiigAooooAKKKKACiiigAooooAKKKKACiiigAooooAKKKKACiiigAooooAKKKKACiiigAooooAKKKKACiiigAooooAKKKKACiiigAooooAKKKKACiiigAooooAKKKKACiiigAooooAKKKKACiiigAooooAKKKKACiiigAooooAKKKKACiiigAooooAKKKKACiiigAooooAKKKKACiiigAooooAKKKKACiiigAooooAKKKKACiivNfEPjTV7DxoZbSSMeG9Knt7TVMoCWknz8wbqAmY84/vUAelUVia/wCKLPw/JZ28sF1d3t6zLbWdnHvlk2jLEAkAADqSRXLeFvFcNz4h8caneXN1b6bZm2byr0MhtsQ/vBsP3TuB6dfegD0SiuX0vx1YalqVrZS6fqmnveqWs3vrby0uQBkhTk845w2Dis9/inoiJdTCy1Z7WyuXtr25S1zFbMr7cuc9O/y5IBBIFAHcUVy2nePNL1LWLXT0ttQgF8rtY3NxbmOG7CjJ8sk56c8gZHIrH8QeK7X+2bGW6TX7TRrC7Kz3MdqUt5Zc7E3vuDGMMT0UqTjnAoA9Borm9T8Z2mn6xJpUGm6pqV3BGklwthbiQQK2dpYkjk4JwMnjpXRqdyg4IyM4IoAWiszXdds/DunC9vBK4eVIYooU3ySyOcKijuSaonxhZ2+gXGsanZahpkUEgjMN3BiV2ONoRVJ3ZJAGCeaAOhorntG8X2mr6m2mSWOo6bfiLz0t7+ERtJHnBZcEg4JGRnIz0rR1vWrHw/pUuo6jKY7ePA+VSzMxOAqgckknAAoA0KK5rSvGtlqWsJpNxp+p6XfSxmWCLUIBH56DqUIJBI7jOR6VW0f4iaTrckptbTUltYBL9pvZbfbBAY87lZ89cDPGeCOh4oA66iuKtPiVZXmqaZZRaFroGqH/AEO4ktkSOVAMlwS+doX5umcc4qxf/EDT9NuJPtOmawlhFP5Euom0It0bdt5JO7bnjcFI96AOtormNW8cafpOvnQ/sWo3mpG3W5jgs4PMMiEsODkAY285wORzVHUvFmmat4Ts9Vt77U7OF9Rhtm+zxhZkl8wIYpFboM8N7dM0AdrRXKa946h8PXvk3mhay0LTRwJdRQxtFI74ChfnDHk46djUuteNbbRbm5ibSNZu47RQ9zcWtpuiiGM5LEjdgcnbnFAHTUVzGqePNH0s6QCLq6/teJpbL7LCZDLgKQAOuSGGO3XJFXfD3iez8RpdrBBdWt1Zy+Vc2t3HsliYjIyASMEcggmgDaorI1/xHZeHYLdrlLiee5k8q2tbaPzJZnxnCr7Dkk4A7ms1PHul/wBjavqE9tfW0mkJvvLKeELPGCMg7c4II6EHFAHU0VymneP9K1HVLKyFpqVumoBjY3VzbFIbnAyQhznOORkDPbNdPPPFa28txPIscMSF3djgKoGST+FAElFcvo3jmx1q5hSHTdWgtrlGe2vLi0KwzqBnKnJIyBkbgM9qjtvH9hPqVlaT6ZrFlHfyeVaXV5aeXFM+CQo53AkDjcBmgDrKK4Xw9431HVfG2taPcaHqEdtbTRJDIYUHkAx7iZTvP3jyuAeCM1Zf4k6Mkskn2XUm0uOf7PJqy22bVX3bT8+c4DcbgNue9AHY0Vy2u+PLDRL26s00/U9Sms4RPdiwgEgt0IJBclgMkAnAycDNNbx/pq6Ppd99i1Fp9VBaysEhDXEygZ3BQxAXGDkkDBFAHV0Vy9v480qfSNYvngvbaXR4zJe2VxCEnjAUsPlzg5AOCDg+tZWqeOrTU/B+o3tmNX0+0Ihji1H7GP3glcJuh3MMkZ6nGOozQB3tFctf+JrbwyBpsWk65qK2cCmWW2tzMETHVnYjc2Bk4yadd+OtKhtNLms4b3U5NViM1pBZQ7pHjABZiGICgZGckcnFAHT0VWsLv7fYQ3X2e4t/NXd5VxHskT2YdjVfXtZg8PaHd6vdRTy29qnmSLAoZ9ueSASOnU+wNAGjRWRe+JLCyutHtv3k0mryFLUQqDkBN5c8/dA6n3FW9V1Sz0TSrnUtQmENpbIXlkIzgfTue2KALlFc1p/jW1vEuGn0rWbDybc3QF3ZkGWMYyU2k5PI+XhuelJpfjW01HWYdKn0zVdNuriNpbYX9uIxOq43bSCeQCCQcGgDpqK818a/EK0bwr4ii02DVsQQzWw1S3gPkJOARtDg5BDcbgMA966BvFI0rTtMg/svV9UupLKOZxZW/mYGMZZmIXJIPGcn0oA6qis/Q9asvEOj2+qae7PbTg7d6lWUgkFSD0IIIP0rK1nxtp+ja8miNaahd6jLbfaYoLSDzDIu4qQOQARgk5wMd6AOlorkX+I2hReGpNdmF3FbwXa2dzDJDiW2lLBSHXPGMgnGeOmamfx1p8GjJqV3Yapama4FtbWk1qRcXLkZXy0ByQR64xg5xQB1FFc5pHjPT9Uu7uymt73TL60h+0S22oRCNxF/z0BBIK+4PHeuN8VfEGLVNJ0s6XBrNnFdapai2vXgaKK6TzRuCsDnBGeGAyOmaAPVaKzLPXbW+17U9HiWUXOnLE0xZQFPmKWXac88DmskePtHPhm01xUu2ivJ2trW2WLdPNIGZdqqDyflJ69OtAHU0V534r+It1p3hOfUNN0XUob2G6iglivLUDydzLy3zYIYNhSpIz1xW/d+NbTT9Osp7zTdThvL6RorbTfIDXMjL1wqsRjHOScAHmgDpaKw9A8U2XiCe7tY4LuzvrMr9os7yLy5Yw3KnAJBB9QTU+oeILTTNb0vSrlJhLqZkWCUKPL3Iu4qxzwSM445waANWiufufGGn299q1p5F5NJpaQtcfZ4DJlpfuIoXkt0OMcAjmk0Txda6zqs2lvYajp2oRQi4+z38IRniJxvXBIIzx14oA6GiszXtes/DunC9vRKweVIYooU3ySyMcKijuSaonxhZW3h+41jVLPUNLhgfy2ivIMSMxxtChSd2SQBgnmgDoaK4bwxr8Evim9t9R/tq21PUczWtvqUHlR+SgxtiAZlyM5boxzkj0p+EPFcOkfD2PUtaurm4kk1G5t4l+aaaZzO4SNB1JwMAdgKAPRaK57RfGFnrGqS6VJZ3+m6lHF532W/hEbvHnG9SCQwzxweK0db1ux8P6XJqOoSMkKEKAilndicKqqOSxPAFAGhRXPaR4ws9V1CXTpbHUNNv44ftAtr+ERvJFnG9cEggHg85Geax7L4q6FfWtnex2eqppt1IsP297XEEUjHAR2z1zxkAgHvQB3NFFc0PG+lnwdd+KBHdfYLUyiRdg8w+W5Q4GcdRxzQB0tFcxqvjnTtK1iDSTZ6hd6hcWouoILWDe0ikkYHIAIwSc4GO9SWvjXTL3w7JrMEF86xzG2ktFtma4SYNtMZQZ+YEj275oA6OisDQvFtprmo3Wmmyv8AT9Qto1le1voQjmNiQHGCQRkY4NXNe16x8OaW1/qDuIw6xokaF3kdjhUVRyWJ7UAadFc3B4ztpLC8ubjSdZtJbTZvtZrMmV95wuwKSGyeODx3xTLHxvbX017af2Rq1vqVrb/afsFxAqzTR5wGj+Yq3PHUc0AdPRXBeCvH8ureEZtX1+ynsY7ZZZJrx4gkDKsjKAuGJLAAAjHUHFa2leObHU9StrCXT9U06W8Rns2v7by1uQBk7Dk845wcHHagDp6K4a9+KWl2rB4NI1q9tHuvscd5bWymGSbdt2qzOM/MMZxgnvWnqfjaz0/VG0y307U9Sv4olmuILC3EhgVum8kgAnsMkn0oA6aiuUuviL4ftfD1hrhluJLK9uPsyGOEl0k+b5WTqDlSMYJziqt3rUeuap4Zs5hrOk/bZ55vskkPlSS+QAdsjBsqnIOBndwDjmgDtaK5K4+IOn2l2iXOmaxDZPcC2GoyWhW33lto5J3YJ43bce9dbQAUVynxC1q/0Hwyl5p0winN7bRFigb5XkVWGD6gmn+P9YvtD8L/AG3T5hFcfa7aLcUDfK8yqwwfUE0AdRRXL6p46sNN1+fQ1sNTvdSihScQWduHLo2eQcgDGOckdRjNSx+NNMuPDVvrlnBfXcNxJ5Udvb2zNN5mSChT+Egg5yQBjrQB0dFYfh/xTaeIJr21S1vLK+siouLS9iCSIGBKngkEHBwQT0qfX/ENj4csori8E0jTyrBBb28e+WeQ9FRe54P5UAatFc0njO1OmT3cmlazFNDMsDWTWZM5dhldoUkEEdwcepFQweOYLyz1YQ6TqsepadGry6dNAqzENnayjdtYcHkN2NAHV0VwnhX4gC98Br4g8QWlxYLDAkktw8QEc5YkDygGLHnAwQDkitfSfGdlqeqDTZ7DUtLvHiM8MWowCLzoxjcVIJHGRkHBGelAHSUVwx+KWmtNZfZ9G1y4tb6f7PaXkdsohnbn7pZwccHGQM4OM1oan46sbDUrqwttO1TVJrIA3Z0+28xbfIyAxJGTjnAyfagDqaK5S/8AiJoNjpmkaiGubq21cstobaEuzsBnbt67iflxjr1xUD6tHrXijw/byvqunE281/8AYJIvKLlGCDzSGzgZyFGQcgk8YoA7KiuSi+IGntf2kE+maxaW95OLe2vbm08uGSQ/dXk7hnHGVGa62gCG6mNtZzTrE8zRxs4jjGWfAzgD1NeY6X8ONT1bwdcpquv6pZXGs+ZdXtiixeWsshztO5C3A2jr24xXqlFAHlNm3iK1n8KeJ9R0PULia0sZtN1C2hj3TI24BZlXPzBtmeOxqO68Oa74psviCH0ybTpdYS0ayjuGGXEacAkHAJ2jI7bq9aooA8u8P6VBe69pUl3pfjX7TZyGUHVLnfb27hSM5LYb0G0HrRHoeqD4UeMNPOn3AvLq7v3gh2fNIHclSB3yOleo0UAcPrOmX02reA5IrSV0s7hmuWC8RD7Oy/N6c8VwnifTPFWtaZrFpfWfia51Y3RMccMirp3kLICu0A/P8oHBy2fpXudFAHmfje2vDrM9zoui67B4gEKJZ6jp5XyLjuFnBO3aDkHcOnQ11tp4hlfxSnhya1L3MempeXNzG37tHLbdmOvOGI9hW/VW202ztLu7u4IFS4vGV7iQfekKrtGfoBgCgDH8aQW9zoHk3mi3erWzSqZIrM4mixkiROQcqQOhzzXBXWgeKNd8E3EUiarLDZ6tDd6dDeyrHfSW6Y3KXHRsltpbngZr1+igDzvwlplpN4mi1E6f4uFxbQOiXGuSkpHuxlVBYkk46gY461sfEHSb/U9GsJ9Ng+03Gmalb6h9l3AGdY2yUBPGcHIz3FdZRQBwAN/4v8a6BqK6NqGmWGjedLLJqEYieWSRNgRFySQOST0qnpNpcaN8FNZh1K3W2lEd+zR3YKrhnkK7sc4II/OvS6r31ja6nYT2N7Ck9rOhjljccMp6igDyTwxNLY6l4Xm8UL4hRIVW00r7ZawpDHLIm0BmjYszFcqCwHvzVDxTpninWtM1qzvrPxNc6q1yxhjgkVdO8gSApgA/P8oHBy2a9K0/wBoWnXttdgXty9q262S8vZZ0gPTKKzEAgdD2rqKAOQtNPvE+K95qDW0gs30WGFZyvylxK5K59cEGuUn0DV28OarAum3HmSeMftcaBOWg89G8wf7OATmvWqKAPNtW1G7l+JAuNT8P63cabpKgacLWzMscs7j55mOcfKPlX6k1Q8WW3iPUNZ120ubfxLNDLFs0mPSpVitipj+bzmyDndnIbt0r1iigDzbR9G1ODUfhu0thMq2GlzxXbFMCBzDGAG9CSCPwrb0DT7y3+InjC8mtpI7W6Fl5ErDCy7YiGx64PBrrqKAOA+Iug3t/qWgaxaxalPDpzzLcRaZP5dyEkUDdGcjOCOQOSDWJP4fW78G+LptO0vxK1/e2It1bWHLyz4DYVFJLcZ7468V61RQBxHiLTL65k8DmC0lk+x6jFJcbV/1SiFwS3oMkCug8VaVLrnhPVtKgcJNeWkkKMegZlIGfbNa9FAHE+H9e1ubSbXSF8L39jf29mY5ZrlVW3jkRMLtYH5wWA6dB1riLbTPEOo3/AIYnvrLxTNqFrqcM2pPfSKLWMjO4xIDgjJ4YDgdete20UAcNpkd9pfxH8RpPpd89rrJt3t72FA0SBItrb2z8pyOPWuH03wlJY6L/AMI1rem+MrllZoilhdZsp0Lkhh8wVQQckHHOa9xooA8Z1VdVk8c+KodJ/tf7JIlvbXTaVbwzZAiwQxlZSsoBxlc8EcZrUt3ihufCvizw5pt7qOhWunSaa1vEmbiBQQA2wn5iChVsc/Wus1HwHompalPqDfbra4ucfaTZ3ssCz4GBvCsATjjNbmnadZ6Rp8Fhp9ulvaQLtjiQcKKAPNr/AEnV9etfG+vf2TdWn9oaR9gsbOZQJ5dqudzIM7SS2AOvFa3i7Sr+7+FFrp9rZzS3arZAwIuWG2SMtx7AH8q72igDzHxVFr9z4p1GC5i8SS6c8CDTE0WVYomYqd/nPkEHd68YqlBpDWngXwta6p4e143tnaER3mknFxaS9CpAIOGGOuV45r1uigDidH8Q6xpWneFdL8QWzXGt6o0kcuxlDRKgLb3A4JC7Q2OMmuwuraG9s57S4QPDPG0cinoykYI/I1GdNs21RdTMCm9WEwLMc5VCckD0yQPyFWqAPJ/hpp+oXHiOddTw8fhWF9GtHzkSMXJL+x8sRLXYfEPRb3X/AAXeWWnIsl2rRTxRMcCUxyK+wn324rX0bRLHQbOS2sI2VJZ3uJGdyzPI5yzEnqa0aAOKuvEfiHWdB1NNE8O6jp+oR2bNDLqCIg8/jCKMnccZO77vA9a5fQNL1O48e+G9SNn4oa3to7lbqfW5AQkjRY+RM/KMjqAAeAOleu0UAeOfZdf0v4c614Ij8NajdXxW6SG7QL9nlikZmD78/ew2NmMk/pqa1Fr6X+l29xD4i/sZdMiWNNDYJJ9p6MJmyCBjGOcdc16fRQBx3wv02+0jwNbWeo2s1tcpcXBaOY5YAysQSe+QQc9+tZGs6pcaR8Y1uYdLutQj/sELMloA0sa+ecMFJG7nAIHPOa9IrP8A7Gsh4gOubG+3m1+yb95x5e7djHTOe9AHmNz4e1u98P6pqMmlTwz6t4htb1LEgNJFAjoNzgcA4UkjtXWeN7DUP7U8OeILCylvxpF1I89pCR5jxyRlCyA4BZc5x3rsqKAPNbnSdS8b69qOpjTrvSrP+w7jTLc3yCOWWWXq2wEkKuB16k1mXj6/qng7w/oC+FNSguNNubIXkkiqIlWJ1BMZBPmA4zx0Gc167RQBwEsmqeG/iFrt8mg3+pW+rwW32aSzClVkjVlKSEkbAcg7jxXPaXoWu6Z4T8G6o+j3Et1ot9dS3enpjzTHK0ilkBxuI3Agdwa9gooA8+8XPq3jD4f6mlnoF9byJPBJBBdBUluFSRHYhM/L0IAPJxSaxNqM2veHfGVroWpzW1rHcW1zYtEFuo1kxiRYyeeV5Gc4NehUUAcT4btb/VPHOpeKrjTrnTrSSyisbaG6AWWQKxdnZQTt5OBnmrnxB0m61Lw0LnTYWl1PTLiO/s0Xq7xtkqP95dw/GuqooA8xh07xPZ/DvUtTsba4g8QavfG+uoYwpniiZwNibuN6xAAZ7570zwdpd8vxI/tT7H4iXT20h4FuNbk3yGTzUOAMkoMZ4OM4Jr1GigDnfGkFvdaAYbzRbvVrZpVMkVmcTRY5Eicg5U4+6c81wzaP4q1Lwq0jQ6hcx6brUF/ptrqbKLueCPBZHPTOS23dzwM163RQBwGb/wAYeM/D+oLouoabYaOZppZdQjETySOmwIi5JI5JJ6cVgWPh/XLHwp4f1BNKnmudI1u5u5bDhZJInkkG5QeCwDBgO9evUUAcJp6X/iX4gWXiBtJvdN07TbKWBDfII5Z5JCucJkkKoXqepPFWviVoN7r3h21GnpNJNY38N6YYJfKkkVCdyo3ZsHIPqBXY0UAec+FtLtZ9fOoDT/Fv2mC0kjS41yUlU3EZRQWJJOM5Axx1rMbQNW/4Z6tNHGm3B1NI4QbXZ+8BFwrHj2HNes0UAFeL3tr4gs/hxr3g2LwzqNzetNcslxGq+RJE8pkDK2clsHGwDOa9oooA4y1069T4pQX7WsotF8PC3M5X5RJ5wOzPrjmuelsfFGn6N4qfS7W8hkufEZmYwKvnvaEIHeHdwW4OPoa9UooA8y8EaXexfEG91NrPXksJdLSKOfWZN8rOJSSOpKj/AGT7nvW98QNMv7yy0i/060a8m0nU4b5rRCA0yKGDBc8bgGyPpXX0UAcJrmu+I9Z8L30uhaLq2nyRyRANNGiXMsZb975SEnDBehbrnisvwbpd8nxFk1Q2fiBdPbSjClxrcu+Rn80EgDJKD2OM8mvT6KAPIbPw/rGo/CnV/BL6XeWupQNK6TTKFgnJuDKoR885GB7d6vaBptvda9ptxd6b40FxZM02/V7ndb277CCclsN1IBUHrXqFIQGBBAIIwQaAPAtBuJLfw7Y3Wurro8L216b0C2tYjahhMWRg+7zTCGIbBX8cV3kU2oeEvGXiC+bRNR1Ow1lobi3uNPiErKyxhDG4yCOmQenNacfwz8NRsqCC7azV/MWwa9lNsDnI/dFtuM84xiuv6DAoA8mi8L61b6V4fknsH+03Hiv+1rm3iO8Wsb7zhiOOBtyR3NdZr1hd3HxE8IXkNtJJa2qXwnlVflj3RqFye2SDiutooA8L1nTPFOsaZNBqVl4nudZW/R5UWRV09YlnBBRQcONoHHXPJ6V7DFqdzJ4juNMbS7hLWK3WZb4keXIxOCg9x1rTooA5f4g6He+IPCFxaacEa9jliuYEdsLI0bh9pPbOCK57W73WPHVrZaJD4Z1TTVN3DNfXN+ipHCkbhyEIJ8wkqAMDHNek0UAclp1hdx/FLXL97aRbSbTrWOOYr8rMrPkA+oyK5KOx8T6Z4QmitLXUoI5PENzJeLZKBdG0aRiGi3ep29OcdK9aooA84+Hul31p4u8RX09nrMNndW9qLeXVpfMmk2+YDk5OMZHynkAj1rV8c2Oof2h4d12wsZb8aReNJPaw48x43QoWQHqy5ziuyooA4DxFrHiPV/Don0nSNY0+Fb2JbgKqLeSWuD5jRISdrZwBnnGcVQ8F6Pfp4s168az1uKzu9Ohjt5tZl3yuwZ8gnJK9funnv3r06igDx+LQ9Z1f4QQeGxpGoWuqaO0DMkpEQuTHJkiKTJB4GQ3QEir+j2Nk2qDVJ7DxYs1hazuLjX5yYINyYYcsScjuoPSvUaZNDHcQSQTIskUilHRhkMpGCDQB4Z4WmkstG8MXPiRdfXRLKSKW03WsItklb5Y2Lq3mFAX+Xco6jOa7GwuNT8F634jhl8P6nqcOpX7X9pcWMaurb1UGNySNhBXGTxiti1+HHh20nt2WK8lgtnElvaT3sskETD7pWNmK8dvSutoA8q0rwlq2kr4ChntS8ltf3d1e+T8yW/mpIwGfQFgM+tdJqdhqD/E/TdQt7Z2gi0i5i84r+7WQuhVSffFdjRQB4c2l+JtVbQ21Cz8UT6rb6tbz6gbmRRZRhZOTEinDADoQOBkmvcaKKACsi38QW+o6NfahpMUt81q80XkqNjSSxkgoN2B1GM9K07iCK6tpbedA8MqFHQ9GUjBFePeGdC0qw+GvjPULOzjhvFOp2wlQncI1LYXr2wPyoA9es5pbixt55rd7aWSNXeByC0ZIyVJHGR04qevGdSe/1PUPB+iHTDqtgdAS6+wvffZknlARcsf49o52/wC1ntTNZ03W9K+G+rWl6kmnW7avamwgjvfPe1jaWPKh/QNkgHpmgD2mivOBo9r4T+JugQ6P50cep2d0t4jzO/ntGFZXbcTl8k8+9cRo+neIvE3hg65a6IX8QTTvIutPrGxoZFkPyeXj5UAG3Z0I+tAHu19PLa2FxcQWz3U0UTOkCEBpWAyFBPAJ6c0tlPLc2NvPPbvbSyRq7wOQWjJGSpI4JHTisjxcZB4B1wucSjTJyxU9D5bdK4O1tofEOs+C9A1cvJpP/CNreLbmQqtxOBGuGwfm2qSce+aAO/0bxAdW1vXtONt5X9lXEcPmb8+bujD5xjjrjvW3XnHw8isNJ1zxxFBdbrK2v4wJZp9+wCFcguT0XkcnjGO1eib1eHejBlZcqynII9aAH0V4Lb6LbWfwSg8WxzXZ1y1YTW901w5MQFxt2KM4CYzkY5yc12kmnWfi74ma1puvhriz06ztmsrJpGWNvMBLy7QRuIIC57UAejUV4dctcS+ELnSo9Qu2sLTxfDY2N0sxMiw714V+p2lmAPPT2rbbwfpMPxRj0CJbqPR7nSTeXNkt1J5dxKsoQM/OTw3PPJAzmgDu/FXiA+GtIjvxbfaN11Db7N+3/WSBM5wemc1t14bqgEPwz1zS3vJo7LTvFC2lvI0p3QQiaMgBj025OCeldQ2l2Xhf4m+GIdBaVV1SG6GoRmdpBMiIGSVsk/Nu43d80AelUV454O0uOy+HGpeLoBcXGuW8eofZZJJXYRBXkAVVzjGRnGOSfpVfw5oeuTW/h3WdL0QW128sE91rD615pvImx5gdMc7gTgfwnGOlAHtdFcl8R9PubvwhNe2G7+0NKlTUbbaTy0R3FeOuV3DHvWb4X1CPxj47vPEVtIX0zT7KK0tCD8rSygSyn6gFF/OgDv6xNG8QHVta13Tvs3lf2VcJBv358zdGr5xjjrjvXM+JbWDX/idpPh/Vtz6SNMlu1tvMKpcTh1X5sEbtq84981x008nhvw38SP7BupiIdQt4Y5/PLvEjLGrYc5I2gkZP3ce1AHuVFeWeHfD2r6Z4p0m9sPD8eiaeEkW/b+1/tIukKZViuOWDAHd7mmeGbGPwv4msYNa04XOq37z/AGLXoLtpBeEhn2yKT8p29OCvHGKAPVqQ8AkDPtXmPgHRNJ1rw7p/izU7iVtdmuWlmvDdMjJIJSPJxnAXgLsxg/jUngXw9Y3+s+INbvPPnvLTXrtLUPM2y3Gedqg4ydxzn29KAO90e9utR0uG6vNOm06d9261mdWZMEgZKkjkDP41erwuALP8Pfh5Fc309tFNrUkcs0c5jbaWnGN3bPT8a27xP+EM8W69Z+GA8cA8NTX72gdnSO5RiI2AJOCwzx3xQB6wTgEgZ9qpaRe3OoaVDd3mnTafcODvtZWVmTBI5K8cgZ/GuQ8GeGdBttJ0PXoLiV9TubZZJLprti147x5YOCcNySQMcY9q47Q5HvvCHw60S7uJo9L1O5uheFZShl2GRkiLA5wx7Z5xigD1vQ9RvNUtJbq606SwQzMtvHKf3jxg4DsuBsJ5O3njFadeXpZQeG/Heq6JohePS5tBkuri0EjMkEwbarKCTtLDPHfGa5+30a30j4YeFvFVtNdf20stkTdPcOzFHdUMWM42bTjbjtQB7hXPeIfF9r4e1HT9Oaw1C+vL9ZGghsoldiEALE7mA71uLcQPcPbrNG00YDPGGG5QehI6jNee+Nm1NPif4ObSIrSW8+z32xLuRkjI2pnJUE9PagDrvD3iew8SRXP2RbiG4tJPKubW6iMcsLYyAy+46EZBrZrynxJpus+GPCniTX7vUY49X1q5tY7ueyBVLSAMsfyE85Ck/Mcdc8Yqxqmh6d4O8T+EpPDYeC4v777NcxLOzi6gMbM7uCTuK4B3e9AHp1FeafD7w9Y3uo6zrl4Z57y2128S1LzNsgXechVzjnJzn29Kt/EWyXU9f8G2Ek88UNxqEqSmCQozJ5LErkc4IGD7E0AegUV5n4j0zRI9U07wrYeGrjV5baye4jsWv2ht4Yi+N7Fj8zbsgcHHtWVot1pr/CGaTxHZHUUs9RngsrJ5jMzSCRkiiVwcv12g+nNAHsNFeR3uhXHg/wABaFosl09qNW1mJNWmt5CgiEuSyI2cqvyqgOen1rVGk2XhP4m+H7Hw8rW8Go29z9vs0lZkKooKSlSTg7uM980Aej0V4Nb6Jbw/BN/FiTXf9uWjST210bhyYNlwyhEGcBSAcjHOTW74g+3eIfiRe6dcaENas7TT4JLeyk1H7MimTdulx/Gcjbn+HHvQB65RXlLeGPE114O07Tr7ybiS0v5Zf7Jn1A/6VajOyJpRyxTcOvBwM11/gO90y88NBNKsJtPitriW3ls5XLmCVW+dc5IIB6YOKAN++ufsWn3N1s3+TE0m3OM4BOP0qn4c1f8At/w1purmHyPttsk/lbt2zcM4zgZ/KvNYtK07xHY+Ntb124mXUbG+ureGX7U0Zsoo1GwLg4UEcnj5s85rLMt9eaN8OdEWwN/YXGkmaSyN59mW5dETCs3cKCTt7/hQB7lRXE/D/StY0iXWIL2yXT9NeWN7Cx+2/aTb5XEgDdlJAIHbJrPl0yy8WfE7XdP18NPbabaWxsrRpWRAHDF5cAjLZAXPagD0aivMpNNsNb+INr4b1G5mvNFstFSe0gkuWZbpzIVLuwP7wqABznrmuc1lpLPwj470ayu5zpen6naR2L+aWaAs0ZeNWPOFY8DtmgD3CqGl6zZax9s+xSM/2O6e0myhXbKmNw569RzXC3GgWPhr4ieG4dN89Y9Whu4NQWSd3+07YwwZ8nls5596z/BOkeHdCsPGmsPaC2/s/Ur6Dz4CfMigVQdq89QOlAHrNYnh3xAdel1hDbeR/Z2oyWOd+7zNgU7ugxnd0ry/TEOneMfB95p/h+bRbfUpXVppNT8+S8iMTMPNTJ56Nkk4NW9K8N6Frcvjy51WZ2lttVuWQfaWQWoCgiVVBGGJ/iP93HrQB6lcXt1Dq9nZx6dLNbTq5lu1dQkBUcAg8nd2xWHpPi661fRYdQttFlmL6k9jJHFMv7pFkZDKSccDbkgc81yHh3UL/UtY+Gd3qEkjXM+lXbSsx5f5Ewx9SRg/jWZbMy+CNC2sy58aYODjI+0yUAe1O2xGbGcDOKyPCevf8JP4WsNaNv8AZvtcZfyt+7byR1wM9PSuHtdK07xR4j8ZXfiCaUT6ZdC3tT9paL7HCIgwkTBG0sSTu749KydGmsJ/hp4J0m40u61e7vUlNvYR3XkRS7CxZpWyAQAc4OeT0oA9nrE1XxAdM8R6DpP2bzP7VeZPN348ry49/THOenavJU1HUdJ8EeM7KHzdKht9Vt7dYo7vzvsMUvliQJJ2HzH/AHc+1dFd+HNE8OfE3wVFpG6HzjdM9v8AaGdWAhOJNpJ5PQt3oA9ToqOK4gnMghmjkMT7JAjA7G9DjofavMPGWnR2PiPUPEutaeNb0KJIlPlXbJNpe37xVAQGBJDHBDfhQB6nRXj+rreeJviLrVrNoP8AblpZW9v9kt5NS+yrEsibjIFx8zE8bu2MV3vgW01ix8JWlprj7r2FnTJm80iPcdgZ/wCIhcDPtQBraxf/ANlaJf6j5fm/ZLaSfy843bVLYz2zik0bUP7W0Ow1LyvK+128c/l7s7dyg4z3xmvJf7K07X/BnjLxFrNxMNYhuL6JZjcshtRHlUiUZwFIxkY+bdSXz32oz+CdD/sz+09PbQVuTYNe/ZUnlCovzH+LaDnb757UAem+LvEP/CLeHpNVFt9p2TQxeXv2Z3yKmc4PTdn8K3K8S8Q6Zq+k/C7xBbanD/Z1gdRtXsbcXn2hrSMyx7hv7AHLDPTNdFPpVh4Y+IfhP+wpZQ2qfaEvlNw0v2qNY9wlfJOSGx83vQB6XRXgWk6d4i8T+G5dbttDMniCW4kdNZbWPLe3kWQgJ5ePlVQNuzoR9a9i8TNKPA2sNLgTDTZi208bvKOcfjQBt0V41e6d/wAIx8GI9c0uS5/tfUbKzS7vnuW37JCmeScIAG2ggfKK0/D2gatpPirT76y0GPQtLEMq34/tX7SLkbMo23HLBhnd1wTQB6lVGzvbq41G/tptOmt4bdkENw7qVuARklQORg8c14joOgR+LLTw5O+g39xqj3outS1e5Y+RcQbmJwxbkMNoCgAjHausksr3VtW+JOnWWpfYbqeSzjhneQqFJhXjI5G7pxzzQB6Rf30Gmadc390xW3tommlYAkhVGScDrwKWzu4b+xt7y3YtBcRLLGxGMqwyDj6GvJpLLRD4P8X6DceGhpepWdh9qntxcNNC5CP5cqNn1B6gH1zTdY0Ow074XeFYdLRrA6hqGmtNLbOVcs4ALg9jzQB7FRXm/iTSPD+jpo/hmz0K61GW7lmng05b5o4pCqje8rs3IGRwc8npXIvNdwfCvx7ZeW9kljqKR29st154tQTEdiv3AJPHbpQB7tWHo3iE6truvaZ9m8r+yp44fM3583dGHzjHGM471J4e8Oad4dtZEsEl8y4IkuJZZWkeZ8cuxYnk98YrgJdQsNLuviXc6mbr7L9stUZbRykrloo1CqwIxkkDOR1oA9XqjfXt1a3djFBp011HcSlJZUdQLdcZ3NnqO3FeZ+FrefR/ilaWUehf2Db3emTSS2i6h9oEpV02uwHCsMkZ788103jVmXxR4JAYgHVXBAPX9y9AHaVz3ijxJPocmmWdjYC+1HU5zDbwvN5SfKpZmZsHAAHoa4Gy8Mafr0Xj691BrmWa11S6W0/0hwtsyxqwdADgNk9fYVXutMsfE7fDC/1m1S7utQh2XUkhOZQLdmGcf7XNAHsVq80lpC9zCIZ2QGSIPuCNjkZ74Pepa8y0/Q9M8WeMvFFvr6tPHpUkNtZWbTMqW8PlA71AI5Yk/N14rm/Nu9X8GeF7OfUbt4D4paygvEmIlltlMqqd46nGRn2oA9xorzDX/C2l2/i/wT4ftEntdLcag0kENw43jYjFS2c7SeozVHSfBuk3ut+M9IuDdvpmmyR/YbQ3T+XbNJCHZkGeuenp2oA9dorx+21KHXfBfgqy1LTbvXtVvLR5Y7X7WYIpAgAZ5WJw2BjGc8k8VlW2pX9l4G1vThJLptoviWLT3WO7802Ns5j3qsvoMkZ7bjQB7Tqt3cWOl3F1a2Ml9PGuUtomCtIfQE8UXl81lpEt8bS4leOLzPs0Kb5GOPuADqc8VwHjPw3ovhr4f+Jjowe1eXTyXt1uGKkA8PtJOD2Ld+9LNZW3if4iroutl5dOtNGhuLayMhVJnZiGkIBG4rgDnpmgD0DTpbufTbea/tktbt0DSwJJ5gjY/wAO7Azj1xVqvENWkmtPA3jrSLO7nbTNO1W1hsZfNLtDukhLxqx5wjHjPTNdQ+iWnhT4k+Fl0lriManHdw33mTs/2nZGHV33E5bOefegD0esQeIP+K4Phv7N000X/n7/AFkKbduPbOc1g/EZ2nn8M6RNNJDpupamsN4ySFPMUIzCMsOQGYAe+KwY7C08L/ErW49ABzB4YaaO28wyCKQSkhVBJ2g4B2++e9AHq9FeG+HdH1/UNH0LXNN0UR6pK8NzNrb6zva4UkGQPHjoQSNn8P1Fe5UAFYS+DfDyXepXKaZEsupRvHdlWYCVX+9kZwCe5ABrdooAxtR8J6Fq2nWlhfabFLb2ahbYZIaEAYG1gdw4AHBqOLwb4eh0dtJj0yMWTzLO8e5iWkUghi2ck5UdT2rdooApz6VY3Op2mpTW6veWausEpJygcANjtyAKxrrwB4VvNRkv59GgaeV/MkwzKkjerIDtY+5FbWn6nZarA89jcJPEkrwsy9A6nDD8CKt0AQ3dpBf2U9ndRiS3njaKWM9GVhgj8jWVqPhDQNV06ysL3TY5bexULajcytCAAAFYEMOAB15rbooA5LVvA9lJ4cv9H0K3tdNj1IxxXbopH7oYVto6btgIHucmuotraK0tIbWBAkMMYjRfRQMAflUtFAGR/wAIvon/AAjf/CPf2fH/AGTjH2bc23G7d1zn73PWma14S0HxDLDLqmnRzzQqVjlDMjqp/h3KQce2cVtUUAZR8NaMdLtNMGnQpZWcqTW8KDasbocqwx3B59+9WTpVi2srq5t1OoJAbZZ8nIjLbivp1GauUUAY0vhTQp7S6tJtNikt7q7+2zxsSVkmyDuPPqBx09qbo3hDQPD93NdaXpkNtPKu1pASxC5ztGSdq+wwK26KAKWmaTYaPYCx0+2WC1DOwjBJGWYs3X1JNZFr4A8LWWopf22jwxTxyebHtZtiPnO5UztBz6CukooAiujKLOYwRpLMI28uNzhWbHAJ7Amue8A+GT4S8HWWlyiIXQ3S3Plfd8xzlgPYdB7AV01FAGVrfhrR/EcUKatYpc+Q26JiSrxk9drKQRnvg80lj4Y0PTLa6trPS7aG3u1CzwqnySALtGV6dOPfvV06hZjUl043UIvWiMwt943mMHG7b1xnjNN1LU7LR7F73ULhLe2RlVpH6AsQo/MkD8aAMnSvA/hrRL1bzT9KjhnVSqMXdwgIwQoYkKMccYp2leCfDeiaj9v07SYILoAqrgsfLB6hASQgP+yBW/VDV9Z03QbA3uqXkVrbBgu+Q9WPQAdSfYUAZy+B/DKa1/a66Pbi+Mvnbxnb5n9/Znbu/wBrGa1LDSrHS1uRZW6wi5ne5mwSd8j/AHm59als7y31CyhvLSVZbeZA8ci9GB6Gp6AOJ8QeBba7tvDem6dY2w0rT9R8+e2lOVMRV9wAOc5Z+lb+i+F9E8OpOmlafHb/AGggzNku0mOBlmJJA9M1cv8AVLLS1t2vrlIBcTpbxF/45G+6o9zVugDn9M8EeGtG1H+0NP0iCC5G7ay5Ij3fe2KThM99oFTN4R0B/D0egvpcDaXEcx27ZIQ5LZBzkHJPIOea2qKAMjSvC2iaJaXFtp2nxwx3P+vOSzS8Y+ZmJY8eppzeG9HfRLbRmsUOnWxjMMG5sLsIKc5zwQK1aqTapZW+pWunTXCJeXau0EJ6yBACxH0yKAGQ6Pp9vrF1q0NqiX90iRzzAnLqv3Qe3FLPpNhdarZ6nNbK97Zq628pJzGHADY7cgCpLLULPUoDPY3UNzEHaMvE4YBlOCMjuDVmgCK6tYL21ltbqFJreVSkkcihlZT1BBrG0bwX4d8P3ZutL0uKC427BIWZyi/3VLE7R7DAreooAp6dpVjpKTpY26wrcTvcShSTukc5ZufU0XelWV/d2V1dW6yT2Uhlt3JP7tipUkfgSOauUUAY2teFND8RTQTarp8dxLACI5NzKwB6rlSCQfQ8VVn8B+GLnSotLfSYhZRXBuo4Y3dAkpzlhtIx1PTiujqpFqdlNqdxpsdwjXlvGkksI6orZ2k/XBoAzrbwfoFro1xpCackmn3LbpYJ5HlDHj++Sewp+ieE9D8OPLJpWnxwSyqFeUszuVHQbmJOPbOK2aKAMgeF9FHhxvD4sI/7JcMGttzbSGYsec5+8SetN1nwnoXiAwNqenRzyQDbFIGZHQegZSDj2zWzRQBz8/gjw1caTb6ZJpMP2S2dnhVWZWjZvvEMCGBPfnnvWrpml2OjafHYabax21rFnZHGMAZ5J9yT3q3RQBg3vgrw3qOrtqt3pFvNeNje7A4fHQsudrEdiQcVJdeEtBvdEtdHudMhksLQKLeMk5iwMDa2dwOO4Oa2qKAMzRfD2leHoJIdKs1t1lbfIdzMznGMlmJJ/E1X1rwjoPiKeKfVdNiuJol2pLuZG2/3SVIJX2PFbdFAGHqXg7w9q1nZ2t5pUDQ2S7bYR5jMIxjCspBAx2Bp/wDwimhDQP7DXTIF0wsHNuoIBYMGBJByTkA5zzWzRQBTudLsrvUbLUJ7dXurLf8AZ5CTmPeNrY+o9apJ4U0KPWLrVl02EXl0hSd+cSAjB3LnaSRwTjNbNFAHN6f4B8LaVdw3Vlo8MVxA/mQybmYxnBGFyTgYJ+Uce1NvPh74T1C4luLrRYJJppmmlfcwMjNgndg/MOB8p49q6aigCi+j6dJqFlftaR/abFHjtnGR5SsAGAA4wQB+VVR4V0RbOC0Gnx/Z4Lz7dEm5sLPuLb+vXJJ9K2KKAMLUvBvh3V9VXU7/AEmCe8UBTI2fnA6BwDhwP9oGkuvBnh280i10qfS4ms7Ri1ugZlMROSSrA7h1PQ1vVjXHizQLXV5NKn1W2jvo4zLJEzfcULuJY9F+UE8npQAWXhLQNOsLyxtdKto7S9AFzDtysvG3kH2/Oq+m+B/DWjzwXGn6TDFcW7F4ZdzM6kqVxuJJxgkY6DPArct7iG7torm2lSaCVA8ciNlXUjIIPcVLQBz/AIS8Ov4fsLs3MqTahf3cl7eSxghDI56KD/CAAB9M96W/8EeGtU1X+073SIJrslWZ2Jw5X7pZQdrEYHUHpW/VTTdTstYsUvdPuEuLZ2ZVkToSrFT+RBFAGfrXhHQfENxFcanp0c1xEuxJlZo3C/3dykHHtnFaOnadZ6TYRWNhbpb2sQwkaDgc5P6mrVFAHPXfgXwxf6pLqV1o1tLdTf61mzhzjGWXO0tjuRn3qxqHhPQtU0y006902KW1s1C2ykkNCAMDawO4cADg1s0UAYUXgzw7Do0ukJpcP2GWVZpYmLN5jqQQWJOWPyjqe1O0jwf4f0G+lvdM0uG3uZF2GRckhc52rknauewwK26KAObu/AHha+1GS/uNGgaeVt8uGZVkb1ZAQrH3IreurWC9s5rS4jElvPG0UiHoykYI/I1NRQBUXS7FdITSfssTaekItxbuu5PLA2hSD1GOOaxbLwLoOjtLPo9ilnemJ44Z97yeTuGPlDEhR7DFdLRQB41Z/DLVksrLTk0XSNOvLeSNpPEFteSGd9rAs4TaDubngnAya9PuPDGi3Y1IXGnQyjUyhvA+SJSgAUn0IAGMY6VrUUAY+k+FtD0O1ubbT9Oiiiuv+PjcS7S8YwzMSWGOME1XtfBHhyysUsrfS0S2juUu0j8xyFlT7rDJ4x2HT2roKKAMrW/DekeI4YYtWskuRC2+JizKyHvtZSCPwNVo/BfhyLSLzSotJgSwvWVriBchZCuME89flH5VvUUAAGBgdBWVJ4b0aZdTWXT4ZF1Qg3quCwmIUKMg+gA6Vq0UAYOk+C/DuhXkd3pumRwXMaMizb2Z9rYyCWJJHyjr07VpXml2V/c2dxdW6yzWUpmt2JP7tyCuRj2J61cooAoW+iabaRX8cFqqJqErzXQBP712ADE89wB0qKPw5pESaUkdkirpIxYjc37n5dvHPPy8c5rUooAwdZ8GeHfEF4t3qelxT3Kps80MyMy/3WKkbh7HIq5L4f0ma30+B7CEQ6dKs1pGg2rC6ghSAPQE1pUUAU7jSrG61Kz1Ge3V7uyEgt5STmPeAGx25AHWkg0iwtbu/uobZUn1AqbpwT+9KrtGfw44q7RQBz9z4I8N3elWWmTaVE1pY8Wqh2VofXawO4Z7881Pa+EvD9lpl5plvpNsljeHdcW+zKSHaFyQfZR+WetbNFAHO2vgTwxZ6feWMGkxLb3sYiuAXZmkQdFLE7sDsAas6x4T0LX0t11PTo5zbDELhmR4x6BlIYD2zWzRQBjnwrof9gf2ENMgXS8qxtlBVSQwYE45J3AHPerlzpdld6jZahPbq91YlzbSEnMe9drY+o45q5RQBR1bR9O13T3sNUtI7q1cgmOQdx0IPUEeo5qppPhTQtCuBcaZpsVvP5RiMqklmUkMdxJJY5A5OTxWzRQBzUfgDwrDqQv4tGgSdZfOUKzBA+c7gmdoOec4rpaKKAGSyLDC8rnCIpZj7CuJ8Map4u8R21j4hWfTIdKvJNy6c8DeYtvkgN5obl8c4247V3DKroyMAVYYIPcVxmg+Edc8PfZtNtPEaf2Bay74rc2YM/l7t3lGQtjbz125xxmgDn/Enj3UvDuoySyeIvD07xXSRtosKM0xjZwv+s3ZDgHJG3HBrfvNZ8Q6v4y1HRPD9xYWcOkQwvcy3UDSmaSQFlQAMNq7RyeTzWPP8L9TbRbrQYNfto9IkujdIDYAzs3mCTbJJu+YA98A9OcV0Go+FNUXxRda5oGtRafJfwxw3sc1r5yvsyEkX5hhgCRzke1AHMeD7/UbD4bXd0t9pWmXA1e6+0XF6xMMIMzbtvI3HPABIzWz4C8X3Gv6trOlz6lYaslgsMkWoWUZjWRZN3ysuTggr2PeoP8AhWk0fhq006LWA95Zaq+pQXFzbiRXZmY4kTIDfePIxzyMVseG/C1/pPiHVNa1LVYr251CGGN1itvJSMx7+FGTxhh154PNAD5tevLD4iQaNdmIabf2DTWj7cMJoz+8Unv8pDfga5Cf4lahD4esb6W4sLP+3NSnj0+5ukIitrRM4dwDlmOOBxncK63x14Rl8XaXbxWmoHTr62mMkN2qbioZSjrjI6qx/Sk1bwVFdaXosGl3f9n3eiEGwn8oSKoCbCrKcZVl68g0ActZfES8fS/FMMep6dq1xpWnG9ttRs4isb8N8rpk4YFR0PINX4PEfiuwm8Nahq76bJYa3PHbPaW8TB7dpELIwkJ+bpyMDrxWxN4c17U/Dus6bq+s2cj6hatbxfZrLykh3KRuOXJbqOMjpU2o+FHvtO8N2ovFQ6Pd29yzeXnzREhXA54zn3oA5rwna6//AMLP8W+drUEkEM9sbiL7JjzQYMoFO/5MDAPBzjPFVb3x7qWk69YxT+IvD1+89/HaT6TZofMhV227hJuJLLxkFR+FdZH4Xv7XxnqOsWepxpY6oI/ttq8GXLRoUUo4YbcjGcg9K523+GOqQaXp+j/2/bf2Vp17HdW6JYBZZNkm/Ej7uT15AGTyaAOy8V68vhjwtqOstD5xtYtyx5xvYkBR+JIrFS/8UeH9Ku9a8RXem3dlDZSXMsNrA0Twuo3BFJYhweRk4PSuh8QaJbeI9AvdHvCwgu4jGzJ1X0I9wcH8Kw7PwxrlzZzad4j1+LUNOe0e0MMFmIWlDDG923H5gP7uBzmgDDuvEfjHRNAsvFeqTaZLpszwtdafDAyvbxSsoBWQsdzLuGQQAeauPq3i7V/GHiLRtIutNs7bTfIMc88DSMS8e7ZtDDgnJLdugBpY/Ams3VjZaLrHiKO80KzeNlhSz8uadYyCiSPuIIGBnABOK6HSfD76b4m1/VzciRdVaBliCYMflpt655z17UAN8Ga/L4m8JWGrTwrDPMrCWNDlQ6sVbHtlTWVp3ibUbrR/GVzIYfM0m8uobXCYG2OMMu7nk5Na/hDw+3hfwzbaQ9yLhoWkYyhNoO52fpk9N2KwLzwJqxuNdg0zxCtlpetO81xCbUPKkjrtbY5bADYGcg47YoApt4r8S3Z8FWunNYLc65pzz3Mk8Z2xsI0beoB5xuPy98jkVu+Eta1W61PXNE1p7ea90maNftNvGY1mjkTepKknBHIPNMsfBklnfeFLk3qMNCsZLRlEWPOLIi7hz8uNucc9a0dL0BtO8Ua9rBuBIuqGDbEEwY/LTb1zznr2oAyr/WvsPxLFtLBbfZo9Blu3m8kecNsoBUP1245x61w/ijUfFeu/DNNevZtNXS9QltpRZRxMJIIzMhQiTd87HjIIA5OOlekXXhgXfjQa7LOrQHS3097Ypy25wxbdn0GMYrl5fhvrUvhtPDbeKFOj2zobVPsY80qrhlSR93zKuOMAE4GaAPSa84+JVtqs/iPwcLLUYLdG1ILGslr5uyURyEOfmGRjjHHPOa6KwuNYvPHuptvlj0KztY7dIpIwBNck72dTjJAUqvpnPpVjX/D7a1qWhXa3IiGl3v2oqUz5g2Mu3rx97rQBxetePbm38SXegr4j0XR20yGITXN9AWN3My7iEQMAqDjJyTk1YtfH2q+INI8NQaTFaW2q6086vNIpkhgWDIkdRkFsnG0E9+a2tQ8KapD4jvNa8ParbWcuoJGt5Bd2nnxuyDarrhlKtjjrg0uq+EtS1CDRrxNaSPX9Kd3ivfso8uQOMOjRg/dIwODnjNAHO+Ol8RW/h3REv5NPvNRj8RWn2WSNWijl67d65O05yDgnit3SdY8QWfjWTw5rc9leGewN9bT28JhCFXCtGwLNkcgg0+98J6tq2n6emqa5HcXVtq0Ool0tQkYWP/lki5yB7kk81d1Hwt/aPixdYe6KRf2XNp7RKuG/eMp3Bs8Yx6UAcenj3UbLxPpNlP4i8P6q19erZ3Gn2EZD227OGV9x3AEAHIHWvU685svhxq0EGhWU+u2jafol5FcW8UOniNpQmf8AWNuOWwTyAMk5Oa6Hwvcaxf6lrt9fPKumvd+Vp0EsYRljjG1n6ZwzZIz2Ge9AFPVtY1zUPGD+G9AuLSyNraLd3V5cwGb77EIioGHXBJJNZt5/aH/CyvAw1X7P9uFpfiY22fLJ2pyueQCOcGtnWfC+oy+JV8Q6DqsVhfvbC1uEuLfzopowxZTgMpDAk85pV8K3j6/4e1a81b7VPpcNzHM7QBDO0oHIAOFAx05oA5FfH0uj+B4bpY9MtLq91mexikaPyreECR8yuF64C5PqTVrQ/H11cXWs6b/a+m601tpj39vf2URRVK5BjkTcRnOCMHkVpp8OyvhqLT11Mx31rqcmpWl4kIIjkZ2YAoT8wwxBGea07bRfEE9jqNvrGsWMwurV4I0tbHylQsCN5JdievTIFAHLWnivxfbaL4b8SanJpj6fqc1tBNZwwsHRZsASiTd1yQSuMAHGeM1Jo9tr5+MfiEf21B5EcNrJLGbP78RL7UB3/KQM5bnPpW7ceCpJ/BehaB9uUNpclo7TeXxJ5JUnAzxnHrxViTwzfw+OJPEGnanFDDdxRQ31tLb7y6xk7djbhtJDEHINAHAXXxauntr7WLbXNDgitZpFh0WZGM9xGjEEl93yu2CQApHSvYLS4W7s4LlAQs0ayKG6gEZ5rjbTwbr2iGez0HX7S30qWZ5kiudP82S33sWZUbeARkkjcDjNaVpPrN14+ukEkqaJY2KQurxACe5Y7tynGcKmAcHGWx2oAj8Wa5qdrqui6Dopt49R1V5MXFwhdIIo13O20EbjyABmuTsNV1Dw54w8banrxt7maw0m2lL2qlBOq+YV+Uk7WPQjJFdn4n8NXGs3Omalpt+LDVdMkZ7eZ4vMRlddro65GQRjoQRis2z8BzSXuvXGu6qdR/tuyS1uFSERCPbvHyYJwMMMZycgkk5oA5rSPiVeNqmim413Q9SXVLhIJtOsY2EtmXHykNuO8KcBsgdeK2dN8UaxqPje70241XTtN+zXjRR6VcWzedcwDpKkhYAluo2ggd61NF8P+J9Mls7efxDZ3GnWuFAGnBZ5UAwFZ9+PTkLniq9/4N1jWNXsn1TXYLjTbK+W+gRbILcAq2VQyBsbR0yFBIHNAEGn6x4s8TXF/qOjXGmW2m2l7JaQ2tzAzNciNtrs0gb5MnOMA9Oa09F1+9v/ABB4tspjH5OlzxJbbVwcNCHOfXk1Th8Ha3pd9fJoniKOy0q+umu5IXsxJLC7nLiNy2ACfVTjPFOvPB2qr4g1W/0bXlsLfVwn22NrUSurKu3dExICkrxyCO9AHOP8S72Pwd4TmuLzTrHUdcSR5b26Q+RbonLNtB5JyoAzjJqSz+Il7L4e8WiK/wBP1O60az+022oWkZEUwZWIDJk4ZSuCAe4rWh+Hk1p4c8O2tnqyw6toIcW14bcOjhwQ6uhPKkY6HIxmtC48N65qvhfWtK1fWLSWXULdoImtrLykgyCCcFiW6jqe1AGTF4i8U6bf+G7rWZNNksdcmW2NrbRMGtndCyEOT8/TB4HtVLwlHrlv4+8YT3etwSWtrcxNdRizx5o8gFdp3/JgYzwc4966rVfCr6lD4ajF2sf9jXkVyxMefN2Iy4HPGc571Hb+Fr2y8YalqttqMP8AZuqlGvLOW33OWWPYNr7hgEYyCD0oA5n/AISjxlP4PfxxA+mJpqxtdLpTwsXa3BPJm3cPtGfu4rt9Qvb288IzX+hFBeS2fn2nmrkFiu5QR79PxrlV+HurporeGE8SKPDLZTyfsv8ApIhJyYvN3Yx2ztziu/hhjt4I4YlCRxqERR2AGAKAOGi8bXOsQ+DF0gRLPrR8+63ruEUMa5mHXg7sKD61pePNd1TQdN0yTSEt5Lu71OCzCXGdjCQkYJHTnHNc78OdCij8W+KNWhaRrCG8kstOVxgRqX8ybZ/smQ4B/wBmuv8AE/h9/EMWlolyIPsOpQXxJTdvEZzt6jGfWgDl11Txwvi6Twq19pDzSWQv11EWrDyU3lCnlbvmO7GCWHGc0yPx7q48KxA21pJ4gk1ltEQ/MsDTBiPMI67dozjNdZ/wj7f8J3/wkn2kbP7M+weRs5z5u/duz+GMVhP8PDJo15af2m0V42syaxZ3UcQzbylsqCpPzADIPTOaAH2mseIdE8YaZoev3VlqEGrRSm2uba3MDRyRgMyMu5gVIPB9q5m28aeM/wDhAl8a3EmlmytnPm2awNvuIhKUZt+75GHYYPTnriux0zwvqb+IbbXfEWrQ393ZxPFZxW1t5MUW/Ad8FmJYgAdcAdqpDwBKPhXN4M/tFPMkR1+1eUcDdKX+7n3x1oAy9Qt9fm+NNsLTWoIIn0hpUR7PeFiEqbkPzjLE87u3TFaK6v4o8S6vrUXh+707T7LSrk2atc27TNczKoLZww2KMgcZNaWreGNQn8T6fr2lanDa3NvbGzmSe381ZIiwY4ww2tkdeaqzeEdbsNX1O78N69BYW+qS+fcwXFn53ly4AMkZ3DBIA4ORkUAang7xDJ4p8LW+pyQrb3LF4powcqkqMUbHqMjI9q8/8OR63Yx/EK9udRsruO2uLkzQvYgCaVbdSGJ3HC4wNvPfnmvSvDmg2vhnQbXSbRpHjgBzJIctIzEszH3JJP41lW/hCSCw8WW321SdemmlVvL/ANTviEeDz82MZ7UAYP8AwkniB5PBemaOunQNq2lNPM0kJEcJVIzuRVI4G4gL05HPFaOj+Iddkt/EumX02mHVdGkRVvJA0Vu6OgdXcZJXAzkA9vxq3ZeDpLTVPC94b1WGiae9ky+Xjziyou4c8fc6c9aq6t8Phq6+K0m1AxprrW7psjyYTCoAzk4cEryOOOKAM7wr42ur7xomhSa9pOuwT2j3AuLCIxmB0KgqRuYEENwevFaPwn/5J5Z/9fF1/wCj5KfpXhHV4fFNlr2q6xa3ElrayWq29rZeTGqsVOR8xOfl5zx0xin6T4S1XRPDOmaTp+uLA9rftcXEotgRPE0jO0WCflzuAz7UAdhRRRQAUUUUAFFFFABRRRQAUUUUAFFFFABRRRQAUUUUAFFFFABRRRQAUUUUAFFFFABRRRQAUUUUAFFFFABRRRQAUUUUAFFFFABRRRQAUUUUAFFFFABRRRQAUUUUAFFFFABRRRQAUUUUAFFFFABRRRQAUUUUAFFFFABRRRQAUUUUAFFFFABRRRQAUUUUAFFFFABRRRQAUUUUAFFFFABRRRQAUUUUAFFFFABRRRQAUUUUAFFFFABRRRQAUUUUAFFFFABRRRQAUUUUAFFFFABRRRQAUUUUAFFFFABRRRQAUUUUAFFFFABRRRQAUUUUAFFFFABRRRQAUUUUAFFFFABRRRQAUUUUAFFFFABRRRQAUUUUAFFFY/irWx4d8L6hqu3fJBEfJT+/IflRfxYgfjQBsUhIUEkgAdSa4H4fz6zpWqaj4W8Q6hPfXsUUV/BcTtlpI5FxIoPosgYfQisfxl4zvdb8BeJJbDw9PNofkz2q6iLhdzFcqXEXUxhgRnOeOlAHq9FcbJ4puLH+ydD0jSm1TVJNPS6eMziGOGIALuZyD1PAAB6GoLn4kRW3hptUbSLo3UGpLpl1YK6mSKYsAQpHD9QRjGcjpQB3NFcKPHesrrR0KbwjOmsSwi5toVvEaNos4LPJj5MHAIw3JGM1oab4wudV8O3F9aaFcyalbXbWU+nCVMxzKcNlzgbRkHd6dqAOpDKWKhgSOoz0pa878Pa9b+H38SQarpFxZalbRNq94/2lbprmNt3IcBfu7doXAwAPrXR+GNe1XXYVurzQ0sbOaFZreZL1J94PQEADacc9x70AdDRSMQqlj0Aya5Pwt4vv/FAivodDEGizhzFeNeoz/KcfPGBlc46ZJHfFAHW0VwP/AAsmb+z/AO3h4fnPhgS+X/aX2hd+zfs80Q4zsz3znHOK6nxDr1p4b0C61i7DvDAoISMZaRiQFVfckgfjQBqFgCASAT0GetLXluo6rq+ofETwOmraDJpbie5kjP2lZkcGA8EgDDDuMY9Ca2Lr4hXSxahqVh4dmvdC06V4rm+FyiOfLOJGjjIy6rzzkZwcZoA7ncN23I3YzjPNLXmd/rFzH8WoLnR9Nk1SS88PKYVWQRIFMxbe7n7q49ickcVsRfEW1Hh28v7vTriDULO8Gny6arB3a5JAVFbgENkENxxmgDtKK5fSfFV5Pr66JrejHS76aBri223KzpMikBhuAGGGRkY/Gn694oudP1m10TSdJOp6pPA9yYmuBCkcSkKWZyD1JAAA/KgDpaK4Kx+It1P4cttWvNB+ymfVk0wQC7DsrGTy2YnaOjA8d/Wuim8QiHxnb+HvspYzWEl554fptdV27cd92c5oA26K4xvGuqWd/pw1fwxNYafqF0trDO12jyJI2dm+NR8oOOzHHenW/jS/v/FmoaHp/h2a4XTrpIbq7a5VI0RlU7hkZZuT8o7DryBQB2BIUEkgAdSaXqMivK/GHjO91nwP4mfT/D88+iLBcWn9oC4UMzKCrOIupjDZyc54JxXUJqutWWjaRb6R4fbUmaxjd5XulgjT5QNuSCSx9MY96AOsorhrj4lQQ+ENP19NJupGur8WD2asPNjl3MpA7Mdy4HTOe1dRpF7qF3p32jVtNGmXAY5g+0LMAo6HcAB+FAGjSbgWKgjI6jPSuCHxJm+wLrp8Pzjww0ojGpG4XftL7BL5OM7M985xzipvD3/JWvGf/XtYf+gPQB3FFclqvjG8tfFr+G9N0GXUL0WaXauLhYowpZlO9iDtHHGMk56d6ozfEuK38KzavLpFyLq01FdOvLAOGkilLAHaRw/BBHTOe1AHd0VyFz4y1GwsbNL3w7JHrOoXLQ2Wmrdo5kAXcXZ+iADOeuMd6Lfx5Db2+tf2/YPpd3o8K3FxCJRMrxMDtaNgBuyQRjAOaAOvorj4fEWrX+nXLat4WuLKxmsZJkkW8VztC52PtAMbEHjGfrmqWn+L4bHwv4WtNH0i4ur7VLQSWli1zny41UFmklbsMgZwSSelAHe0Vznh3xRJq+pX+k6hpr6bq1iEeW3MolV43ztdHAG4cEdBg0uua5rlhdSR6X4ZfUYYYhJJO94kCnr8qZBLNx3wOetAHQlgCASAT0GetLXmt/rVv4i8RfDXWLRXSC8luZVV/vLm3bIPuDxXUeLfFX/CLQ6a406e/e+vFtEigYB9zKxGM8HlcdR1znigDoqK4SPx3rUmr3Ghf8IhN/bcUaziEXqeQYTnDmXHByMY2nn25qwvxEtH8K2WrR6ddPe3l0bGHTQV8w3IYqULdABtJLdMDNAHZ0VyuleLbuXX/wCw9c0ZtL1CS3a5t9twJ4p0UgMAwAwwyMgisCL4rXLeHrXxHL4VvE0SSQRS3C3Cs6sW2ApHjLruwM5HJ4FAHpNFcnpnjG6l8RLo+s6HJpMk9q13au9wsodFIDBtv3WGQSOR71nL8SJjYxa4/h6dPDMswjXUTcLvCs+xZTDjIQsRznODnFAHe0Vx174z1EeKdR8P6R4ck1C6soopmkN0sUW1wTyxBweMAYOeemKwvEnjvVrzwdoeteHbMxrd6hFBcCWdUeNxKEMJBUghiGBYdBzQB6dRXKX/AItv7KXTdMTQ/tHiC9jeY2Md0PLhjU4LvKV6cgD5cknFWvDfihtbu9Q0690+TTtV05kFxavIJBtcZV0cfeU4PYdKAOhpAwYZUgj1BrlNQ8X3q+IbvR9E0GXVZLCNJL1xcLCI94yqLu+85Azjge9cv4I8Tpofw006YWU9ze3+p3MFpZKQrySNPIcEnhQACST0xQB6pSbhu25G7GcZ5rnNC8UXGoazc6Jq2lHTNUggW5EQnE0csLEruVwB0IwQQKy2cp8bJH2s23w3navU/wCkdB70AdxRXGx+NNUttW0u21rwzLp1rqk32e2n+1pK6yFSyrIij5cgHoWxWt4h8Rjw/daOs1qZLXULxbN5w+PIZgdhIxyCRjqMZoA3KK5TUvHVlpWq61b3ED/Y9HsY7m7uVbOHcnZEFxyxAznPcVHYeMdQ/tfTrHXfD8mlLqe4Wcv2pZsuF3bJAANjbQT3HGM0AdfRXnZ+Jl82m6jqsHhW5l03TLiWG8uPtSKQsblS0akZfAGT0x0ycUmv+J/EkXxA0C10axiudPvLOaZI2uxGLnCodxyhK7c8dc57UAei0VyuveJtc0lruW18LSXdjZx+bNcNeJFuAXc3lqQS2B67ckcVv6XqEGr6TZ6lbbvs93Ak8e4YO1lBGfwNAFosFxkgZOBk9aWuJ+If/H34N/7GK3/9AkqXX/GOr6Ct7fP4Wmk0eyb99dG7RZGQdXSPnco9yCcdKAOxoqle6rZ6fos+rXMmyzhgNw74/gAz0+lYWieJ9Z1N7ea68K3NnYXUJmgnFykjAY3ASIMFCw6cnng4oA6qiuNTxnqltq2mW2teGZdOtdTn+z20/wBsSV1kKllWRFHy5CnoWxVefx7qb6hrlppfhae+/seYpcS/aljRlCBvlyOX5Py+w55FAHdUV5r4i8Z61PL4NvfDdosthqsyviS5ERmzGx8pgVO3GM7h3GK2I9UtIPH0zX1nJbX0WgrdXM32tnijTzDuQJgAkEE78ZIoA7EsFGWIA9zS15B4v8V6l4g8J6fct4cuLTSr3ULN7W7a4RmK+cpUyRjlAw6cnqM4ruNe8Ra5pc10bDwvJfWdpH5ktw94kIcYyRGpBLED12jPFAHT0gYEkAjI6jPSuRu/HcbWmgnRtNl1G+1uHz7W2MgiCxhQzNIxztAyB0OT0rM8C3lzf+PvGk95YS2Fx/oSyW8jhipEbDIYcFT1B9DQB6FRXP2fimKbxDrmkXdv9lfS0jn8xnyJoXUneOOMEEEc9Kxrb4hT3+m6M1hoUk2qavHJcW9k1wECW6nAlkkI+UEFSAAT82KAO5orh7n4jLZeGdX1G70iaK/0i4jt7zT/ADQxUuy7SrgYYFXBHAz04q5p/jC9k8SWekavoE2mHUIZJbGRrhZDJsALK4H3GAIOMn60AdWSFBJIAHUmlryjxl4zvdb8BeJJbDw9PLofkz2q6gLhdzFcqXEXXywwIznPGcVv2N7YQ+MtHglt5RdDw8ZvtX2hhGsasgKmPoTk53deMUAduWCjLEAepNLXj3jjxff+IfhzdXUXh24i0W8lhFtftOpYgTph3j6qrY4OT1GQM13+ua5rlhdSR6X4ZfUIYYhJJO94kCnr8qZBLNx3wOetAHRUVj6Vr6a74Ug13Tbd5BcW3nwwOdrFsfcJ5wcjGeaxv+E/t5fB2j67bWTTT6rcRWsNn5mGErNtZS2P4cPnj+HtQB2NFYvibxFD4b0+GdraW6ubmdLW1tYiA00rdFBPAHBJJ6AVjx+Kbq8fVND1jSTpmprp73USLcCeOaLlSVcAcg4BBHcdaAOxBDAFSCD0Ipa5X4a/8k08Of8AXhF/KsCP4q3J8PxeI5fCt2mhiXyZ7lbhWdTv2ZSPGXXdgZ45PAOKAPSaK5PTPGF3N4kg0bV9Cm0uS8t3uLN3uFk8xUxuVwPuMAQcZI96zW+I14+l3GvWfhm4uPDkDNuvhcosjxoSGkSLGSgwepBwOlAHfUVx2oeOJk8Q22jaNo0mqTXWnLqEEqziOPYWI+ckfKMAc8kkgYrC8T+O9Wufhpqeq6PYvZajZXLWl6rzrus5EdQdvykSZyB24bNAHp1FcleeLtQ0yx06G80PdrmozNFa6db3SuG2jJcyEAKoHJOOPerGheKp9Q1u60PVtKbTNVghW4EXniZJYicb0cAZweCCBigDpaK8+13xB4otPidp+mafp0VxZSWUsgha8EYmwUy5+QlSucAc5z2rSvPGOoS6xqGneHvD76qdNKrdytdLAgcjd5aZB3NgjPQDPWgDr6K8x8R+O9VvdC8Mar4atCIb7VIYJ1mmWJw+8q1uwKnGSCCw6Y75rq73WfEcMNolr4X+03kkRknU36JDCc/d8wrlj9FoA6IsFxkgZOBk0teXeJfEMXifwn4a1GO3ltX/AOEktYZYJCC0ciSlWXI4PI616jQAVyXjPw9d+Kb3RdNZCNFS4a5v5Em8tzsX92i4+bljnI6ba62igDgJ/AjaL4p0PW/DwupXila3v1ur6SXdbOOSDIx+6wDYHWsZ/DHjCy8D6p4IsdOspbRxcLbajJdY3ROzMEMeM7/mxnO3vn19YooA8w8Q+A57jWtO1o6Fa62qabHZXNjLc+SyMpyHRuh6kEH2xU8vg+6fwrY2mneHrTSJV1q3vZbWG5En7tHUszMQAWwOgz0r0iigDl5dFvm+KFtrgjX7BHpElqz7xnzDKrAY64wOtc1eeEPETaDr9vbIoa78Qtfm3W68r7XanbmPevKFsfp716bRQB5h4a8Javo+u6xqln4d07TIrnTVht7Jrsyq0iuSRI2D1B7ZGMdeak0TTr3wvf6x4in0uDw5osVgzS6cl550cswO7zQFG1BgbcDk56V6XUc0ENzC0M8SSxN95JFDA9+hoAzdAvdS1LwvY32oWsdpqNxbiR4OdqMRkA9/TNcZpHhnWH8ZW+ptoVroEASUan9kvfMj1AsuFxGAAMH5txAPavSaKAPG9K+G0mk20ek3XgfTNW8pyqam9+Y1kj3ZBeMgkMB1ABBxXoPjfw9P4k8I3WmWckcV1mOW3Mn3N8bh1B9iVx+NdHRQB5+1h4s17xb4Z1bUtItNOtdLlmMsa3YlkYvEy7hgAbc4AHXnJxiueT4cyaXc31q/gvT9ejmuZJre9e/8khHYsFlU55GcZUHIr2GigDgb3SPEWl+N7bW9G0m0ubKHRksXtftIiORJnbGSMDHHXgj3rKuvh5q2s+GdUm1BLMavf6smqfY2kJhAQBVhZxycqCCw7mvU6KAOC8H+GksNa+2HwPZ6IyRMouFvhPISccKAOFPPJIPtWN43t77U/idZW2ls5urbSWc+Xf8A2F4w8mMiQKxfO0jbtwMZyCa9WrK1jwzofiDyzq+lWl6Y/uNNEGK/Q9aAPPrSzPiTwE2meH9Njsr3QNWR/s8t15sc8sTiRv3w+9u3HJI69a17TTPFOp+O49ev7C20y3XSZrOJEuBNJFIzqQWwAD0JGOOOTzXbWOn2el2cdpYWsNrbR/cihQKo/AVZoA8Xsvh/rv2nQ5LjQLZdQsNRhuL7V5NSM0l2qt8zKp6A9cHGOgFeg+GtGvdN8ReKby6jVYNQvUmtyHB3KIlUkjtyDXT0UAeUt4Z8X2HgzV/BVhptlNZzC5FtqMl1geVKzNsMeM7/AJiM529+3NnXvCesXV/pEk+kJremwaYlsdOe/NusFwOsp7OCOO5GOBXptFAHlmn+B9btPBmhaUbW3S4svES30scU2USASs2VJ5PBGAea9QmiWeCSF87ZFKtj0IxT6KAPG9J+G8mlW8Ok3fgbS9V8l9o1Rr8okibuGeMgkMB1ABGa7zSNFvrP4geJNWmjVbO+htEt2DgljGrBsjt1FdRRQB5pqVzq9p8Z7ubSLCG/ddChE1s83lMy+c+CjEYyD1B7VG/gnXZvDdw88cB1bUdfh1S4gjl+SBFdPkDHG4hV69zXow0+zXUm1IW0YvXiELT7fnKA5C59MkmrNAHEfEHwjL4jk0e/gsrbUH0yWRnsLmUxrcI64IDDowIBGeOOay4PAa6j4X1/TY/DNp4ck1C3WKN0uvPd2BLDfgYCggdCepr0uigDjrWXxfqWmT6fqWiWdkv2KSJ5lvBIZpSuF2AD5VJ5O7msW18K+IdEsfCGqWFpBdajpGnfYbyxecJ5iMq52PyNwZe/Br0uigDkfDej6rJ4o1LxRrVvDZ3F1BHaQWccvmmKJCWy7jgsWPbgAVh+KfCerap4uvLqfRoNd0+4gjjskuL9oY7FwCHLIPvBjg5GTxivSqKAPNdF8HazY2vw9jngjDaIZ/tuJQdm6NlXH97kjpXReMNFvtXvPDUllGrrYavFdT7nC7Y1VwSPU8jiuoooA5m30a9j+Jd9rTRr9hm0uG2R94yZFkdiMdehHNctF4K1630Gznt47f8AtbTdduNSggll+SeN3f5SwztJVuD2PWvT6KAOJsdK1zW/GNr4i1rT4dLj0+1lgtbRbgTSO8mNzsy8AYUADn1rIXwbrY+C9j4bNvH/AGpFNE7x+aNoC3IkPzdPu16bRQBymteH7vUvHWkagIwdPhsLu3nfeAQZNgGB1PQ1xGj/AA6l0qG30u88DaXqTQOF/tQ35RJEDcM0ZBYNjsARnvXsVFAHL6Tot9afELxHq80aizvre0jgYOCWMYcNkduormT4N1xfh0mnxwQtqVtrJ1GOBpgFlUXJkC7ugJU16dRQBwmo6d4i/wCEh0vxhZaTC98tk9leaW92oIjZw6lJMbSwI5+tX/C2i6mmvax4k1mGG1vNSEUUdnFJ5ggijBwGfABYkknHA4rrKKAOFk0zxHoHjLWdS0bTbbUbTWhE7ebdeSbaZF2Zbg7kIweOa59vhxqs/gXSbO7trK71LTNTnu2tZJCsN0jyOSoYcrkMCM9CMGvWqKAOK8FeH00zULm7Hg600EtEIw6Xgnlk5yQcDAXgHr+FS3+gatP4+vNWtHSCGXQGsYbncCY5zKWB29cAYOa7CigDxvSvAOtJqXhu5m8O21td6dexy3+pPqRnlu8KwZwD0BJyQeegA616P4y0JvEnhLUNMiYJcSR77d842TKdyHPb5gK3aKAPNoPAmp6x8PNestaaGDXddma5uGU7kjdSvlrkdVARenqaPDPhT7JrlncT+AdO02S3JZr5NQ83DbSMxpjPJ/vYwDXpNFAHn9p4V1aL4a+JtFeFBfX8l+1unmDDCVmKZPQZyPpTtR0LXbPUPCOr6fYRX0ulWUlpc2puBEfnRBuViMEArXfUUAeUeJvBet6vrutPc6Lb6wl6gXT7q41Bo0sBswV8rv8ANk5HXvit/SNQ1LQT4M8JLbQy3J04HUfmybdIo1XcCOOX+UetdxUYghE7TiJBMyhDJtG4qOQM9ccn86AOc8YaNe6vceG3s41dbHWIbufc4XbGquCR6nLDiuB8S+ANe1Z/EMM+iW2qXl5LJJZarcagVEERHyRiLsV6DsepNey0UAYWr6C2t+CLrQpX8mS5sfs5fqEbbgH3ANZOlP41n05NLvNMstOaK0aFtQS783fIE2o8aAZAzgnd9K7OigDxvSvAOtJqXhy5m8O21td6dexy3+pPqRnlu8BgzAHoCTuIPPQAV3Gg6Ff2F54ukuI1VdSvWmtsODuUxKuT6cg9a6yigDzJPCmv2HgvwUtvZQ3GpaDMks9mZwnmDYykK/TI3Z9K17jw3qGr+Lb2+vIFtrS/8O/2fIVlDmOVnYsvvgN16Gu2ooA8puNB8bX3hDTPDU2lWEaaZNa77sXe77UkUi4KLgbTgZO70wOvEnijwdrGq+JNWluNGt9bt7uNV0+a4v2ijsMJhgYx1y3zZHJ6cV6lRQB5pb+FvEOiWfg7U7GzgvNQ0jTzY3lk04TerKuSjnjIZe/UVteEtJ1y38UeItY1q2toP7TFsYY4Jd4QIrKVJwMkcZOMEniuxooA89+IXhHWdZ1K2u9AMaSXdrJpepO7BSLV2BLD1K4bj/apnjHwGLzVNH1Ky0a11W3sLVrJ9NmnMOY+CjI3QMuCMHgg16LRQB5jdeDbu48A6rp+m+GLPRru7ubd1t47sSF1SRGLO+MAgBsAE10+uaNfX3jfwrqcEataaebv7SxcAr5kQVcDvzXT0UAeUSeGPGNn4H1XwTY6bZTWrrcLbajJdY3ROWYIY8ZD87c52988c9CPC99N4usLuaNVsU8PPp0zhxkSMyHAH0B5rtqKAPJLnw342m+Hq+Cxpdh5doI41v8A7XxcRxyKyhUxlWIUZ3HHB65rQ8U+E9W1TxdeXU+jQa7p9xBHHZJcX7Qx2LAEOWQfe3HByMnjFel0UAc54C0i80DwNpOlX6Kl1aw7JArBhnJ6EVxfh7QZf+FuanYiVZNH0WZ9RgjH/LO4ulHyn6ASMB2316vVW106ysZrqa1toopLqTzZ3RcGR8YyfU4FAHNfEPwpL4q0iyW3it557C8S7W2uGKxzgAhoyw5XIY4Pris3w74XFs+oTReCrPQ5ZLN4ElF6J5HLfw8DAX3z+Feg0UAYPgrTLrRfBOjaZfIEurW0SKVVYMAwHPI61yH/AAhut/8ACk08NfZ4/wC1RKGMfmjbj7X5n3un3ea9NooA5bWdDvL/AMeeH9TjjU2NpbXcVw28AqZFQLgdT0Ncvb6B4x0/wZN4Gt9NspLVo5LWHV2ugFWByeWixu3hWIwOM969RooA47S/DFzpXjq0u4VB0u18Px6akhcbi6S5Ax/u85rIuvBer3fhLxxpm2GO41bU5bqz3SZVk/dlckdMlCPavSKKAOD1TTfEmpTeH/E0OkQQavpLzK2mSXYIlikUK2JAMBuARnj1q5oekave+MrjxVrdnFYSCyFha2aTCVlTfvZnYDGScYA7CuwooA47xHpmtR+NNH8Q6TYRaglvbTWk0DXAhZQ5UhwSCCBt5HWqcWn+J/C2v65Lo+k2+rWOrXP2xC12IGt5SoVg4IO5flByOfau9ooA82n8DavYeBdJtLQwXurWOrR6vPHv8tJ38xndFJ6fewCfSl8TaDruuaxp2o3ugpqVgbMxvpDal5S21wWz5hI4k+XA9scCvSKKAPKrHwNrdr4K0jSjaW0c9r4iS/eOKbKJAJi2VJ5OARgHmvVaKKACueHjvwqZ7aD+37DzLltsS+cPmOSuPbkEc9cV0NeA6fq/hwfBvVtCMaHXL2S4SO1EJ825maVhG6cfOB8vzDptPTFAHtWs+JNG8PRxvq+pW1mJDhBK+C30HU0v/CRaN/ZUOqDU7U2EzqkdyJAUZmOAM/XiuAt7y18L/ERrvxbPFb+do1tBZ3lx/qwyZ85A54DFsHHcVz1/aRXfgvXbiO2K6Hqfia2ks4nQoskRkjV3CnorEHHSgD2TSdb0zXraS50q+gvIY5DE0kLbgGHUZ/EVT1Hxf4d0jUk0/UNZsra7fGIpJQCM9M+mffFa8MENvGI4IkiQDAVFCgfgK8OBezu/Fula14o0zR3vb+4aWC/0zzXuIX+4yOXG4beAADjFAHp1xrV6nxK0/RUkT7DPpc1y67RkusiKDn0wxra1DV9O0kQnUL2C1WZykbTOFDMFLEZPHQE/hXB6RarY/EPwraJdPdpD4ZkjW4dSplAeIBiDyMjtUvxVlsoJPCU2pQefZR60jTJ5RkyojfkqOoHX8KAOt03xToWr2l1dafqtrcw2gJuGjfPlgDOT6DAPNJp/irQdVuJoLDV7S4lhhE8qxyg7IyMhj6DBFefXV9Y6/wCMtc1bQJEn06Dw1Nb3d1AP3ckpJZEz0ZgoP0ziln0dz+zpbQ6PZjzpdKt5ZY4E+eVTseUccksN31zQB3ml+MfDmt37WOma1ZXV0oJ8qOUEkDqR/eH0zVTxL400fR7fULIaxZRaxHaSSQwPINwcISoI9TjgHrXJ6tq+geKNQ8HWnhOSG4u7TUobg/ZkwbS1UHzA/HyAjC7TjJrLi1LRtO8N+N9D1tEbXLm9vHFq8JeW5Dg+S6DGWXGMEfdx2oA9G8N+IY73QvD39o3UQ1TU7BLhY8bTKQis5Ueg3frWrFqthNcXtvHdxGWxx9qXdjycruG7045ry6C9g0U/DHV9SlFvp0WlSQS3T/6uN3hj2hj2ztPJrP1C4fxFpXxPuNGWedJ3tGUKjK00Sxrv2g8kFQ2PUH3oA9IHj/wtJYX13ba3ZTpZJvlEcucDOAfcEkDIyOaTwr450jxV4fGqw3MMHlxLJdxNJxbZBOGYgDseap2HiDwrr8BttBa3ubtNPkEYgh5gjwBsJx8hJx8pweOnFcIl3b6p8DtJs7Rvtf8AZj2Z1i0iUtIkSSZkRl654yR6A0AeqaP4t8P+IJ5INJ1e0u5oxuaOKQFgPXHce44rZrzO81TSPFHjvwlJ4Xnhu5LCSWW7uLVflgtzGRsdhwNxIAXrx0rutG13T9fguZtOlaVLa5ktZSUK4kQ4Yc9frQBpUUUUAFFFFABRRRQAUUUUAFFFFABRRRQAUUUUAFFFFABRRRQAUUUUAFFFFABRRRQAUUUUAFFFFABRRRQAUUUUAFFFFABRRRQAUUUUAFFFFABRRRQAUUUUAFFFFABRRRQAUUUUAFFFFABRRRQAUUUUAFFFFABRRRQAUUUUAFFFFABRRRQAUUUUAFFFFABRRRQAUUUUAFFFFABRRRQAUUUUAFFFFABWJ4W8OReGdCt9MWf7SYHldZmQKfndnI9vvYrbooAa8aSLtkRXX0YZpSisu1lBA6AilooAKY8UcjKzxqxXoSM4p9FACbV3bto3AYzjmsfXPD663e6NctctCdMvRdhQufMIRl29ePvdfatmigBqxoibFRVU9gMClACqFUAAcADtS0UANWNELFEVSxySBjNBjQvvKKWAxuI5xTqKAGmNGj8tkUp02kcflShVUkhQCepA60tFADUjSPOxFXJycDGTQqIhYqqqWOTgdTTqKAGpHHGCI0VcnJ2jGaVVVc7VAycnA70tFABRRRQAUUUUAFFFFABRRRQAUUUUAFFFFABRRRQAUUUUAFFFFABRRRQAUUUUAFFFFABRRRQAUUUUAFFFFABRRRQAUUUUAFFFFABRRRQAUUUUAFFFFABRRRQAUUUUAFFFFABRRRQAUUUUAFFFFABRRRQAUUUUAFFFFABRRRQAUUUUAFFFFABRRRQAUUUUAFFFFABRRRQAUUUUAFFFFABRRRQAUUUUAf/Z;" parent="1" vertex="1">
          <mxGeometry x="169" y="-500" width="491" height="235.07" as="geometry" />
        </mxCell>
        <mxCell id="UBVngrWdJoMPdzRXQv1F-10" value="1:1" style="text;html=1;align=center;verticalAlign=middle;resizable=0;points=[];autosize=1;strokeColor=none;fillColor=none;sketch=0;hachureGap=4;pointerEvents=0;fontFamily=Helvetica;fontSize=15;" vertex="1" parent="1">
          <mxGeometry x="289" y="-86" width="31" height="22" as="geometry" />
        </mxCell>
        <mxCell id="UBVngrWdJoMPdzRXQv1F-11" value="1:M" style="text;html=1;align=center;verticalAlign=middle;resizable=0;points=[];autosize=1;strokeColor=none;fillColor=none;sketch=0;hachureGap=4;pointerEvents=0;fontFamily=Helvetica;fontSize=15;" vertex="1" parent="1">
          <mxGeometry x="420" y="-83" width="35" height="22" as="geometry" />
        </mxCell>
        <mxCell id="UBVngrWdJoMPdzRXQv1F-13" value="1:1" style="text;html=1;align=center;verticalAlign=middle;resizable=0;points=[];autosize=1;strokeColor=none;fillColor=none;sketch=0;hachureGap=4;pointerEvents=0;fontFamily=Helvetica;fontSize=15;" vertex="1" parent="1">
          <mxGeometry x="279" y="145" width="31" height="22" as="geometry" />
        </mxCell>
        <mxCell id="UBVngrWdJoMPdzRXQv1F-14" value="0:M" style="text;html=1;align=center;verticalAlign=middle;resizable=0;points=[];autosize=1;strokeColor=none;fillColor=none;sketch=0;hachureGap=4;pointerEvents=0;fontFamily=Helvetica;fontSize=15;" vertex="1" parent="1">
          <mxGeometry x="423" y="145" width="35" height="22" as="geometry" />
        </mxCell>
        <mxCell id="UBVngrWdJoMPdzRXQv1F-15" value="1:M" style="text;html=1;align=center;verticalAlign=middle;resizable=0;points=[];autosize=1;strokeColor=none;fillColor=none;sketch=0;hachureGap=4;pointerEvents=0;fontFamily=Helvetica;fontSize=15;" vertex="1" parent="1">
          <mxGeometry x="618" y="-83" width="35" height="22" as="geometry" />
        </mxCell>
        <mxCell id="UBVngrWdJoMPdzRXQv1F-16" value="1:M" style="text;html=1;align=center;verticalAlign=middle;resizable=0;points=[];autosize=1;strokeColor=none;fillColor=none;sketch=0;hachureGap=4;pointerEvents=0;fontFamily=Helvetica;fontSize=15;" vertex="1" parent="1">
          <mxGeometry x="757" y="-81" width="35" height="22" as="geometry" />
        </mxCell>
        <mxCell id="UBVngrWdJoMPdzRXQv1F-36" value="" style="edgeStyle=none;curved=1;rounded=0;sketch=0;hachureGap=4;orthogonalLoop=1;jettySize=auto;html=1;fontFamily=Helvetica;fontSize=15;endArrow=none;endFill=1;startSize=14;endSize=14;sourcePerimeterSpacing=8;targetPerimeterSpacing=8;strokeWidth=1;" edge="1" parent="1" target="UBVngrWdJoMPdzRXQv1F-20">
          <mxGeometry relative="1" as="geometry">
            <mxPoint x="913" y="-123" as="sourcePoint" />
          </mxGeometry>
        </mxCell>
        <mxCell id="UBVngrWdJoMPdzRXQv1F-42" style="edgeStyle=none;curved=1;rounded=0;sketch=0;hachureGap=4;orthogonalLoop=1;jettySize=auto;html=1;exitX=0.5;exitY=1;exitDx=0;exitDy=0;entryX=0.5;entryY=0;entryDx=0;entryDy=0;fontFamily=Helvetica;fontSize=15;endArrow=none;endFill=1;startSize=14;endSize=14;sourcePerimeterSpacing=8;targetPerimeterSpacing=8;strokeWidth=1;" edge="1" parent="1" source="UBVngrWdJoMPdzRXQv1F-18" target="WlglhAFsyyYIBNb1rmfc-8">
          <mxGeometry relative="1" as="geometry" />
        </mxCell>
        <mxCell id="UBVngrWdJoMPdzRXQv1F-18" value="Dirección" style="ellipse;whiteSpace=wrap;html=1;sketch=0;hachureGap=4;pointerEvents=0;fontFamily=Helvetica;fontSize=15;" vertex="1" parent="1">
          <mxGeometry x="866" y="-123" width="100" height="27" as="geometry" />
        </mxCell>
        <mxCell id="UBVngrWdJoMPdzRXQv1F-38" style="edgeStyle=none;curved=1;rounded=0;sketch=0;hachureGap=4;orthogonalLoop=1;jettySize=auto;html=1;exitX=0.5;exitY=1;exitDx=0;exitDy=0;entryX=0.5;entryY=0;entryDx=0;entryDy=0;fontFamily=Helvetica;fontSize=15;endArrow=none;endFill=1;startSize=14;endSize=14;sourcePerimeterSpacing=8;targetPerimeterSpacing=8;strokeWidth=1;" edge="1" parent="1" source="UBVngrWdJoMPdzRXQv1F-19" target="UBVngrWdJoMPdzRXQv1F-18">
          <mxGeometry relative="1" as="geometry" />
        </mxCell>
        <mxCell id="UBVngrWdJoMPdzRXQv1F-19" value="Calle" style="ellipse;whiteSpace=wrap;html=1;sketch=0;hachureGap=4;pointerEvents=0;fontFamily=Helvetica;fontSize=15;" vertex="1" parent="1">
          <mxGeometry x="982" y="-189" width="100" height="27" as="geometry" />
        </mxCell>
        <mxCell id="UBVngrWdJoMPdzRXQv1F-20" value="Comuna" style="ellipse;whiteSpace=wrap;html=1;sketch=0;hachureGap=4;pointerEvents=0;fontFamily=Helvetica;fontSize=15;" vertex="1" parent="1">
          <mxGeometry x="880" y="-224" width="100" height="27" as="geometry" />
        </mxCell>
        <mxCell id="UBVngrWdJoMPdzRXQv1F-40" style="edgeStyle=none;curved=1;rounded=0;sketch=0;hachureGap=4;orthogonalLoop=1;jettySize=auto;html=1;exitX=0.5;exitY=1;exitDx=0;exitDy=0;entryX=0.5;entryY=0;entryDx=0;entryDy=0;fontFamily=Helvetica;fontSize=15;endArrow=none;endFill=1;startSize=14;endSize=14;sourcePerimeterSpacing=8;targetPerimeterSpacing=8;strokeWidth=1;" edge="1" parent="1" source="UBVngrWdJoMPdzRXQv1F-21" target="UBVngrWdJoMPdzRXQv1F-18">
          <mxGeometry relative="1" as="geometry" />
        </mxCell>
        <mxCell id="UBVngrWdJoMPdzRXQv1F-21" value="Ciudad" style="ellipse;whiteSpace=wrap;html=1;sketch=0;hachureGap=4;pointerEvents=0;fontFamily=Helvetica;fontSize=15;" vertex="1" parent="1">
          <mxGeometry x="728" y="-162" width="100" height="27" as="geometry" />
        </mxCell>
        <mxCell id="UBVngrWdJoMPdzRXQv1F-39" style="edgeStyle=none;curved=1;rounded=0;sketch=0;hachureGap=4;orthogonalLoop=1;jettySize=auto;html=1;exitX=0.5;exitY=1;exitDx=0;exitDy=0;entryX=0.5;entryY=0;entryDx=0;entryDy=0;fontFamily=Helvetica;fontSize=15;endArrow=none;endFill=1;startSize=14;endSize=14;sourcePerimeterSpacing=8;targetPerimeterSpacing=8;strokeWidth=1;" edge="1" parent="1" source="UBVngrWdJoMPdzRXQv1F-22" target="UBVngrWdJoMPdzRXQv1F-18">
          <mxGeometry relative="1" as="geometry" />
        </mxCell>
        <mxCell id="UBVngrWdJoMPdzRXQv1F-22" value="Número" style="ellipse;whiteSpace=wrap;html=1;sketch=0;hachureGap=4;pointerEvents=0;fontFamily=Helvetica;fontSize=15;" vertex="1" parent="1">
          <mxGeometry x="761" y="-214" width="100" height="27" as="geometry" />
        </mxCell>
        <mxCell id="UBVngrWdJoMPdzRXQv1F-23" value="ID" style="ellipse;whiteSpace=wrap;html=1;sketch=0;hachureGap=4;pointerEvents=0;fontFamily=Helvetica;fontSize=15;" vertex="1" parent="1">
          <mxGeometry x="364.5" y="-172" width="100" height="27" as="geometry" />
        </mxCell>
        <mxCell id="UBVngrWdJoMPdzRXQv1F-24" value="Descripción" style="ellipse;whiteSpace=wrap;html=1;sketch=0;hachureGap=4;pointerEvents=0;fontFamily=Helvetica;fontSize=15;" vertex="1" parent="1">
          <mxGeometry x="194" y="-168" width="100" height="27" as="geometry" />
        </mxCell>
        <mxCell id="UBVngrWdJoMPdzRXQv1F-26" value="ID" style="ellipse;whiteSpace=wrap;html=1;sketch=0;hachureGap=4;pointerEvents=0;fontFamily=Helvetica;fontSize=15;" vertex="1" parent="1">
          <mxGeometry x="3" y="-96" width="100" height="27" as="geometry" />
        </mxCell>
        <mxCell id="UBVngrWdJoMPdzRXQv1F-35" value="" style="edgeStyle=none;curved=1;rounded=0;sketch=0;hachureGap=4;orthogonalLoop=1;jettySize=auto;html=1;fontFamily=Helvetica;fontSize=15;endArrow=none;endFill=1;startSize=14;endSize=14;sourcePerimeterSpacing=8;targetPerimeterSpacing=8;strokeWidth=1;" edge="1" parent="1" source="UBVngrWdJoMPdzRXQv1F-32" target="WlglhAFsyyYIBNb1rmfc-5">
          <mxGeometry relative="1" as="geometry" />
        </mxCell>
        <mxCell id="UBVngrWdJoMPdzRXQv1F-32" value="Nombre" style="ellipse;whiteSpace=wrap;html=1;sketch=0;hachureGap=4;pointerEvents=0;fontFamily=Helvetica;fontSize=15;" vertex="1" parent="1">
          <mxGeometry x="77" y="-145" width="100" height="27" as="geometry" />
        </mxCell>
        <mxCell id="UBVngrWdJoMPdzRXQv1F-45" value="Página WEB" style="ellipse;whiteSpace=wrap;html=1;sketch=0;hachureGap=4;pointerEvents=0;fontFamily=Helvetica;fontSize=15;" vertex="1" parent="1">
          <mxGeometry x="990" y="8" width="100" height="27" as="geometry" />
        </mxCell>
        <mxCell id="UBVngrWdJoMPdzRXQv1F-46" value="Nombre" style="ellipse;whiteSpace=wrap;html=1;sketch=0;hachureGap=4;pointerEvents=0;fontFamily=Helvetica;fontSize=15;" vertex="1" parent="1">
          <mxGeometry x="1024" y="-50" width="100" height="27" as="geometry" />
        </mxCell>
        <mxCell id="UBVngrWdJoMPdzRXQv1F-47" value="RUT" style="ellipse;whiteSpace=wrap;html=1;sketch=0;hachureGap=4;pointerEvents=0;fontFamily=Helvetica;fontSize=15;" vertex="1" parent="1">
          <mxGeometry x="1019" y="-108" width="100" height="27" as="geometry" />
        </mxCell>
        <mxCell id="UBVngrWdJoMPdzRXQv1F-51" value="Stock" style="ellipse;whiteSpace=wrap;html=1;sketch=0;hachureGap=4;pointerEvents=0;fontFamily=Helvetica;fontSize=15;" vertex="1" parent="1">
          <mxGeometry x="423" y="-206" width="100" height="27" as="geometry" />
        </mxCell>
        <mxCell id="UBVngrWdJoMPdzRXQv1F-52" value="Nombre" style="ellipse;whiteSpace=wrap;html=1;sketch=0;hachureGap=4;pointerEvents=0;fontFamily=Helvetica;fontSize=15;" vertex="1" parent="1">
          <mxGeometry x="502" y="-185" width="100" height="27" as="geometry" />
        </mxCell>
        <mxCell id="UBVngrWdJoMPdzRXQv1F-53" value="Precio" style="ellipse;whiteSpace=wrap;html=1;sketch=0;hachureGap=4;pointerEvents=0;fontFamily=Helvetica;fontSize=15;" vertex="1" parent="1">
          <mxGeometry x="613" y="-185" width="100" height="27" as="geometry" />
        </mxCell>
        <mxCell id="UBVngrWdJoMPdzRXQv1F-61" value="Descuento" style="ellipse;whiteSpace=wrap;html=1;sketch=0;hachureGap=4;pointerEvents=0;fontFamily=Helvetica;fontSize=15;" vertex="1" parent="1">
          <mxGeometry x="430" y="241" width="100" height="27" as="geometry" />
        </mxCell>
        <mxCell id="UBVngrWdJoMPdzRXQv1F-62" value="Monto final" style="ellipse;whiteSpace=wrap;html=1;sketch=0;hachureGap=4;pointerEvents=0;fontFamily=Helvetica;fontSize=15;" vertex="1" parent="1">
          <mxGeometry x="545" y="249" width="100" height="27" as="geometry" />
        </mxCell>
        <mxCell id="UBVngrWdJoMPdzRXQv1F-63" value="Fecha" style="ellipse;whiteSpace=wrap;html=1;sketch=0;hachureGap=4;pointerEvents=0;fontFamily=Helvetica;fontSize=15;" vertex="1" parent="1">
          <mxGeometry x="631" y="205" width="100" height="27" as="geometry" />
        </mxCell>
        <mxCell id="UBVngrWdJoMPdzRXQv1F-64" value="ID" style="ellipse;whiteSpace=wrap;html=1;sketch=0;hachureGap=4;pointerEvents=0;fontFamily=Helvetica;fontSize=15;" vertex="1" parent="1">
          <mxGeometry x="643" y="153" width="100" height="27" as="geometry" />
        </mxCell>
        <mxCell id="UBVngrWdJoMPdzRXQv1F-69" value="" style="edgeStyle=none;curved=1;rounded=0;sketch=0;hachureGap=4;orthogonalLoop=1;jettySize=auto;html=1;fontFamily=Helvetica;fontSize=15;endArrow=none;endFill=1;startSize=14;endSize=14;sourcePerimeterSpacing=8;targetPerimeterSpacing=8;strokeWidth=1;" edge="1" parent="1" target="UBVngrWdJoMPdzRXQv1F-71">
          <mxGeometry relative="1" as="geometry">
            <mxPoint x="48" y="136" as="sourcePoint" />
          </mxGeometry>
        </mxCell>
        <mxCell id="UBVngrWdJoMPdzRXQv1F-77" style="edgeStyle=none;curved=1;rounded=0;sketch=0;hachureGap=4;orthogonalLoop=1;jettySize=auto;html=1;exitX=0;exitY=0.5;exitDx=0;exitDy=0;fontFamily=Helvetica;fontSize=15;endArrow=none;endFill=1;startSize=14;endSize=14;sourcePerimeterSpacing=8;targetPerimeterSpacing=8;strokeWidth=1;" edge="1" parent="1" source="UBVngrWdJoMPdzRXQv1F-70" target="UBVngrWdJoMPdzRXQv1F-76">
          <mxGeometry relative="1" as="geometry" />
        </mxCell>
        <mxCell id="UBVngrWdJoMPdzRXQv1F-79" style="edgeStyle=none;curved=1;rounded=0;sketch=0;hachureGap=4;orthogonalLoop=1;jettySize=auto;html=1;exitX=0;exitY=0.5;exitDx=0;exitDy=0;entryX=0.5;entryY=1;entryDx=0;entryDy=0;fontFamily=Helvetica;fontSize=15;endArrow=none;endFill=1;startSize=14;endSize=14;sourcePerimeterSpacing=8;targetPerimeterSpacing=8;strokeWidth=1;" edge="1" parent="1" source="UBVngrWdJoMPdzRXQv1F-70" target="UBVngrWdJoMPdzRXQv1F-78">
          <mxGeometry relative="1" as="geometry" />
        </mxCell>
        <mxCell id="UBVngrWdJoMPdzRXQv1F-70" value="Dirección" style="ellipse;whiteSpace=wrap;html=1;sketch=0;hachureGap=4;pointerEvents=0;fontFamily=Helvetica;fontSize=15;" vertex="1" parent="1">
          <mxGeometry x="1" y="136" width="100" height="27" as="geometry" />
        </mxCell>
        <mxCell id="UBVngrWdJoMPdzRXQv1F-71" value="Comuna" style="ellipse;whiteSpace=wrap;html=1;sketch=0;hachureGap=4;pointerEvents=0;fontFamily=Helvetica;fontSize=15;" vertex="1" parent="1">
          <mxGeometry x="15" y="35" width="100" height="27" as="geometry" />
        </mxCell>
        <mxCell id="UBVngrWdJoMPdzRXQv1F-73" style="edgeStyle=none;curved=1;rounded=0;sketch=0;hachureGap=4;orthogonalLoop=1;jettySize=auto;html=1;exitX=0.5;exitY=1;exitDx=0;exitDy=0;entryX=0.5;entryY=0;entryDx=0;entryDy=0;fontFamily=Helvetica;fontSize=15;endArrow=none;endFill=1;startSize=14;endSize=14;sourcePerimeterSpacing=8;targetPerimeterSpacing=8;strokeWidth=1;" edge="1" parent="1" source="UBVngrWdJoMPdzRXQv1F-74" target="UBVngrWdJoMPdzRXQv1F-70">
          <mxGeometry relative="1" as="geometry" />
        </mxCell>
        <mxCell id="UBVngrWdJoMPdzRXQv1F-74" value="Número" style="ellipse;whiteSpace=wrap;html=1;sketch=0;hachureGap=4;pointerEvents=0;fontFamily=Helvetica;fontSize=15;" vertex="1" parent="1">
          <mxGeometry x="-104" y="45" width="100" height="27" as="geometry" />
        </mxCell>
        <mxCell id="UBVngrWdJoMPdzRXQv1F-76" value="Calle" style="ellipse;whiteSpace=wrap;html=1;sketch=0;hachureGap=4;pointerEvents=0;fontFamily=Helvetica;fontSize=15;" vertex="1" parent="1">
          <mxGeometry x="-185" y="108" width="100" height="27" as="geometry" />
        </mxCell>
        <mxCell id="UBVngrWdJoMPdzRXQv1F-78" value="Ciudad" style="ellipse;whiteSpace=wrap;html=1;sketch=0;hachureGap=4;pointerEvents=0;fontFamily=Helvetica;fontSize=15;" vertex="1" parent="1">
          <mxGeometry x="-185" y="161.5" width="100" height="27" as="geometry" />
        </mxCell>
        <mxCell id="UBVngrWdJoMPdzRXQv1F-80" value="RUT" style="ellipse;whiteSpace=wrap;html=1;sketch=0;hachureGap=4;pointerEvents=0;fontFamily=Helvetica;fontSize=15;" vertex="1" parent="1">
          <mxGeometry x="210" y="249" width="100" height="27" as="geometry" />
        </mxCell>
        <mxCell id="UBVngrWdJoMPdzRXQv1F-81" value="Teléfonos" style="ellipse;whiteSpace=wrap;html=1;sketch=0;hachureGap=4;pointerEvents=0;fontFamily=Helvetica;fontSize=15;" vertex="1" parent="1">
          <mxGeometry x="88" y="261" width="100" height="27" as="geometry" />
        </mxCell>
        <mxCell id="UBVngrWdJoMPdzRXQv1F-82" value="Nombre" style="ellipse;whiteSpace=wrap;html=1;sketch=0;hachureGap=4;pointerEvents=0;fontFamily=Helvetica;fontSize=15;" vertex="1" parent="1">
          <mxGeometry x="1" y="222" width="100" height="27" as="geometry" />
        </mxCell>
      </root>
    </mxGraphModel>
  </diagram>
</mxfile>
